glyphs
<glyph name="ison" format="2">
  <advance width="1524"/>
  <unicode hex="E000"/>
  <anchor x="930" y="641" name="yfenAbove"/>
  <anchor x="929" y="-40" name="yfenBelow"/>
  <anchor x="783" y="801" name="koronis"/>
  <anchor x="802" y="-62" name="endofonon"/>
  <anchor x="172" y="753" name="measureNumber"/>
  <anchor x="792" y="913" name="isonIndicator"/>
  <anchor x="713" y="125" name="gorgonBottom"/>
  <anchor x="1700" y="-19" name="heteronConnecting"/>
  <anchor x="1027" y="207" name="heteron"/>
  <anchor x="1471" y="133" name="omalonConnecting"/>
  <anchor x="1031" y="133" name="omalon"/>
  <anchor x="803" y="30" name="apli"/>
  <anchor x="820" y="165" name="antikenoma"/>
  <anchor x="314" y="676" name="noteTop"/>
  <anchor x="789" y="209" name="fthoraBottom"/>
  <anchor x="788" y="507" name="fthoraTop"/>
  <anchor x="400" y="133" name="diesis"/>
  <anchor x="1316" y="619" name="yfesis"/>
  <anchor x="840" y="113" name="psifiston"/>
  <anchor x="873" y="487" name="klasmaTop"/>
  <anchor x="786" y="505" name="gorgonTop"/>
  <outline>
    <contour>
      <point x="108" y="443" type="curve"/>
      <point x="82.6667" y="489"/>
      <point x="75.8333" y="528.5"/>
      <point x="87.5" y="561.5" type="curve" smooth="yes"/>
      <point x="99.1667" y="594.5"/>
      <point x="120" y="612"/>
      <point x="150" y="614" type="curve" smooth="yes"/>
      <point x="169.333" y="615.333"/>
      <point x="184.167" y="613.833"/>
      <point x="194.5" y="609.5" type="curve" smooth="yes"/>
      <point x="204.833" y="605.167"/>
      <point x="213.833" y="600.833"/>
      <point x="221.5" y="596.5" type="curve" smooth="yes"/>
      <point x="229.167" y="592.167"/>
      <point x="236.5" y="587.5"/>
      <point x="243.5" y="582.5" type="curve" smooth="yes"/>
      <point x="250.5" y="577.5"/>
      <point x="257.167" y="572.333"/>
      <point x="263.5" y="567" type="curve" smooth="yes"/>
      <point x="269.833" y="561.667"/>
      <point x="274.167" y="556.833"/>
      <point x="276.5" y="552.5" type="curve" smooth="yes"/>
      <point x="278.833" y="548.167"/>
      <point x="279.833" y="544.167"/>
      <point x="279.5" y="540.5" type="curve" smooth="yes"/>
      <point x="279.167" y="536.833"/>
      <point x="277.833" y="534.333"/>
      <point x="275.5" y="533" type="curve" smooth="yes"/>
      <point x="273.167" y="531.667"/>
      <point x="266.167" y="528.667"/>
      <point x="254.5" y="524" type="curve" smooth="yes"/>
      <point x="242.833" y="519.333"/>
      <point x="227.667" y="511.833"/>
      <point x="209" y="501.5" type="curve" smooth="yes"/>
      <point x="190.333" y="491.167"/>
      <point x="181.333" y="473.667"/>
      <point x="182" y="449" type="curve" smooth="yes"/>
      <point x="182" y="423.667"/>
      <point x="208.333" y="399.833"/>
      <point x="261" y="377.5" type="curve" smooth="yes"/>
      <point x="313.667" y="355.167"/>
      <point x="392" y="346"/>
      <point x="496" y="350" type="curve"/>
      <point x="1230" y="369" type="line" smooth="yes"/>
      <point x="1252" y="369"/>
      <point x="1269.67" y="367.5"/>
      <point x="1283" y="364.5" type="curve" smooth="yes"/>
      <point x="1296.33" y="361.5"/>
      <point x="1308.17" y="357.667"/>
      <point x="1318.5" y="353" type="curve" smooth="yes"/>
      <point x="1328.83" y="348.333"/>
      <point x="1337.83" y="343.833"/>
      <point x="1345.5" y="339.5" type="curve" smooth="yes"/>
      <point x="1353.17" y="335.167"/>
      <point x="1362" y="328.5"/>
      <point x="1372" y="319.5" type="curve" smooth="yes"/>
      <point x="1382" y="310.5"/>
      <point x="1393.5" y="299"/>
      <point x="1406.5" y="285" type="curve" smooth="yes"/>
      <point x="1419.5" y="271"/>
      <point x="1428" y="260.667"/>
      <point x="1432" y="254" type="curve" smooth="yes"/>
      <point x="1436" y="247.333"/>
      <point x="1438" y="240.833"/>
      <point x="1438" y="234.5" type="curve" smooth="yes"/>
      <point x="1438" y="228.167"/>
      <point x="1436" y="224"/>
      <point x="1432" y="222" type="curve" smooth="yes"/>
      <point x="1428" y="220"/>
      <point x="1423.67" y="219"/>
      <point x="1419" y="219" type="curve" smooth="yes"/>
      <point x="1414.33" y="219"/>
      <point x="1409.33" y="220"/>
      <point x="1404" y="222" type="curve" smooth="yes"/>
      <point x="1398.67" y="224"/>
      <point x="1392.17" y="226.333"/>
      <point x="1384.5" y="229" type="curve" smooth="yes"/>
      <point x="1376.83" y="231.667"/>
      <point x="1368.33" y="234.333"/>
      <point x="1359" y="237" type="curve" smooth="yes"/>
      <point x="1349.67" y="239.667"/>
      <point x="1341" y="241.667"/>
      <point x="1333" y="243" type="curve" smooth="yes"/>
      <point x="1325" y="244.333"/>
      <point x="1314" y="245.333"/>
      <point x="1300" y="246" type="curve" smooth="yes"/>
      <point x="905" y="252" type="line" smooth="yes"/>
      <point x="843.667" y="252"/>
      <point x="779.167" y="254.5"/>
      <point x="711.5" y="259.5" type="curve" smooth="yes"/>
      <point x="643.833" y="264.5"/>
      <point x="580" y="271"/>
      <point x="520" y="279" type="curve" smooth="yes"/>
      <point x="460" y="287"/>
      <point x="407.333" y="295.667"/>
      <point x="362" y="305" type="curve" smooth="yes"/>
      <point x="316.667" y="314.333"/>
      <point x="285.667" y="322"/>
      <point x="269" y="328" type="curve" smooth="yes"/>
      <point x="240.333" y="340"/>
      <point x="214.833" y="351.833"/>
      <point x="192.5" y="363.5" type="curve" smooth="yes"/>
      <point x="170.167" y="375.167"/>
      <point x="142" y="401.667"/>
    </contour>
  </outline>
</glyph>
<glyph name="oligonKentimaBelow" format="2">
  <advance width="1515"/>
  <unicode hex="E003"/>
  <anchor x="763" y="-180" name="apli"/>
  <anchor x="450" y="125" name="gorgonBottom"/>
  <anchor x="930" y="641" name="yfenAbove"/>
  <anchor x="929" y="-200" name="yfenBelow"/>
  <anchor x="783" y="801" name="koronis"/>
  <anchor x="802" y="-62" name="endofonon"/>
  <anchor x="172" y="753" name="measureNumber"/>
  <anchor x="792" y="913" name="isonIndicator"/>
  <anchor x="1692" y="-51" name="heteronConnecting"/>
  <anchor x="1027" y="-33" name="heteron"/>
  <anchor x="1033" y="-67" name="omalon"/>
  <anchor x="1473" y="-53" name="omalonConnecting"/>
  <anchor x="820" y="-55" name="antikenoma"/>
  <anchor x="314" y="676" name="noteTop"/>
  <anchor x="788" y="507" name="fthoraTop"/>
  <anchor x="420" y="107" name="fthoraBottom"/>
  <anchor x="400" y="133" name="diesis"/>
  <anchor x="1316" y="619" name="yfesis"/>
  <anchor x="793" y="487" name="klasmaTop"/>
  <anchor x="780" y="500" name="gorgonTop"/>
  <anchor x="840" y="113" name="psifiston"/>
  <outline>
    <contour>
      <point x="863" y="180" type="curve" smooth="yes"/>
      <point x="885.667" y="180"/>
      <point x="909.667" y="179.833"/>
      <point x="935" y="179.5" type="curve" smooth="yes"/>
      <point x="960.333" y="179.167"/>
      <point x="983" y="177.667"/>
      <point x="1003" y="175" type="curve"/>
      <point x="1017" y="175"/>
      <point x="1030.33" y="158"/>
      <point x="1043" y="124" type="curve" smooth="yes"/>
      <point x="1055.67" y="90"/>
      <point x="1073.67" y="56"/>
      <point x="1097" y="22" type="curve" smooth="yes"/>
      <point x="1105" y="10"/>
      <point x="1112.33" y="3.33333"/>
      <point x="1119" y="2" type="curve" smooth="yes"/>
      <point x="1125" y="0.666667"/>
      <point x="1129.67" y="-2"/>
      <point x="1133" y="-6" type="curve" smooth="yes"/>
      <point x="1136.33" y="-10"/>
      <point x="1133" y="-13.6667"/>
      <point x="1123" y="-17" type="curve"/>
      <point x="1099.67" y="-20.3333"/>
      <point x="1076.17" y="-21.6667"/>
      <point x="1052.5" y="-21" type="curve" smooth="yes"/>
      <point x="1028.83" y="-20.3333"/>
      <point x="1006.33" y="-19"/>
      <point x="985" y="-17" type="curve"/>
      <point x="965" y="-10.3333"/>
      <point x="950.667" y="5.16667"/>
      <point x="942" y="29.5" type="curve" smooth="yes"/>
      <point x="933.333" y="53.8333"/>
      <point x="917.333" y="89.6667"/>
      <point x="894" y="137" type="curve"/>
      <point x="886.667" y="148.333"/>
      <point x="875.333" y="155"/>
      <point x="860" y="157" type="curve" smooth="yes"/>
      <point x="849.333" y="158.333"/>
      <point x="843.167" y="162.5"/>
      <point x="841.5" y="169.5" type="curve" smooth="yes"/>
      <point x="839.833" y="176.5"/>
      <point x="847" y="180"/>
    </contour>
    <contour>
      <point x="85" y="384" type="curve" smooth="yes"/>
      <point x="88.3333" y="389.333"/>
      <point x="92.1667" y="392.167"/>
      <point x="96.5" y="392.5" type="curve" smooth="yes"/>
      <point x="100.833" y="392.833"/>
      <point x="105.333" y="391.667"/>
      <point x="110" y="389" type="curve" smooth="yes"/>
      <point x="114.667" y="386.333"/>
      <point x="120.667" y="383.167"/>
      <point x="128" y="379.5" type="curve" smooth="yes"/>
      <point x="135.333" y="375.833"/>
      <point x="144.667" y="372.833"/>
      <point x="156" y="370.5" type="curve" smooth="yes"/>
      <point x="167.333" y="368.167"/>
      <point x="183.333" y="367"/>
      <point x="204" y="367" type="curve" smooth="yes"/>
      <point x="1228" y="367" type="line" smooth="yes"/>
      <point x="1246.67" y="367"/>
      <point x="1263.67" y="365.5"/>
      <point x="1279" y="362.5" type="curve" smooth="yes"/>
      <point x="1294.33" y="359.5"/>
      <point x="1308.33" y="354.667"/>
      <point x="1321" y="348" type="curve" smooth="yes"/>
      <point x="1333.67" y="341.333"/>
      <point x="1343.5" y="335.333"/>
      <point x="1350.5" y="330" type="curve" smooth="yes"/>
      <point x="1357.5" y="324.667"/>
      <point x="1367" y="315.5"/>
      <point x="1379" y="302.5" type="curve" smooth="yes"/>
      <point x="1391" y="289.5"/>
      <point x="1401.5" y="277"/>
      <point x="1410.5" y="265" type="curve" smooth="yes"/>
      <point x="1419.5" y="253"/>
      <point x="1421.33" y="241.333"/>
      <point x="1416" y="230" type="curve"/>
      <point x="1410.67" y="222"/>
      <point x="1404.5" y="220.333"/>
      <point x="1397.5" y="225" type="curve" smooth="yes"/>
      <point x="1390.5" y="229.667"/>
      <point x="1382.33" y="233.667"/>
      <point x="1373" y="237" type="curve" smooth="yes"/>
      <point x="1363.67" y="240.333"/>
      <point x="1353.5" y="242.667"/>
      <point x="1342.5" y="244" type="curve" smooth="yes"/>
      <point x="1331.5" y="245.333"/>
      <point x="1314.33" y="246"/>
      <point x="1291" y="246" type="curve" smooth="yes"/>
      <point x="282" y="246" type="line" smooth="yes"/>
      <point x="266.667" y="246"/>
      <point x="252.667" y="247"/>
      <point x="240" y="249" type="curve" smooth="yes"/>
      <point x="227.333" y="251"/>
      <point x="217.5" y="253.167"/>
      <point x="210.5" y="255.5" type="curve" smooth="yes"/>
      <point x="203.5" y="257.833"/>
      <point x="196" y="261"/>
      <point x="188" y="265" type="curve" smooth="yes"/>
      <point x="180" y="269"/>
      <point x="171.5" y="273.833"/>
      <point x="162.5" y="279.5" type="curve" smooth="yes"/>
      <point x="153.5" y="285.167"/>
      <point x="144" y="293.167"/>
      <point x="134" y="303.5" type="curve" smooth="yes"/>
      <point x="124" y="313.833"/>
      <point x="113.833" y="325.833"/>
      <point x="103.5" y="339.5" type="curve" smooth="yes"/>
      <point x="93.1667" y="353.167"/>
      <point x="86.6667" y="362.667"/>
      <point x="84" y="368" type="curve" smooth="yes"/>
      <point x="81.3333" y="373.333"/>
      <point x="81.6667" y="378.667"/>
    </contour>
  </outline>
</glyph>
<glyph name="oligonKentimaAbove" format="2">
  <advance width="1515"/>
  <unicode hex="E004"/>






















  <outline>
    <contour>
      <point x="593" y="783" type="curve" smooth="yes"/>
      <point x="615.667" y="783"/>
      <point x="639.667" y="782.833"/>
      <point x="665" y="782.5" type="curve" smooth="yes"/>
      <point x="690.333" y="782.167"/>
      <point x="713" y="780.333"/>
      <point x="733" y="777" type="curve"/>
      <point x="747" y="777"/>
      <point x="762.5" y="749.5"/>
      <point x="779.5" y="694.5" type="curve" smooth="yes"/>
      <point x="796.5" y="639.5"/>
      <point x="816.667" y="591"/>
      <point x="840" y="549" type="curve" smooth="yes"/>
      <point x="848" y="535"/>
      <point x="855.333" y="527.333"/>
      <point x="862" y="526" type="curve" smooth="yes"/>
      <point x="868" y="524"/>
      <point x="872.5" y="520.5"/>
      <point x="875.5" y="515.5" type="curve" smooth="yes"/>
      <point x="878.5" y="510.5"/>
      <point x="875.333" y="506"/>
      <point x="866" y="502" type="curve"/>
      <point x="842.667" y="498"/>
      <point x="819.167" y="496.333"/>
      <point x="795.5" y="497" type="curve" smooth="yes"/>
      <point x="771.833" y="497.667"/>
      <point x="749.333" y="499.333"/>
      <point x="728" y="502" type="curve"/>
      <point x="708" y="510"/>
      <point x="691.5" y="535.5"/>
      <point x="678.5" y="578.5" type="curve" smooth="yes"/>
      <point x="665.5" y="621.5"/>
      <point x="647.333" y="672"/>
      <point x="624" y="730" type="curve" smooth="yes"/>
      <point x="622" y="733.333"/>
      <point x="617.833" y="737.833"/>
      <point x="611.5" y="743.5" type="curve" smooth="yes"/>
      <point x="605.167" y="749.167"/>
      <point x="598" y="753"/>
      <point x="590" y="755" type="curve" smooth="yes"/>
      <point x="579.333" y="757"/>
      <point x="573.167" y="762.167"/>
      <point x="571.5" y="770.5" type="curve" smooth="yes"/>
      <point x="569.833" y="778.833"/>
      <point x="577" y="783"/>
    </contour>
    <contour>
      <point x="85" y="384" type="curve" smooth="yes"/>
      <point x="88.3333" y="389.333"/>
      <point x="92.1667" y="392.167"/>
      <point x="96.5" y="392.5" type="curve" smooth="yes"/>
      <point x="100.833" y="392.833"/>
      <point x="105.333" y="391.667"/>
      <point x="110" y="389" type="curve" smooth="yes"/>
      <point x="114.667" y="386.333"/>
      <point x="120.667" y="383.167"/>
      <point x="128" y="379.5" type="curve" smooth="yes"/>
      <point x="135.333" y="375.833"/>
      <point x="144.667" y="372.833"/>
      <point x="156" y="370.5" type="curve" smooth="yes"/>
      <point x="167.333" y="368.167"/>
      <point x="183.333" y="367"/>
      <point x="204" y="367" type="curve" smooth="yes"/>
      <point x="1228" y="367" type="line" smooth="yes"/>
      <point x="1246.67" y="367"/>
      <point x="1263.67" y="365.5"/>
      <point x="1279" y="362.5" type="curve" smooth="yes"/>
      <point x="1294.33" y="359.5"/>
      <point x="1308.33" y="354.667"/>
      <point x="1321" y="348" type="curve" smooth="yes"/>
      <point x="1333.67" y="341.333"/>
      <point x="1343.5" y="335.333"/>
      <point x="1350.5" y="330" type="curve" smooth="yes"/>
      <point x="1357.5" y="324.667"/>
      <point x="1367" y="315.5"/>
      <point x="1379" y="302.5" type="curve" smooth="yes"/>
      <point x="1391" y="289.5"/>
      <point x="1401.5" y="277"/>
      <point x="1410.5" y="265" type="curve" smooth="yes"/>
      <point x="1419.5" y="253"/>
      <point x="1421.33" y="241.333"/>
      <point x="1416" y="230" type="curve"/>
      <point x="1410.67" y="222"/>
      <point x="1404.5" y="220.333"/>
      <point x="1397.5" y="225" type="curve" smooth="yes"/>
      <point x="1390.5" y="229.667"/>
      <point x="1382.33" y="233.667"/>
      <point x="1373" y="237" type="curve" smooth="yes"/>
      <point x="1363.67" y="240.333"/>
      <point x="1353.5" y="242.667"/>
      <point x="1342.5" y="244" type="curve" smooth="yes"/>
      <point x="1331.5" y="245.333"/>
      <point x="1314.33" y="246"/>
      <point x="1291" y="246" type="curve" smooth="yes"/>
      <point x="282" y="246" type="line" smooth="yes"/>
      <point x="266.667" y="246"/>
      <point x="252.667" y="247"/>
      <point x="240" y="249" type="curve" smooth="yes"/>
      <point x="227.333" y="251"/>
      <point x="217.5" y="253.167"/>
      <point x="210.5" y="255.5" type="curve" smooth="yes"/>
      <point x="203.5" y="257.833"/>
      <point x="196" y="261"/>
      <point x="188" y="265" type="curve" smooth="yes"/>
      <point x="180" y="269"/>
      <point x="171.5" y="273.833"/>
      <point x="162.5" y="279.5" type="curve" smooth="yes"/>
      <point x="153.5" y="285.167"/>
      <point x="144" y="293.167"/>
      <point x="134" y="303.5" type="curve" smooth="yes"/>
      <point x="124" y="313.833"/>
      <point x="113.833" y="325.833"/>
      <point x="103.5" y="339.5" type="curve" smooth="yes"/>
      <point x="93.1667" y="353.167"/>
      <point x="86.6667" y="362.667"/>
      <point x="84" y="368" type="curve" smooth="yes"/>
      <point x="81.3333" y="373.333"/>
      <point x="81.6667" y="378.667"/>
    </contour>
  </outline>
</glyph>
<glyph name="oligonYpsiliRight" format="2">
  <advance width="1515"/>
  <unicode hex="E005"/>






















  <outline>
    <contour>
      <point x="1427" y="1163" type="curve"/>
      <point x="1437.67" y="1161"/>
      <point x="1442.33" y="1155.5"/>
      <point x="1441" y="1146.5" type="curve" smooth="yes"/>
      <point x="1439.67" y="1137.5"/>
      <point x="1433" y="1132.67"/>
      <point x="1421" y="1132" type="curve"/>
      <point x="1407" y="1127.33"/>
      <point x="1395.83" y="1109.67"/>
      <point x="1387.5" y="1079" type="curve" smooth="yes"/>
      <point x="1379.17" y="1048.33"/>
      <point x="1370" y="1016"/>
      <point x="1360" y="982" type="curve" smooth="yes"/>
      <point x="1337.33" y="902.667"/>
      <point x="1316.67" y="838.333"/>
      <point x="1298" y="789" type="curve" smooth="yes"/>
      <point x="1279.33" y="739.667"/>
      <point x="1261.67" y="705.167"/>
      <point x="1245" y="685.5" type="curve" smooth="yes"/>
      <point x="1228.33" y="665.833"/>
      <point x="1208.33" y="650.667"/>
      <point x="1185" y="640" type="curve" smooth="yes"/>
      <point x="1149" y="624.667"/>
      <point x="1113.33" y="613.333"/>
      <point x="1078" y="606" type="curve" smooth="yes"/>
      <point x="1042.67" y="598.667"/>
      <point x="1012.33" y="595"/>
      <point x="987" y="595" type="curve"/>
      <point x="999.667" y="565"/>
      <point x="1021" y="544"/>
      <point x="1051" y="532" type="curve" smooth="yes"/>
      <point x="1081" y="520"/>
      <point x="1089.67" y="507.333"/>
      <point x="1077" y="494" type="curve" smooth="yes"/>
      <point x="1069.67" y="486.667"/>
      <point x="1046.5" y="496.333"/>
      <point x="1007.5" y="523" type="curve" smooth="yes"/>
      <point x="968.5" y="549.667"/>
      <point x="942" y="576"/>
      <point x="928" y="602" type="curve"/>
      <point x="928" y="618.667"/>
      <point x="934.667" y="625.667"/>
      <point x="948" y="623" type="curve" smooth="yes"/>
      <point x="961.333" y="620.333"/>
      <point x="976" y="618.333"/>
      <point x="992" y="617" type="curve" smooth="yes"/>
      <point x="1007.33" y="616.333"/>
      <point x="1023.17" y="617.333"/>
      <point x="1039.5" y="620" type="curve" smooth="yes"/>
      <point x="1055.83" y="622.667"/>
      <point x="1077.67" y="631"/>
      <point x="1105" y="645" type="curve" smooth="yes"/>
      <point x="1118.33" y="651.667"/>
      <point x="1131" y="666.833"/>
      <point x="1143" y="690.5" type="curve" smooth="yes"/>
      <point x="1155" y="714.167"/>
      <point x="1165.67" y="740.333"/>
      <point x="1175" y="769" type="curve" smooth="yes"/>
      <point x="1184.33" y="797.667"/>
      <point x="1192.33" y="826.167"/>
      <point x="1199" y="854.5" type="curve" smooth="yes"/>
      <point x="1205.67" y="882.833"/>
      <point x="1214.5" y="923.667"/>
      <point x="1225.5" y="977" type="curve" smooth="yes"/>
      <point x="1236.5" y="1030.33"/>
      <point x="1246" y="1066"/>
      <point x="1254" y="1084" type="curve" smooth="yes"/>
      <point x="1262" y="1102"/>
      <point x="1273.17" y="1116.67"/>
      <point x="1287.5" y="1128" type="curve" smooth="yes"/>
      <point x="1301.83" y="1139.33"/>
      <point x="1315.5" y="1146.67"/>
      <point x="1328.5" y="1150" type="curve" smooth="yes"/>
      <point x="1341.5" y="1153.33"/>
      <point x="1355.83" y="1155.67"/>
      <point x="1371.5" y="1157" type="curve" smooth="yes"/>
      <point x="1387.17" y="1158.33"/>
      <point x="1405.67" y="1160.33"/>
    </contour>
    <contour>
      <point x="85" y="384" type="curve" smooth="yes"/>
      <point x="88.3333" y="389.333"/>
      <point x="92.1667" y="392.167"/>
      <point x="96.5" y="392.5" type="curve" smooth="yes"/>
      <point x="100.833" y="392.833"/>
      <point x="105.333" y="391.667"/>
      <point x="110" y="389" type="curve" smooth="yes"/>
      <point x="114.667" y="386.333"/>
      <point x="120.667" y="383.167"/>
      <point x="128" y="379.5" type="curve" smooth="yes"/>
      <point x="135.333" y="375.833"/>
      <point x="144.667" y="372.833"/>
      <point x="156" y="370.5" type="curve" smooth="yes"/>
      <point x="167.333" y="368.167"/>
      <point x="183.333" y="367"/>
      <point x="204" y="367" type="curve" smooth="yes"/>
      <point x="1228" y="367" type="line" smooth="yes"/>
      <point x="1246.67" y="367"/>
      <point x="1263.67" y="365.5"/>
      <point x="1279" y="362.5" type="curve" smooth="yes"/>
      <point x="1294.33" y="359.5"/>
      <point x="1308.33" y="354.667"/>
      <point x="1321" y="348" type="curve" smooth="yes"/>
      <point x="1333.67" y="341.333"/>
      <point x="1343.5" y="335.333"/>
      <point x="1350.5" y="330" type="curve" smooth="yes"/>
      <point x="1357.5" y="324.667"/>
      <point x="1367" y="315.5"/>
      <point x="1379" y="302.5" type="curve" smooth="yes"/>
      <point x="1391" y="289.5"/>
      <point x="1401.5" y="277"/>
      <point x="1410.5" y="265" type="curve" smooth="yes"/>
      <point x="1419.5" y="253"/>
      <point x="1421.33" y="241.333"/>
      <point x="1416" y="230" type="curve"/>
      <point x="1410.67" y="222"/>
      <point x="1404.5" y="220.333"/>
      <point x="1397.5" y="225" type="curve" smooth="yes"/>
      <point x="1390.5" y="229.667"/>
      <point x="1382.33" y="233.667"/>
      <point x="1373" y="237" type="curve" smooth="yes"/>
      <point x="1363.67" y="240.333"/>
      <point x="1353.5" y="242.667"/>
      <point x="1342.5" y="244" type="curve" smooth="yes"/>
      <point x="1331.5" y="245.333"/>
      <point x="1314.33" y="246"/>
      <point x="1291" y="246" type="curve" smooth="yes"/>
      <point x="282" y="246" type="line" smooth="yes"/>
      <point x="266.667" y="246"/>
      <point x="252.667" y="247"/>
      <point x="240" y="249" type="curve" smooth="yes"/>
      <point x="227.333" y="251"/>
      <point x="217.5" y="253.167"/>
      <point x="210.5" y="255.5" type="curve" smooth="yes"/>
      <point x="203.5" y="257.833"/>
      <point x="196" y="261"/>
      <point x="188" y="265" type="curve" smooth="yes"/>
      <point x="180" y="269"/>
      <point x="171.5" y="273.833"/>
      <point x="162.5" y="279.5" type="curve" smooth="yes"/>
      <point x="153.5" y="285.167"/>
      <point x="144" y="293.167"/>
      <point x="134" y="303.5" type="curve" smooth="yes"/>
      <point x="124" y="313.833"/>
      <point x="113.833" y="325.833"/>
      <point x="103.5" y="339.5" type="curve" smooth="yes"/>
      <point x="93.1667" y="353.167"/>
      <point x="86.6667" y="362.667"/>
      <point x="84" y="368" type="curve" smooth="yes"/>
      <point x="81.3333" y="373.333"/>
      <point x="81.6667" y="378.667"/>
    </contour>
  </outline>
</glyph>
<glyph name="oligonKentimaYpsiliMiddle" format="2">
  <advance width="1515"/>
  <unicode hex="E008"/>





















  <outline>
    <contour>
      <point x="640" y="667" type="curve" smooth="yes"/>
      <point x="660.667" y="667"/>
      <point x="682" y="666.833"/>
      <point x="704" y="666.5" type="curve" smooth="yes"/>
      <point x="726" y="666.167"/>
      <point x="746" y="664.667"/>
      <point x="764" y="662" type="curve"/>
      <point x="776.667" y="662"/>
      <point x="789.5" y="640.5"/>
      <point x="802.5" y="597.5" type="curve" smooth="yes"/>
      <point x="815.5" y="554.5"/>
      <point x="831.667" y="516.333"/>
      <point x="851" y="483" type="curve" smooth="yes"/>
      <point x="857" y="471.667"/>
      <point x="863" y="465.667"/>
      <point x="869" y="465" type="curve" smooth="yes"/>
      <point x="874.333" y="463.667"/>
      <point x="878.333" y="460.833"/>
      <point x="881" y="456.5" type="curve" smooth="yes"/>
      <point x="883.667" y="452.167"/>
      <point x="880.667" y="448.667"/>
      <point x="872" y="446" type="curve"/>
      <point x="850.667" y="442.667"/>
      <point x="829.5" y="441.333"/>
      <point x="808.5" y="442" type="curve" smooth="yes"/>
      <point x="787.5" y="442.667"/>
      <point x="767.667" y="444"/>
      <point x="749" y="446" type="curve"/>
      <point x="731" y="452.667"/>
      <point x="717" y="472.833"/>
      <point x="707" y="506.5" type="curve" smooth="yes"/>
      <point x="697" y="540.167"/>
      <point x="682.667" y="579.667"/>
      <point x="664" y="625" type="curve"/>
      <point x="658" y="635.667"/>
      <point x="648.333" y="642.333"/>
      <point x="635" y="645" type="curve" smooth="yes"/>
      <point x="625" y="646.333"/>
      <point x="619.833" y="650.333"/>
      <point x="619.5" y="657" type="curve" smooth="yes"/>
      <point x="619.167" y="663.667"/>
      <point x="626" y="667"/>
    </contour>
    <contour>
      <point x="85" y="384" type="curve" smooth="yes"/>
      <point x="88.3333" y="389.333"/>
      <point x="92.1667" y="392.167"/>
      <point x="96.5" y="392.5" type="curve" smooth="yes"/>
      <point x="100.833" y="392.833"/>
      <point x="105.333" y="391.667"/>
      <point x="110" y="389" type="curve" smooth="yes"/>
      <point x="114.667" y="386.333"/>
      <point x="120.667" y="383.167"/>
      <point x="128" y="379.5" type="curve" smooth="yes"/>
      <point x="135.333" y="375.833"/>
      <point x="144.667" y="372.833"/>
      <point x="156" y="370.5" type="curve" smooth="yes"/>
      <point x="167.333" y="368.167"/>
      <point x="183.333" y="367"/>
      <point x="204" y="367" type="curve" smooth="yes"/>
      <point x="1228" y="367" type="line" smooth="yes"/>
      <point x="1246.67" y="367"/>
      <point x="1263.67" y="365.5"/>
      <point x="1279" y="362.5" type="curve" smooth="yes"/>
      <point x="1294.33" y="359.5"/>
      <point x="1308.33" y="354.667"/>
      <point x="1321" y="348" type="curve" smooth="yes"/>
      <point x="1333.67" y="341.333"/>
      <point x="1343.5" y="335.333"/>
      <point x="1350.5" y="330" type="curve" smooth="yes"/>
      <point x="1357.5" y="324.667"/>
      <point x="1367" y="315.5"/>
      <point x="1379" y="302.5" type="curve" smooth="yes"/>
      <point x="1391" y="289.5"/>
      <point x="1401.5" y="277"/>
      <point x="1410.5" y="265" type="curve" smooth="yes"/>
      <point x="1419.5" y="253"/>
      <point x="1421.33" y="241.333"/>
      <point x="1416" y="230" type="curve"/>
      <point x="1410.67" y="222"/>
      <point x="1404.5" y="220.333"/>
      <point x="1397.5" y="225" type="curve" smooth="yes"/>
      <point x="1390.5" y="229.667"/>
      <point x="1382.33" y="233.667"/>
      <point x="1373" y="237" type="curve" smooth="yes"/>
      <point x="1363.67" y="240.333"/>
      <point x="1353.5" y="242.667"/>
      <point x="1342.5" y="244" type="curve" smooth="yes"/>
      <point x="1331.5" y="245.333"/>
      <point x="1314.33" y="246"/>
      <point x="1291" y="246" type="curve" smooth="yes"/>
      <point x="282" y="246" type="line" smooth="yes"/>
      <point x="266.667" y="246"/>
      <point x="252.667" y="247"/>
      <point x="240" y="249" type="curve" smooth="yes"/>
      <point x="227.333" y="251"/>
      <point x="217.5" y="253.167"/>
      <point x="210.5" y="255.5" type="curve" smooth="yes"/>
      <point x="203.5" y="257.833"/>
      <point x="196" y="261"/>
      <point x="188" y="265" type="curve" smooth="yes"/>
      <point x="180" y="269"/>
      <point x="171.5" y="273.833"/>
      <point x="162.5" y="279.5" type="curve" smooth="yes"/>
      <point x="153.5" y="285.167"/>
      <point x="144" y="293.167"/>
      <point x="134" y="303.5" type="curve" smooth="yes"/>
      <point x="124" y="313.833"/>
      <point x="113.833" y="325.833"/>
      <point x="103.5" y="339.5" type="curve" smooth="yes"/>
      <point x="93.1667" y="353.167"/>
      <point x="86.6667" y="362.667"/>
      <point x="84" y="368" type="curve" smooth="yes"/>
      <point x="81.3333" y="373.333"/>
      <point x="81.6667" y="378.667"/>
    </contour>
    <contour>
      <point x="1078" y="1270" type="curve"/>
      <point x="1088" y="1268.67"/>
      <point x="1092.33" y="1264"/>
      <point x="1091" y="1256" type="curve" smooth="yes"/>
      <point x="1089.67" y="1248"/>
      <point x="1083.33" y="1243.67"/>
      <point x="1072" y="1243" type="curve"/>
      <point x="1059.33" y="1239"/>
      <point x="1049" y="1224.17"/>
      <point x="1041" y="1198.5" type="curve" smooth="yes"/>
      <point x="1033" y="1172.83"/>
      <point x="1024.67" y="1145.67"/>
      <point x="1016" y="1117" type="curve" smooth="yes"/>
      <point x="995.333" y="1049.67"/>
      <point x="976.333" y="995.167"/>
      <point x="959" y="953.5" type="curve" smooth="yes"/>
      <point x="941.667" y="911.833"/>
      <point x="925.167" y="882.833"/>
      <point x="909.5" y="866.5" type="curve" smooth="yes"/>
      <point x="893.833" y="850.167"/>
      <point x="875.333" y="837.667"/>
      <point x="854" y="829" type="curve" smooth="yes"/>
      <point x="820.667" y="815.667"/>
      <point x="787.833" y="805.833"/>
      <point x="755.5" y="799.5" type="curve" smooth="yes"/>
      <point x="723.167" y="793.167"/>
      <point x="695" y="790"/>
      <point x="671" y="790" type="curve"/>
      <point x="683" y="764"/>
      <point x="702.667" y="746.167"/>
      <point x="730" y="736.5" type="curve" smooth="yes"/>
      <point x="757.333" y="726.833"/>
      <point x="765.333" y="716.333"/>
      <point x="754" y="705" type="curve" smooth="yes"/>
      <point x="747.333" y="699"/>
      <point x="726" y="707.333"/>
      <point x="690" y="730" type="curve" smooth="yes"/>
      <point x="654" y="752.667"/>
      <point x="629.333" y="775"/>
      <point x="616" y="797" type="curve"/>
      <point x="616" y="811"/>
      <point x="622.333" y="816.833"/>
      <point x="635" y="814.5" type="curve" smooth="yes"/>
      <point x="647.667" y="812.167"/>
      <point x="661" y="810.333"/>
      <point x="675" y="809" type="curve" smooth="yes"/>
      <point x="689.667" y="808.333"/>
      <point x="704.5" y="809.167"/>
      <point x="719.5" y="811.5" type="curve" smooth="yes"/>
      <point x="734.5" y="813.833"/>
      <point x="754.667" y="820.667"/>
      <point x="780" y="832" type="curve" smooth="yes"/>
      <point x="792.667" y="838"/>
      <point x="804.5" y="851"/>
      <point x="815.5" y="871" type="curve" smooth="yes"/>
      <point x="826.5" y="891"/>
      <point x="836.333" y="913.167"/>
      <point x="845" y="937.5" type="curve" smooth="yes"/>
      <point x="853.667" y="961.833"/>
      <point x="861.167" y="985.833"/>
      <point x="867.5" y="1009.5" type="curve" smooth="yes"/>
      <point x="873.833" y="1033.17"/>
      <point x="882" y="1067.5"/>
      <point x="892" y="1112.5" type="curve" smooth="yes"/>
      <point x="902" y="1157.5"/>
      <point x="910.667" y="1187.67"/>
      <point x="918" y="1203" type="curve" smooth="yes"/>
      <point x="925.333" y="1218.33"/>
      <point x="935.5" y="1230.67"/>
      <point x="948.5" y="1240" type="curve" smooth="yes"/>
      <point x="961.5" y="1249.33"/>
      <point x="974" y="1255.33"/>
      <point x="986" y="1258" type="curve" smooth="yes"/>
      <point x="998" y="1260.67"/>
      <point x="1011.5" y="1262.83"/>
      <point x="1026.5" y="1264.5" type="curve" smooth="yes"/>
      <point x="1041.5" y="1266.17"/>
      <point x="1058.67" y="1268"/>
    </contour>
  </outline>
</glyph>
<glyph name="oligonKentimataDoubleYpsili" format="2">
  <advance width="1596"/>
  <unicode hex="E00A"/>




















  <outline>
    <contour>
      <point x="371" y="697" type="curve" smooth="yes"/>
      <point x="391" y="697"/>
      <point x="412" y="696.667"/>
      <point x="434" y="696" type="curve" smooth="yes"/>
      <point x="456" y="695.333"/>
      <point x="475.667" y="693.333"/>
      <point x="493" y="690" type="curve"/>
      <point x="505.667" y="690"/>
      <point x="519" y="668.667"/>
      <point x="533" y="626" type="curve" smooth="yes"/>
      <point x="547" y="583.333"/>
      <point x="563.667" y="541.667"/>
      <point x="583" y="501" type="curve" smooth="yes"/>
      <point x="589" y="487"/>
      <point x="595.333" y="479"/>
      <point x="602" y="477" type="curve" smooth="yes"/>
      <point x="607.333" y="475"/>
      <point x="611.333" y="471.5"/>
      <point x="614" y="466.5" type="curve" smooth="yes"/>
      <point x="616.667" y="461.5"/>
      <point x="613.667" y="457"/>
      <point x="605" y="453" type="curve"/>
      <point x="585" y="449"/>
      <point x="564.5" y="447.333"/>
      <point x="543.5" y="448" type="curve" smooth="yes"/>
      <point x="522.5" y="448.667"/>
      <point x="502.667" y="450.333"/>
      <point x="484" y="453" type="curve"/>
      <point x="466.667" y="461"/>
      <point x="453" y="480.167"/>
      <point x="443" y="510.5" type="curve" smooth="yes"/>
      <point x="433" y="540.833"/>
      <point x="417.667" y="585"/>
      <point x="397" y="643" type="curve" smooth="yes"/>
      <point x="395.667" y="646.333"/>
      <point x="392.167" y="651.5"/>
      <point x="386.5" y="658.5" type="curve" smooth="yes"/>
      <point x="380.833" y="665.5"/>
      <point x="374.667" y="669.667"/>
      <point x="368" y="671" type="curve" smooth="yes"/>
      <point x="358.667" y="672.333"/>
      <point x="353.333" y="676.833"/>
      <point x="352" y="684.5" type="curve" smooth="yes"/>
      <point x="350.667" y="692.167"/>
      <point x="357" y="696.333"/>
    </contour>
    <contour>
      <point x="642" y="697" type="curve" smooth="yes"/>
      <point x="662" y="697"/>
      <point x="682.833" y="696.667"/>
      <point x="704.5" y="696" type="curve" smooth="yes"/>
      <point x="726.167" y="695.333"/>
      <point x="746" y="693.333"/>
      <point x="764" y="690" type="curve"/>
      <point x="776.667" y="690"/>
      <point x="789.833" y="668.667"/>
      <point x="803.5" y="626" type="curve" smooth="yes"/>
      <point x="817.167" y="583.333"/>
      <point x="833.667" y="541.667"/>
      <point x="853" y="501" type="curve" smooth="yes"/>
      <point x="859" y="487"/>
      <point x="865.333" y="479"/>
      <point x="872" y="477" type="curve" smooth="yes"/>
      <point x="877.333" y="475"/>
      <point x="881.333" y="471.5"/>
      <point x="884" y="466.5" type="curve" smooth="yes"/>
      <point x="886.667" y="461.5"/>
      <point x="883.667" y="457"/>
      <point x="875" y="453" type="curve"/>
      <point x="855" y="449"/>
      <point x="834.667" y="447.333"/>
      <point x="814" y="448" type="curve" smooth="yes"/>
      <point x="793.333" y="448.667"/>
      <point x="773.667" y="450.333"/>
      <point x="755" y="453" type="curve"/>
      <point x="737.667" y="461"/>
      <point x="724" y="480.167"/>
      <point x="714" y="510.5" type="curve" smooth="yes"/>
      <point x="704" y="540.833"/>
      <point x="688.667" y="585"/>
      <point x="668" y="643" type="curve" smooth="yes"/>
      <point x="666" y="646.333"/>
      <point x="662.167" y="651.5"/>
      <point x="656.5" y="658.5" type="curve" smooth="yes"/>
      <point x="650.833" y="665.5"/>
      <point x="644.667" y="669.667"/>
      <point x="638" y="671" type="curve" smooth="yes"/>
      <point x="628.667" y="672.333"/>
      <point x="623.5" y="676.833"/>
      <point x="622.5" y="684.5" type="curve" smooth="yes"/>
      <point x="621.5" y="692.167"/>
      <point x="628" y="696.333"/>
    </contour>
    <contour>
      <point x="85" y="384" type="curve" smooth="yes"/>
      <point x="88.3333" y="389.333"/>
      <point x="92.1667" y="392.167"/>
      <point x="96.5" y="392.5" type="curve" smooth="yes"/>
      <point x="100.833" y="392.833"/>
      <point x="105.333" y="391.667"/>
      <point x="110" y="389" type="curve" smooth="yes"/>
      <point x="114.667" y="386.333"/>
      <point x="120.667" y="383.167"/>
      <point x="128" y="379.5" type="curve" smooth="yes"/>
      <point x="135.333" y="375.833"/>
      <point x="144.667" y="372.833"/>
      <point x="156" y="370.5" type="curve" smooth="yes"/>
      <point x="167.333" y="368.167"/>
      <point x="183.333" y="367"/>
      <point x="204" y="367" type="curve" smooth="yes"/>
      <point x="1228" y="367" type="line" smooth="yes"/>
      <point x="1246.67" y="367"/>
      <point x="1263.67" y="365.5"/>
      <point x="1279" y="362.5" type="curve" smooth="yes"/>
      <point x="1294.33" y="359.5"/>
      <point x="1308.33" y="354.667"/>
      <point x="1321" y="348" type="curve" smooth="yes"/>
      <point x="1333.67" y="341.333"/>
      <point x="1343.5" y="335.333"/>
      <point x="1350.5" y="330" type="curve" smooth="yes"/>
      <point x="1357.5" y="324.667"/>
      <point x="1367" y="315.5"/>
      <point x="1379" y="302.5" type="curve" smooth="yes"/>
      <point x="1391" y="289.5"/>
      <point x="1401.5" y="277"/>
      <point x="1410.5" y="265" type="curve" smooth="yes"/>
      <point x="1419.5" y="253"/>
      <point x="1421.33" y="241.333"/>
      <point x="1416" y="230" type="curve"/>
      <point x="1410.67" y="222"/>
      <point x="1404.5" y="220.333"/>
      <point x="1397.5" y="225" type="curve" smooth="yes"/>
      <point x="1390.5" y="229.667"/>
      <point x="1382.33" y="233.667"/>
      <point x="1373" y="237" type="curve" smooth="yes"/>
      <point x="1363.67" y="240.333"/>
      <point x="1353.5" y="242.667"/>
      <point x="1342.5" y="244" type="curve" smooth="yes"/>
      <point x="1331.5" y="245.333"/>
      <point x="1314.33" y="246"/>
      <point x="1291" y="246" type="curve" smooth="yes"/>
      <point x="282" y="246" type="line" smooth="yes"/>
      <point x="266.667" y="246"/>
      <point x="252.667" y="247"/>
      <point x="240" y="249" type="curve" smooth="yes"/>
      <point x="227.333" y="251"/>
      <point x="217.5" y="253.167"/>
      <point x="210.5" y="255.5" type="curve" smooth="yes"/>
      <point x="203.5" y="257.833"/>
      <point x="196" y="261"/>
      <point x="188" y="265" type="curve" smooth="yes"/>
      <point x="180" y="269"/>
      <point x="171.5" y="273.833"/>
      <point x="162.5" y="279.5" type="curve" smooth="yes"/>
      <point x="153.5" y="285.167"/>
      <point x="144" y="293.167"/>
      <point x="134" y="303.5" type="curve" smooth="yes"/>
      <point x="124" y="313.833"/>
      <point x="113.833" y="325.833"/>
      <point x="103.5" y="339.5" type="curve" smooth="yes"/>
      <point x="93.1667" y="353.167"/>
      <point x="86.6667" y="362.667"/>
      <point x="84" y="368" type="curve" smooth="yes"/>
      <point x="81.3333" y="373.333"/>
      <point x="81.6667" y="378.667"/>
    </contour>
    <contour>
      <point x="1481" y="1163" type="curve"/>
      <point x="1491.67" y="1161"/>
      <point x="1496.33" y="1155.5"/>
      <point x="1495" y="1146.5" type="curve" smooth="yes"/>
      <point x="1493.67" y="1137.5"/>
      <point x="1487" y="1132.67"/>
      <point x="1475" y="1132" type="curve"/>
      <point x="1461" y="1127.33"/>
      <point x="1449.67" y="1109.67"/>
      <point x="1441" y="1079" type="curve" smooth="yes"/>
      <point x="1432.33" y="1048.33"/>
      <point x="1423.33" y="1016"/>
      <point x="1414" y="982" type="curve" smooth="yes"/>
      <point x="1391.33" y="902.667"/>
      <point x="1370.67" y="838.333"/>
      <point x="1352" y="789" type="curve" smooth="yes"/>
      <point x="1333.33" y="739.667"/>
      <point x="1315.5" y="705.167"/>
      <point x="1298.5" y="685.5" type="curve" smooth="yes"/>
      <point x="1281.5" y="665.833"/>
      <point x="1261.33" y="650.667"/>
      <point x="1238" y="640" type="curve" smooth="yes"/>
      <point x="1202" y="624.667"/>
      <point x="1166.5" y="613.333"/>
      <point x="1131.5" y="606" type="curve" smooth="yes"/>
      <point x="1096.5" y="598.667"/>
      <point x="1066.33" y="595"/>
      <point x="1041" y="595" type="curve"/>
      <point x="1053.67" y="565"/>
      <point x="1074.83" y="544"/>
      <point x="1104.5" y="532" type="curve" smooth="yes"/>
      <point x="1134.17" y="520"/>
      <point x="1142.67" y="507.333"/>
      <point x="1130" y="494" type="curve" smooth="yes"/>
      <point x="1122.67" y="486.667"/>
      <point x="1099.67" y="496.333"/>
      <point x="1061" y="523" type="curve" smooth="yes"/>
      <point x="1022.33" y="549.667"/>
      <point x="995.667" y="576"/>
      <point x="981" y="602" type="curve"/>
      <point x="981" y="618.667"/>
      <point x="987.833" y="625.667"/>
      <point x="1001.5" y="623" type="curve" smooth="yes"/>
      <point x="1015.17" y="620.333"/>
      <point x="1029.67" y="618.333"/>
      <point x="1045" y="617" type="curve" smooth="yes"/>
      <point x="1060.33" y="616.333"/>
      <point x="1076.33" y="617.333"/>
      <point x="1093" y="620" type="curve" smooth="yes"/>
      <point x="1109.67" y="622.667"/>
      <point x="1131.67" y="631"/>
      <point x="1159" y="645" type="curve" smooth="yes"/>
      <point x="1172.33" y="651.667"/>
      <point x="1184.83" y="666.833"/>
      <point x="1196.5" y="690.5" type="curve" smooth="yes"/>
      <point x="1208.17" y="714.167"/>
      <point x="1218.83" y="740.333"/>
      <point x="1228.5" y="769" type="curve" smooth="yes"/>
      <point x="1238.17" y="797.667"/>
      <point x="1246.33" y="826.167"/>
      <point x="1253" y="854.5" type="curve" smooth="yes"/>
      <point x="1259.67" y="882.833"/>
      <point x="1268.5" y="923.667"/>
      <point x="1279.5" y="977" type="curve" smooth="yes"/>
      <point x="1290.5" y="1030.33"/>
      <point x="1299.83" y="1066"/>
      <point x="1307.5" y="1084" type="curve" smooth="yes"/>
      <point x="1315.17" y="1102"/>
      <point x="1326.17" y="1116.67"/>
      <point x="1340.5" y="1128" type="curve" smooth="yes"/>
      <point x="1354.83" y="1139.33"/>
      <point x="1368.5" y="1146.67"/>
      <point x="1381.5" y="1150" type="curve" smooth="yes"/>
      <point x="1394.5" y="1153.33"/>
      <point x="1409" y="1155.67"/>
      <point x="1425" y="1157" type="curve" smooth="yes"/>
      <point x="1441" y="1158.33"/>
      <point x="1459.67" y="1160.33"/>
    </contour>
    <contour>
      <point x="874" y="1272" type="curve"/>
      <point x="883.333" y="1270.67"/>
      <point x="887.5" y="1266.5"/>
      <point x="886.5" y="1259.5" type="curve" smooth="yes"/>
      <point x="885.5" y="1252.5"/>
      <point x="879.333" y="1248.67"/>
      <point x="868" y="1248" type="curve"/>
      <point x="856" y="1244"/>
      <point x="846.167" y="1230.83"/>
      <point x="838.5" y="1208.5" type="curve" smooth="yes"/>
      <point x="830.833" y="1186.17"/>
      <point x="822.667" y="1162.33"/>
      <point x="814" y="1137" type="curve" smooth="yes"/>
      <point x="794" y="1077.67"/>
      <point x="775.833" y="1029.67"/>
      <point x="759.5" y="993" type="curve" smooth="yes"/>
      <point x="743.167" y="956.333"/>
      <point x="727.667" y="930.667"/>
      <point x="713" y="916" type="curve" smooth="yes"/>
      <point x="698.333" y="901.333"/>
      <point x="680.667" y="890"/>
      <point x="660" y="882" type="curve" smooth="yes"/>
      <point x="628" y="870.667"/>
      <point x="596.667" y="862.167"/>
      <point x="566" y="856.5" type="curve" smooth="yes"/>
      <point x="535.333" y="850.833"/>
      <point x="508.667" y="848"/>
      <point x="486" y="848" type="curve"/>
      <point x="497.333" y="825.333"/>
      <point x="516.167" y="809.667"/>
      <point x="542.5" y="801" type="curve" smooth="yes"/>
      <point x="568.833" y="792.333"/>
      <point x="576.333" y="783"/>
      <point x="565" y="773" type="curve" smooth="yes"/>
      <point x="558.333" y="767.667"/>
      <point x="538" y="775"/>
      <point x="504" y="795" type="curve" smooth="yes"/>
      <point x="470" y="815"/>
      <point x="446.667" y="834.667"/>
      <point x="434" y="854" type="curve"/>
      <point x="434" y="866.667"/>
      <point x="439.833" y="871.833"/>
      <point x="451.5" y="869.5" type="curve" smooth="yes"/>
      <point x="463.167" y="867.167"/>
      <point x="476" y="865.667"/>
      <point x="490" y="865" type="curve" smooth="yes"/>
      <point x="504" y="864.333"/>
      <point x="518.167" y="865"/>
      <point x="532.5" y="867" type="curve" smooth="yes"/>
      <point x="546.833" y="869"/>
      <point x="566" y="875.333"/>
      <point x="590" y="886" type="curve" smooth="yes"/>
      <point x="602" y="891.333"/>
      <point x="613.167" y="902.667"/>
      <point x="623.5" y="920" type="curve" smooth="yes"/>
      <point x="633.833" y="937.333"/>
      <point x="643.167" y="956.833"/>
      <point x="651.5" y="978.5" type="curve" smooth="yes"/>
      <point x="659.833" y="1000.17"/>
      <point x="667" y="1021.5"/>
      <point x="673" y="1042.5" type="curve" smooth="yes"/>
      <point x="679" y="1063.5"/>
      <point x="686.667" y="1093.83"/>
      <point x="696" y="1133.5" type="curve" smooth="yes"/>
      <point x="705.333" y="1173.17"/>
      <point x="713.5" y="1199.67"/>
      <point x="720.5" y="1213" type="curve" smooth="yes"/>
      <point x="727.5" y="1226.33"/>
      <point x="737.333" y="1237.17"/>
      <point x="750" y="1245.5" type="curve" smooth="yes"/>
      <point x="762.667" y="1253.83"/>
      <point x="774.833" y="1259.17"/>
      <point x="786.5" y="1261.5" type="curve" smooth="yes"/>
      <point x="798.167" y="1263.83"/>
      <point x="811" y="1265.67"/>
      <point x="825" y="1267" type="curve" smooth="yes"/>
      <point x="839" y="1268.33"/>
      <point x="855.333" y="1270"/>
    </contour>
  </outline>
</glyph>
<glyph name="oligonKentimaDoubleYpsiliRight" format="2">
  <advance width="1577"/>
  <unicode hex="E00B"/>




















  <outline>
    <contour>
      <point x="492" y="697" type="curve" smooth="yes"/>
      <point x="512" y="697"/>
      <point x="532.833" y="696.667"/>
      <point x="554.5" y="696" type="curve" smooth="yes"/>
      <point x="576.167" y="695.333"/>
      <point x="596" y="693.333"/>
      <point x="614" y="690" type="curve"/>
      <point x="626.667" y="690"/>
      <point x="639.833" y="668.667"/>
      <point x="653.5" y="626" type="curve" smooth="yes"/>
      <point x="667.167" y="583.333"/>
      <point x="683.667" y="541.667"/>
      <point x="703" y="501" type="curve" smooth="yes"/>
      <point x="709" y="487"/>
      <point x="715.333" y="479"/>
      <point x="722" y="477" type="curve" smooth="yes"/>
      <point x="727.333" y="475"/>
      <point x="731.333" y="471.5"/>
      <point x="734" y="466.5" type="curve" smooth="yes"/>
      <point x="736.667" y="461.5"/>
      <point x="734" y="457"/>
      <point x="726" y="453" type="curve"/>
      <point x="705.333" y="449"/>
      <point x="684.667" y="447.333"/>
      <point x="664" y="448" type="curve" smooth="yes"/>
      <point x="643.333" y="448.667"/>
      <point x="623.667" y="450.333"/>
      <point x="605" y="453" type="curve"/>
      <point x="587" y="461"/>
      <point x="573.167" y="480.167"/>
      <point x="563.5" y="510.5" type="curve" smooth="yes"/>
      <point x="553.833" y="540.833"/>
      <point x="538.667" y="585"/>
      <point x="518" y="643" type="curve" smooth="yes"/>
      <point x="516" y="646.333"/>
      <point x="512.333" y="651.5"/>
      <point x="507" y="658.5" type="curve" smooth="yes"/>
      <point x="501.667" y="665.5"/>
      <point x="495.333" y="669.667"/>
      <point x="488" y="671" type="curve" smooth="yes"/>
      <point x="478.667" y="672.333"/>
      <point x="473.5" y="676.833"/>
      <point x="472.5" y="684.5" type="curve" smooth="yes"/>
      <point x="471.5" y="692.167"/>
      <point x="478" y="696.333"/>
    </contour>
    <contour>
      <point x="85" y="384" type="curve" smooth="yes"/>
      <point x="88.3333" y="389.333"/>
      <point x="92.1667" y="392.167"/>
      <point x="96.5" y="392.5" type="curve" smooth="yes"/>
      <point x="100.833" y="392.833"/>
      <point x="105.333" y="391.667"/>
      <point x="110" y="389" type="curve" smooth="yes"/>
      <point x="114.667" y="386.333"/>
      <point x="120.667" y="383.167"/>
      <point x="128" y="379.5" type="curve" smooth="yes"/>
      <point x="135.333" y="375.833"/>
      <point x="144.667" y="372.833"/>
      <point x="156" y="370.5" type="curve" smooth="yes"/>
      <point x="167.333" y="368.167"/>
      <point x="183.333" y="367"/>
      <point x="204" y="367" type="curve" smooth="yes"/>
      <point x="1228" y="367" type="line" smooth="yes"/>
      <point x="1246.67" y="367"/>
      <point x="1263.67" y="365.5"/>
      <point x="1279" y="362.5" type="curve" smooth="yes"/>
      <point x="1294.33" y="359.5"/>
      <point x="1308.33" y="354.667"/>
      <point x="1321" y="348" type="curve" smooth="yes"/>
      <point x="1333.67" y="341.333"/>
      <point x="1343.5" y="335.333"/>
      <point x="1350.5" y="330" type="curve" smooth="yes"/>
      <point x="1357.5" y="324.667"/>
      <point x="1367" y="315.5"/>
      <point x="1379" y="302.5" type="curve" smooth="yes"/>
      <point x="1391" y="289.5"/>
      <point x="1401.5" y="277"/>
      <point x="1410.5" y="265" type="curve" smooth="yes"/>
      <point x="1419.5" y="253"/>
      <point x="1421.33" y="241.333"/>
      <point x="1416" y="230" type="curve"/>
      <point x="1410.67" y="222"/>
      <point x="1404.5" y="220.333"/>
      <point x="1397.5" y="225" type="curve" smooth="yes"/>
      <point x="1390.5" y="229.667"/>
      <point x="1382.33" y="233.667"/>
      <point x="1373" y="237" type="curve" smooth="yes"/>
      <point x="1363.67" y="240.333"/>
      <point x="1353.5" y="242.667"/>
      <point x="1342.5" y="244" type="curve" smooth="yes"/>
      <point x="1331.5" y="245.333"/>
      <point x="1314.33" y="246"/>
      <point x="1291" y="246" type="curve" smooth="yes"/>
      <point x="282" y="246" type="line" smooth="yes"/>
      <point x="266.667" y="246"/>
      <point x="252.667" y="247"/>
      <point x="240" y="249" type="curve" smooth="yes"/>
      <point x="227.333" y="251"/>
      <point x="217.5" y="253.167"/>
      <point x="210.5" y="255.5" type="curve" smooth="yes"/>
      <point x="203.5" y="257.833"/>
      <point x="196" y="261"/>
      <point x="188" y="265" type="curve" smooth="yes"/>
      <point x="180" y="269"/>
      <point x="171.5" y="273.833"/>
      <point x="162.5" y="279.5" type="curve" smooth="yes"/>
      <point x="153.5" y="285.167"/>
      <point x="144" y="293.167"/>
      <point x="134" y="303.5" type="curve" smooth="yes"/>
      <point x="124" y="313.833"/>
      <point x="113.833" y="325.833"/>
      <point x="103.5" y="339.5" type="curve" smooth="yes"/>
      <point x="93.1667" y="353.167"/>
      <point x="86.6667" y="362.667"/>
      <point x="84" y="368" type="curve" smooth="yes"/>
      <point x="81.3333" y="373.333"/>
      <point x="81.6667" y="378.667"/>
    </contour>
    <contour>
      <point x="1486" y="1163" type="curve"/>
      <point x="1496.67" y="1161"/>
      <point x="1501.33" y="1155.5"/>
      <point x="1500" y="1146.5" type="curve" smooth="yes"/>
      <point x="1498.67" y="1137.5"/>
      <point x="1491.67" y="1132.67"/>
      <point x="1479" y="1132" type="curve"/>
      <point x="1465" y="1127.33"/>
      <point x="1453.83" y="1109.67"/>
      <point x="1445.5" y="1079" type="curve" smooth="yes"/>
      <point x="1437.17" y="1048.33"/>
      <point x="1428" y="1016"/>
      <point x="1418" y="982" type="curve" smooth="yes"/>
      <point x="1395.33" y="902.667"/>
      <point x="1374.83" y="838.333"/>
      <point x="1356.5" y="789" type="curve" smooth="yes"/>
      <point x="1338.17" y="739.667"/>
      <point x="1320.5" y="705.167"/>
      <point x="1303.5" y="685.5" type="curve" smooth="yes"/>
      <point x="1286.5" y="665.833"/>
      <point x="1266.33" y="650.667"/>
      <point x="1243" y="640" type="curve" smooth="yes"/>
      <point x="1207" y="624.667"/>
      <point x="1171.5" y="613.333"/>
      <point x="1136.5" y="606" type="curve" smooth="yes"/>
      <point x="1101.5" y="598.667"/>
      <point x="1071" y="595"/>
      <point x="1045" y="595" type="curve"/>
      <point x="1057.67" y="565"/>
      <point x="1079" y="544"/>
      <point x="1109" y="532" type="curve" smooth="yes"/>
      <point x="1139" y="520"/>
      <point x="1147.67" y="507.333"/>
      <point x="1135" y="494" type="curve" smooth="yes"/>
      <point x="1127.67" y="486.667"/>
      <point x="1104.67" y="496.333"/>
      <point x="1066" y="523" type="curve" smooth="yes"/>
      <point x="1027.33" y="549.667"/>
      <point x="1000.67" y="576"/>
      <point x="986" y="602" type="curve"/>
      <point x="986" y="618.667"/>
      <point x="992.833" y="625.667"/>
      <point x="1006.5" y="623" type="curve" smooth="yes"/>
      <point x="1020.17" y="620.333"/>
      <point x="1034.67" y="618.333"/>
      <point x="1050" y="617" type="curve" smooth="yes"/>
      <point x="1065.33" y="616.333"/>
      <point x="1081.33" y="617.333"/>
      <point x="1098" y="620" type="curve" smooth="yes"/>
      <point x="1114.67" y="622.667"/>
      <point x="1136.67" y="631"/>
      <point x="1164" y="645" type="curve" smooth="yes"/>
      <point x="1177.33" y="651.667"/>
      <point x="1189.83" y="666.833"/>
      <point x="1201.5" y="690.5" type="curve" smooth="yes"/>
      <point x="1213.17" y="714.167"/>
      <point x="1223.83" y="740.333"/>
      <point x="1233.5" y="769" type="curve" smooth="yes"/>
      <point x="1243.17" y="797.667"/>
      <point x="1251.33" y="826.167"/>
      <point x="1258" y="854.5" type="curve" smooth="yes"/>
      <point x="1264.67" y="882.833"/>
      <point x="1273.5" y="923.667"/>
      <point x="1284.5" y="977" type="curve" smooth="yes"/>
      <point x="1295.5" y="1030.33"/>
      <point x="1304.83" y="1066"/>
      <point x="1312.5" y="1084" type="curve" smooth="yes"/>
      <point x="1320.17" y="1102"/>
      <point x="1331.17" y="1116.67"/>
      <point x="1345.5" y="1128" type="curve" smooth="yes"/>
      <point x="1359.83" y="1139.33"/>
      <point x="1373.5" y="1146.67"/>
      <point x="1386.5" y="1150" type="curve" smooth="yes"/>
      <point x="1399.5" y="1153.33"/>
      <point x="1414" y="1155.67"/>
      <point x="1430" y="1157" type="curve" smooth="yes"/>
      <point x="1446" y="1158.33"/>
      <point x="1464.67" y="1160.33"/>
    </contour>
    <contour>
      <point x="897" y="1338" type="curve"/>
      <point x="907" y="1336.67"/>
      <point x="911.5" y="1332.17"/>
      <point x="910.5" y="1324.5" type="curve" smooth="yes"/>
      <point x="909.5" y="1316.83"/>
      <point x="903.333" y="1312.33"/>
      <point x="892" y="1311" type="curve"/>
      <point x="879.333" y="1307"/>
      <point x="869" y="1292.17"/>
      <point x="861" y="1266.5" type="curve" smooth="yes"/>
      <point x="853" y="1240.83"/>
      <point x="844.333" y="1213.67"/>
      <point x="835" y="1185" type="curve" smooth="yes"/>
      <point x="814.333" y="1117.67"/>
      <point x="795.333" y="1063.33"/>
      <point x="778" y="1022" type="curve" smooth="yes"/>
      <point x="760.667" y="980.667"/>
      <point x="744.333" y="951.667"/>
      <point x="729" y="935" type="curve" smooth="yes"/>
      <point x="713.667" y="918.333"/>
      <point x="695" y="905.667"/>
      <point x="673" y="897" type="curve" smooth="yes"/>
      <point x="639.667" y="883.667"/>
      <point x="606.833" y="874"/>
      <point x="574.5" y="868" type="curve" smooth="yes"/>
      <point x="542.167" y="862"/>
      <point x="514" y="859"/>
      <point x="490" y="859" type="curve"/>
      <point x="502" y="833"/>
      <point x="521.833" y="815.167"/>
      <point x="549.5" y="805.5" type="curve" smooth="yes"/>
      <point x="577.167" y="795.833"/>
      <point x="585" y="785.333"/>
      <point x="573" y="774" type="curve" smooth="yes"/>
      <point x="566.333" y="768"/>
      <point x="545.167" y="776.167"/>
      <point x="509.5" y="798.5" type="curve" smooth="yes"/>
      <point x="473.833" y="820.833"/>
      <point x="449.333" y="843"/>
      <point x="436" y="865" type="curve"/>
      <point x="436" y="879"/>
      <point x="442.167" y="884.833"/>
      <point x="454.5" y="882.5" type="curve" smooth="yes"/>
      <point x="466.833" y="880.167"/>
      <point x="480.333" y="878.667"/>
      <point x="495" y="878" type="curve" smooth="yes"/>
      <point x="509.667" y="877.333"/>
      <point x="524.5" y="878"/>
      <point x="539.5" y="880" type="curve" smooth="yes"/>
      <point x="554.5" y="882"/>
      <point x="574.667" y="889"/>
      <point x="600" y="901" type="curve" smooth="yes"/>
      <point x="612.667" y="907"/>
      <point x="624.333" y="919.833"/>
      <point x="635" y="939.5" type="curve" smooth="yes"/>
      <point x="645.667" y="959.167"/>
      <point x="655.5" y="981.167"/>
      <point x="664.5" y="1005.5" type="curve" smooth="yes"/>
      <point x="673.5" y="1029.83"/>
      <point x="681" y="1054"/>
      <point x="687" y="1078" type="curve" smooth="yes"/>
      <point x="693" y="1102"/>
      <point x="701" y="1136.33"/>
      <point x="711" y="1181" type="curve" smooth="yes"/>
      <point x="721" y="1225.67"/>
      <point x="729.667" y="1255.67"/>
      <point x="737" y="1271" type="curve" smooth="yes"/>
      <point x="744.333" y="1286.33"/>
      <point x="754.667" y="1298.83"/>
      <point x="768" y="1308.5" type="curve" smooth="yes"/>
      <point x="781.333" y="1318.17"/>
      <point x="794" y="1324.33"/>
      <point x="806" y="1327" type="curve" smooth="yes"/>
      <point x="818" y="1329.67"/>
      <point x="831.333" y="1331.67"/>
      <point x="846" y="1333" type="curve" smooth="yes"/>
      <point x="860.667" y="1334.33"/>
      <point x="877.667" y="1336"/>
    </contour>
  </outline>
</glyph>
<glyph name="oligonKentimaDoubleYpsiliLeft" format="2">
  <advance width="1517"/>
  <unicode hex="E00C"/>




















  <outline>
    <contour>
      <point x="657" y="697" type="curve" smooth="yes"/>
      <point x="677" y="697"/>
      <point x="697.833" y="696.667"/>
      <point x="719.5" y="696" type="curve" smooth="yes"/>
      <point x="741.167" y="695.333"/>
      <point x="761" y="693.333"/>
      <point x="779" y="690" type="curve"/>
      <point x="791.667" y="690"/>
      <point x="804.833" y="668.667"/>
      <point x="818.5" y="626" type="curve" smooth="yes"/>
      <point x="832.167" y="583.333"/>
      <point x="848.667" y="541.667"/>
      <point x="868" y="501" type="curve" smooth="yes"/>
      <point x="874" y="487"/>
      <point x="880.333" y="479"/>
      <point x="887" y="477" type="curve" smooth="yes"/>
      <point x="892.333" y="475"/>
      <point x="896.333" y="471.5"/>
      <point x="899" y="466.5" type="curve" smooth="yes"/>
      <point x="901.667" y="461.5"/>
      <point x="899" y="457"/>
      <point x="891" y="453" type="curve"/>
      <point x="871" y="449"/>
      <point x="850.5" y="447.333"/>
      <point x="829.5" y="448" type="curve" smooth="yes"/>
      <point x="808.5" y="448.667"/>
      <point x="788.667" y="450.333"/>
      <point x="770" y="453" type="curve"/>
      <point x="752.667" y="461"/>
      <point x="739" y="480.167"/>
      <point x="729" y="510.5" type="curve" smooth="yes"/>
      <point x="719" y="540.833"/>
      <point x="703.667" y="585"/>
      <point x="683" y="643" type="curve" smooth="yes"/>
      <point x="681" y="646.333"/>
      <point x="677.333" y="651.5"/>
      <point x="672" y="658.5" type="curve" smooth="yes"/>
      <point x="666.667" y="665.5"/>
      <point x="660.333" y="669.667"/>
      <point x="653" y="671" type="curve" smooth="yes"/>
      <point x="643.667" y="672.333"/>
      <point x="638.5" y="676.833"/>
      <point x="637.5" y="684.5" type="curve" smooth="yes"/>
      <point x="636.5" y="692.167"/>
      <point x="643" y="696.333"/>
    </contour>
    <contour>
      <point x="85" y="384" type="curve" smooth="yes"/>
      <point x="88.3333" y="389.333"/>
      <point x="92.1667" y="392.167"/>
      <point x="96.5" y="392.5" type="curve" smooth="yes"/>
      <point x="100.833" y="392.833"/>
      <point x="105.333" y="391.667"/>
      <point x="110" y="389" type="curve" smooth="yes"/>
      <point x="114.667" y="386.333"/>
      <point x="120.667" y="383.167"/>
      <point x="128" y="379.5" type="curve" smooth="yes"/>
      <point x="135.333" y="375.833"/>
      <point x="144.667" y="372.833"/>
      <point x="156" y="370.5" type="curve" smooth="yes"/>
      <point x="167.333" y="368.167"/>
      <point x="183.333" y="367"/>
      <point x="204" y="367" type="curve" smooth="yes"/>
      <point x="1228" y="367" type="line" smooth="yes"/>
      <point x="1246.67" y="367"/>
      <point x="1263.67" y="365.5"/>
      <point x="1279" y="362.5" type="curve" smooth="yes"/>
      <point x="1294.33" y="359.5"/>
      <point x="1308.33" y="354.667"/>
      <point x="1321" y="348" type="curve" smooth="yes"/>
      <point x="1333.67" y="341.333"/>
      <point x="1343.5" y="335.333"/>
      <point x="1350.5" y="330" type="curve" smooth="yes"/>
      <point x="1357.5" y="324.667"/>
      <point x="1367" y="315.5"/>
      <point x="1379" y="302.5" type="curve" smooth="yes"/>
      <point x="1391" y="289.5"/>
      <point x="1401.5" y="277"/>
      <point x="1410.5" y="265" type="curve" smooth="yes"/>
      <point x="1419.5" y="253"/>
      <point x="1421.33" y="241.333"/>
      <point x="1416" y="230" type="curve"/>
      <point x="1410.67" y="222"/>
      <point x="1404.5" y="220.333"/>
      <point x="1397.5" y="225" type="curve" smooth="yes"/>
      <point x="1390.5" y="229.667"/>
      <point x="1382.33" y="233.667"/>
      <point x="1373" y="237" type="curve" smooth="yes"/>
      <point x="1363.67" y="240.333"/>
      <point x="1353.5" y="242.667"/>
      <point x="1342.5" y="244" type="curve" smooth="yes"/>
      <point x="1331.5" y="245.333"/>
      <point x="1314.33" y="246"/>
      <point x="1291" y="246" type="curve" smooth="yes"/>
      <point x="282" y="246" type="line" smooth="yes"/>
      <point x="266.667" y="246"/>
      <point x="252.667" y="247"/>
      <point x="240" y="249" type="curve" smooth="yes"/>
      <point x="227.333" y="251"/>
      <point x="217.5" y="253.167"/>
      <point x="210.5" y="255.5" type="curve" smooth="yes"/>
      <point x="203.5" y="257.833"/>
      <point x="196" y="261"/>
      <point x="188" y="265" type="curve" smooth="yes"/>
      <point x="180" y="269"/>
      <point x="171.5" y="273.833"/>
      <point x="162.5" y="279.5" type="curve" smooth="yes"/>
      <point x="153.5" y="285.167"/>
      <point x="144" y="293.167"/>
      <point x="134" y="303.5" type="curve" smooth="yes"/>
      <point x="124" y="313.833"/>
      <point x="113.833" y="325.833"/>
      <point x="103.5" y="339.5" type="curve" smooth="yes"/>
      <point x="93.1667" y="353.167"/>
      <point x="86.6667" y="362.667"/>
      <point x="84" y="368" type="curve" smooth="yes"/>
      <point x="81.3333" y="373.333"/>
      <point x="81.6667" y="378.667"/>
    </contour>
    <contour>
      <point x="558" y="1163" type="curve"/>
      <point x="568.667" y="1161"/>
      <point x="573.333" y="1155.5"/>
      <point x="572" y="1146.5" type="curve" smooth="yes"/>
      <point x="570.667" y="1137.5"/>
      <point x="564" y="1132.67"/>
      <point x="552" y="1132" type="curve"/>
      <point x="538" y="1127.33"/>
      <point x="526.667" y="1109.67"/>
      <point x="518" y="1079" type="curve" smooth="yes"/>
      <point x="509.333" y="1048.33"/>
      <point x="500.333" y="1016"/>
      <point x="491" y="982" type="curve" smooth="yes"/>
      <point x="468.333" y="902.667"/>
      <point x="447.667" y="838.333"/>
      <point x="429" y="789" type="curve" smooth="yes"/>
      <point x="410.333" y="739.667"/>
      <point x="392.667" y="705.167"/>
      <point x="376" y="685.5" type="curve" smooth="yes"/>
      <point x="359.333" y="665.833"/>
      <point x="339" y="650.667"/>
      <point x="315" y="640" type="curve" smooth="yes"/>
      <point x="279" y="624.667"/>
      <point x="243.5" y="613.333"/>
      <point x="208.5" y="606" type="curve" smooth="yes"/>
      <point x="173.5" y="598.667"/>
      <point x="143.333" y="595"/>
      <point x="118" y="595" type="curve"/>
      <point x="130.667" y="565"/>
      <point x="152" y="544"/>
      <point x="182" y="532" type="curve" smooth="yes"/>
      <point x="212" y="520"/>
      <point x="220.667" y="507.333"/>
      <point x="208" y="494" type="curve" smooth="yes"/>
      <point x="200.667" y="486.667"/>
      <point x="177.5" y="496.333"/>
      <point x="138.5" y="523" type="curve" smooth="yes"/>
      <point x="99.5" y="549.667"/>
      <point x="73" y="576"/>
      <point x="59" y="602" type="curve"/>
      <point x="59" y="618.667"/>
      <point x="65.6667" y="625.667"/>
      <point x="79" y="623" type="curve" smooth="yes"/>
      <point x="92.3333" y="620.333"/>
      <point x="107" y="618.333"/>
      <point x="123" y="617" type="curve" smooth="yes"/>
      <point x="138.333" y="616.333"/>
      <point x="154.167" y="617.333"/>
      <point x="170.5" y="620" type="curve" smooth="yes"/>
      <point x="186.833" y="622.667"/>
      <point x="208.667" y="631"/>
      <point x="236" y="645" type="curve" smooth="yes"/>
      <point x="249.333" y="651.667"/>
      <point x="262" y="666.833"/>
      <point x="274" y="690.5" type="curve" smooth="yes"/>
      <point x="286" y="714.167"/>
      <point x="296.667" y="740.333"/>
      <point x="306" y="769" type="curve" smooth="yes"/>
      <point x="315.333" y="797.667"/>
      <point x="323.333" y="826.167"/>
      <point x="330" y="854.5" type="curve" smooth="yes"/>
      <point x="336.667" y="882.833"/>
      <point x="345.5" y="923.667"/>
      <point x="356.5" y="977" type="curve" smooth="yes"/>
      <point x="367.5" y="1030.33"/>
      <point x="376.833" y="1066"/>
      <point x="384.5" y="1084" type="curve" smooth="yes"/>
      <point x="392.167" y="1102"/>
      <point x="403.167" y="1116.67"/>
      <point x="417.5" y="1128" type="curve" smooth="yes"/>
      <point x="431.833" y="1139.33"/>
      <point x="445.667" y="1146.67"/>
      <point x="459" y="1150" type="curve" smooth="yes"/>
      <point x="472.333" y="1153.33"/>
      <point x="486.833" y="1155.67"/>
      <point x="502.5" y="1157" type="curve" smooth="yes"/>
      <point x="518.167" y="1158.33"/>
      <point x="536.667" y="1160.33"/>
    </contour>
    <contour>
      <point x="1063" y="1338" type="curve"/>
      <point x="1073" y="1336.67"/>
      <point x="1077.5" y="1332.17"/>
      <point x="1076.5" y="1324.5" type="curve" smooth="yes"/>
      <point x="1075.5" y="1316.83"/>
      <point x="1069.33" y="1312.33"/>
      <point x="1058" y="1311" type="curve"/>
      <point x="1045.33" y="1307"/>
      <point x="1035" y="1292.17"/>
      <point x="1027" y="1266.5" type="curve" smooth="yes"/>
      <point x="1019" y="1240.83"/>
      <point x="1010.33" y="1213.67"/>
      <point x="1001" y="1185" type="curve" smooth="yes"/>
      <point x="980.333" y="1117.67"/>
      <point x="961.333" y="1063.33"/>
      <point x="944" y="1022" type="curve" smooth="yes"/>
      <point x="926.667" y="980.667"/>
      <point x="910.333" y="951.667"/>
      <point x="895" y="935" type="curve" smooth="yes"/>
      <point x="879.667" y="918.333"/>
      <point x="861" y="905.667"/>
      <point x="839" y="897" type="curve" smooth="yes"/>
      <point x="805.667" y="883.667"/>
      <point x="772.833" y="874"/>
      <point x="740.5" y="868" type="curve" smooth="yes"/>
      <point x="708.167" y="862"/>
      <point x="680" y="859"/>
      <point x="656" y="859" type="curve"/>
      <point x="668" y="833"/>
      <point x="687.833" y="815.167"/>
      <point x="715.5" y="805.5" type="curve" smooth="yes"/>
      <point x="743.167" y="795.833"/>
      <point x="751" y="785.333"/>
      <point x="739" y="774" type="curve" smooth="yes"/>
      <point x="732.333" y="768"/>
      <point x="711.167" y="776.167"/>
      <point x="675.5" y="798.5" type="curve" smooth="yes"/>
      <point x="639.833" y="820.833"/>
      <point x="615.333" y="843"/>
      <point x="602" y="865" type="curve"/>
      <point x="602" y="879"/>
      <point x="608.167" y="884.833"/>
      <point x="620.5" y="882.5" type="curve" smooth="yes"/>
      <point x="632.833" y="880.167"/>
      <point x="646.333" y="878.667"/>
      <point x="661" y="878" type="curve" smooth="yes"/>
      <point x="675.667" y="877.333"/>
      <point x="690.5" y="878"/>
      <point x="705.5" y="880" type="curve" smooth="yes"/>
      <point x="720.5" y="882"/>
      <point x="740.667" y="889"/>
      <point x="766" y="901" type="curve" smooth="yes"/>
      <point x="778.667" y="907"/>
      <point x="790.333" y="919.833"/>
      <point x="801" y="939.5" type="curve" smooth="yes"/>
      <point x="811.667" y="959.167"/>
      <point x="821.5" y="981.167"/>
      <point x="830.5" y="1005.5" type="curve" smooth="yes"/>
      <point x="839.5" y="1029.83"/>
      <point x="847" y="1054"/>
      <point x="853" y="1078" type="curve" smooth="yes"/>
      <point x="859" y="1102"/>
      <point x="867" y="1136.33"/>
      <point x="877" y="1181" type="curve" smooth="yes"/>
      <point x="887" y="1225.67"/>
      <point x="895.667" y="1255.67"/>
      <point x="903" y="1271" type="curve" smooth="yes"/>
      <point x="910.333" y="1286.33"/>
      <point x="920.667" y="1298.83"/>
      <point x="934" y="1308.5" type="curve" smooth="yes"/>
      <point x="947.333" y="1318.17"/>
      <point x="960" y="1324.33"/>
      <point x="972" y="1327" type="curve" smooth="yes"/>
      <point x="984" y="1329.67"/>
      <point x="997.333" y="1331.67"/>
      <point x="1012" y="1333" type="curve" smooth="yes"/>
      <point x="1026.67" y="1334.33"/>
      <point x="1043.67" y="1336"/>
    </contour>
  </outline>
</glyph>
<glyph name="oligonTripleYpsili" format="2">
  <advance width="1580"/>
  <unicode hex="E00D"/>
  <anchor x="667" y="125" name="gorgonBottom"/>
  <anchor x="930" y="1281" name="yfenAbove"/>
  <anchor x="929" y="-40" name="yfenBelow"/>
  <anchor x="783" y="1281" name="koronis"/>
  <anchor x="802" y="-62" name="endofonon"/>
  <anchor x="172" y="1213" name="measureNumber"/>
  <anchor x="792" y="1283" name="isonIndicator"/>
  <anchor x="1692" y="-19" name="heteronConnecting"/>
  <anchor x="1087" y="227" name="heteron"/>
  <anchor x="1031" y="133" name="omalon"/>
  <anchor x="1471" y="133" name="omalonConnecting"/>
  <anchor x="820" y="165" name="antikenoma"/>
  <anchor x="803" y="30" name="apli"/>
  <anchor x="116" y="820" name="noteTop"/>
  <anchor x="863" y="1239" name="fthoraTop"/>
  <anchor x="789" y="209" name="fthoraBottom"/>
  <anchor x="400" y="133" name="diesis"/>
  <anchor x="1368" y="619" name="yfesis"/>
  <anchor x="785" y="160" name="klasmaBottom"/>
  <anchor x="840" y="113" name="psifiston"/>
  <outline>
    <contour>
      <point x="85" y="384" type="curve" smooth="yes"/>
      <point x="88.3333" y="389.333"/>
      <point x="92.1667" y="392.167"/>
      <point x="96.5" y="392.5" type="curve" smooth="yes"/>
      <point x="100.833" y="392.833"/>
      <point x="105.333" y="391.667"/>
      <point x="110" y="389" type="curve" smooth="yes"/>
      <point x="114.667" y="386.333"/>
      <point x="120.667" y="383.167"/>
      <point x="128" y="379.5" type="curve" smooth="yes"/>
      <point x="135.333" y="375.833"/>
      <point x="144.667" y="372.833"/>
      <point x="156" y="370.5" type="curve" smooth="yes"/>
      <point x="167.333" y="368.167"/>
      <point x="183.333" y="367"/>
      <point x="204" y="367" type="curve" smooth="yes"/>
      <point x="1228" y="367" type="line" smooth="yes"/>
      <point x="1246.67" y="367"/>
      <point x="1263.67" y="365.5"/>
      <point x="1279" y="362.5" type="curve" smooth="yes"/>
      <point x="1294.33" y="359.5"/>
      <point x="1308.33" y="354.667"/>
      <point x="1321" y="348" type="curve" smooth="yes"/>
      <point x="1333.67" y="341.333"/>
      <point x="1343.5" y="335.333"/>
      <point x="1350.5" y="330" type="curve" smooth="yes"/>
      <point x="1357.5" y="324.667"/>
      <point x="1367" y="315.5"/>
      <point x="1379" y="302.5" type="curve" smooth="yes"/>
      <point x="1391" y="289.5"/>
      <point x="1401.5" y="277"/>
      <point x="1410.5" y="265" type="curve" smooth="yes"/>
      <point x="1419.5" y="253"/>
      <point x="1421.33" y="241.333"/>
      <point x="1416" y="230" type="curve"/>
      <point x="1410.67" y="222"/>
      <point x="1404.5" y="220.333"/>
      <point x="1397.5" y="225" type="curve" smooth="yes"/>
      <point x="1390.5" y="229.667"/>
      <point x="1382.33" y="233.667"/>
      <point x="1373" y="237" type="curve" smooth="yes"/>
      <point x="1363.67" y="240.333"/>
      <point x="1353.5" y="242.667"/>
      <point x="1342.5" y="244" type="curve" smooth="yes"/>
      <point x="1331.5" y="245.333"/>
      <point x="1314.33" y="246"/>
      <point x="1291" y="246" type="curve" smooth="yes"/>
      <point x="282" y="246" type="line" smooth="yes"/>
      <point x="266.667" y="246"/>
      <point x="252.667" y="247"/>
      <point x="240" y="249" type="curve" smooth="yes"/>
      <point x="227.333" y="251"/>
      <point x="217.5" y="253.167"/>
      <point x="210.5" y="255.5" type="curve" smooth="yes"/>
      <point x="203.5" y="257.833"/>
      <point x="196" y="261"/>
      <point x="188" y="265" type="curve" smooth="yes"/>
      <point x="180" y="269"/>
      <point x="171.5" y="273.833"/>
      <point x="162.5" y="279.5" type="curve" smooth="yes"/>
      <point x="153.5" y="285.167"/>
      <point x="144" y="293.167"/>
      <point x="134" y="303.5" type="curve" smooth="yes"/>
      <point x="124" y="313.833"/>
      <point x="113.833" y="325.833"/>
      <point x="103.5" y="339.5" type="curve" smooth="yes"/>
      <point x="93.1667" y="353.167"/>
      <point x="86.6667" y="362.667"/>
      <point x="84" y="368" type="curve" smooth="yes"/>
      <point x="81.3333" y="373.333"/>
      <point x="81.6667" y="378.667"/>
    </contour>
    <contour>
      <point x="1486" y="1163" type="curve"/>
      <point x="1496.67" y="1161"/>
      <point x="1501.33" y="1155.5"/>
      <point x="1500" y="1146.5" type="curve" smooth="yes"/>
      <point x="1498.67" y="1137.5"/>
      <point x="1491.67" y="1132.67"/>
      <point x="1479" y="1132" type="curve"/>
      <point x="1465" y="1127.33"/>
      <point x="1453.83" y="1109.67"/>
      <point x="1445.5" y="1079" type="curve" smooth="yes"/>
      <point x="1437.17" y="1048.33"/>
      <point x="1428" y="1016"/>
      <point x="1418" y="982" type="curve" smooth="yes"/>
      <point x="1395.33" y="902.667"/>
      <point x="1374.83" y="838.333"/>
      <point x="1356.5" y="789" type="curve" smooth="yes"/>
      <point x="1338.17" y="739.667"/>
      <point x="1320.5" y="705.167"/>
      <point x="1303.5" y="685.5" type="curve" smooth="yes"/>
      <point x="1286.5" y="665.833"/>
      <point x="1266.33" y="650.667"/>
      <point x="1243" y="640" type="curve" smooth="yes"/>
      <point x="1207" y="624.667"/>
      <point x="1171.5" y="613.333"/>
      <point x="1136.5" y="606" type="curve" smooth="yes"/>
      <point x="1101.5" y="598.667"/>
      <point x="1071" y="595"/>
      <point x="1045" y="595" type="curve"/>
      <point x="1057.67" y="565"/>
      <point x="1079" y="544"/>
      <point x="1109" y="532" type="curve" smooth="yes"/>
      <point x="1139" y="520"/>
      <point x="1147.67" y="507.333"/>
      <point x="1135" y="494" type="curve" smooth="yes"/>
      <point x="1127.67" y="486.667"/>
      <point x="1104.67" y="496.333"/>
      <point x="1066" y="523" type="curve" smooth="yes"/>
      <point x="1027.33" y="549.667"/>
      <point x="1000.67" y="576"/>
      <point x="986" y="602" type="curve"/>
      <point x="986" y="618.667"/>
      <point x="992.833" y="625.667"/>
      <point x="1006.5" y="623" type="curve" smooth="yes"/>
      <point x="1020.17" y="620.333"/>
      <point x="1034.67" y="618.333"/>
      <point x="1050" y="617" type="curve" smooth="yes"/>
      <point x="1065.33" y="616.333"/>
      <point x="1081.33" y="617.333"/>
      <point x="1098" y="620" type="curve" smooth="yes"/>
      <point x="1114.67" y="622.667"/>
      <point x="1136.67" y="631"/>
      <point x="1164" y="645" type="curve" smooth="yes"/>
      <point x="1177.33" y="651.667"/>
      <point x="1189.83" y="666.833"/>
      <point x="1201.5" y="690.5" type="curve" smooth="yes"/>
      <point x="1213.17" y="714.167"/>
      <point x="1223.83" y="740.333"/>
      <point x="1233.5" y="769" type="curve" smooth="yes"/>
      <point x="1243.17" y="797.667"/>
      <point x="1251.33" y="826.167"/>
      <point x="1258" y="854.5" type="curve" smooth="yes"/>
      <point x="1264.67" y="882.833"/>
      <point x="1273.5" y="923.667"/>
      <point x="1284.5" y="977" type="curve" smooth="yes"/>
      <point x="1295.5" y="1030.33"/>
      <point x="1304.83" y="1066"/>
      <point x="1312.5" y="1084" type="curve" smooth="yes"/>
      <point x="1320.17" y="1102"/>
      <point x="1331.17" y="1116.67"/>
      <point x="1345.5" y="1128" type="curve" smooth="yes"/>
      <point x="1359.83" y="1139.33"/>
      <point x="1373.5" y="1146.67"/>
      <point x="1386.5" y="1150" type="curve" smooth="yes"/>
      <point x="1399.5" y="1153.33"/>
      <point x="1414" y="1155.67"/>
      <point x="1430" y="1157" type="curve" smooth="yes"/>
      <point x="1446" y="1158.33"/>
      <point x="1464.67" y="1160.33"/>
    </contour>
    <contour>
      <point x="1022" y="1163" type="curve"/>
      <point x="1032.67" y="1161"/>
      <point x="1037.33" y="1155.5"/>
      <point x="1036" y="1146.5" type="curve" smooth="yes"/>
      <point x="1034.67" y="1137.5"/>
      <point x="1028" y="1132.67"/>
      <point x="1016" y="1132" type="curve"/>
      <point x="1002" y="1127.33"/>
      <point x="990.667" y="1109.67"/>
      <point x="982" y="1079" type="curve" smooth="yes"/>
      <point x="973.333" y="1048.33"/>
      <point x="964.333" y="1016"/>
      <point x="955" y="982" type="curve" smooth="yes"/>
      <point x="932.333" y="902.667"/>
      <point x="911.667" y="838.333"/>
      <point x="893" y="789" type="curve" smooth="yes"/>
      <point x="874.333" y="739.667"/>
      <point x="856.5" y="705.167"/>
      <point x="839.5" y="685.5" type="curve" smooth="yes"/>
      <point x="822.5" y="665.833"/>
      <point x="802.333" y="650.667"/>
      <point x="779" y="640" type="curve" smooth="yes"/>
      <point x="743" y="624.667"/>
      <point x="707.5" y="613.333"/>
      <point x="672.5" y="606" type="curve" smooth="yes"/>
      <point x="637.5" y="598.667"/>
      <point x="607.333" y="595"/>
      <point x="582" y="595" type="curve"/>
      <point x="594.667" y="565"/>
      <point x="615.833" y="544"/>
      <point x="645.5" y="532" type="curve" smooth="yes"/>
      <point x="675.167" y="520"/>
      <point x="683.667" y="507.333"/>
      <point x="671" y="494" type="curve" smooth="yes"/>
      <point x="663.667" y="486.667"/>
      <point x="640.667" y="496.333"/>
      <point x="602" y="523" type="curve" smooth="yes"/>
      <point x="563.333" y="549.667"/>
      <point x="536.667" y="576"/>
      <point x="522" y="602" type="curve"/>
      <point x="522" y="618.667"/>
      <point x="528.833" y="625.667"/>
      <point x="542.5" y="623" type="curve" smooth="yes"/>
      <point x="556.167" y="620.333"/>
      <point x="570.667" y="618.333"/>
      <point x="586" y="617" type="curve" smooth="yes"/>
      <point x="601.333" y="616.333"/>
      <point x="617.333" y="617.333"/>
      <point x="634" y="620" type="curve" smooth="yes"/>
      <point x="650.667" y="622.667"/>
      <point x="672.667" y="631"/>
      <point x="700" y="645" type="curve" smooth="yes"/>
      <point x="713.333" y="651.667"/>
      <point x="725.833" y="666.833"/>
      <point x="737.5" y="690.5" type="curve" smooth="yes"/>
      <point x="749.167" y="714.167"/>
      <point x="759.833" y="740.333"/>
      <point x="769.5" y="769" type="curve" smooth="yes"/>
      <point x="779.167" y="797.667"/>
      <point x="787.333" y="826.167"/>
      <point x="794" y="854.5" type="curve" smooth="yes"/>
      <point x="800.667" y="882.833"/>
      <point x="809.5" y="923.667"/>
      <point x="820.5" y="977" type="curve" smooth="yes"/>
      <point x="831.5" y="1030.33"/>
      <point x="840.833" y="1066"/>
      <point x="848.5" y="1084" type="curve" smooth="yes"/>
      <point x="856.167" y="1102"/>
      <point x="867.167" y="1116.67"/>
      <point x="881.5" y="1128" type="curve" smooth="yes"/>
      <point x="895.833" y="1139.33"/>
      <point x="909.5" y="1146.67"/>
      <point x="922.5" y="1150" type="curve" smooth="yes"/>
      <point x="935.5" y="1153.33"/>
      <point x="950" y="1155.67"/>
      <point x="966" y="1157" type="curve" smooth="yes"/>
      <point x="982" y="1158.33"/>
      <point x="1000.67" y="1160.33"/>
    </contour>
    <contour>
      <point x="558" y="1163" type="curve"/>
      <point x="568.667" y="1161"/>
      <point x="573.333" y="1155.5"/>
      <point x="572" y="1146.5" type="curve" smooth="yes"/>
      <point x="570.667" y="1137.5"/>
      <point x="564" y="1132.67"/>
      <point x="552" y="1132" type="curve"/>
      <point x="538" y="1127.33"/>
      <point x="526.667" y="1109.67"/>
      <point x="518" y="1079" type="curve" smooth="yes"/>
      <point x="509.333" y="1048.33"/>
      <point x="500.333" y="1016"/>
      <point x="491" y="982" type="curve" smooth="yes"/>
      <point x="468.333" y="902.667"/>
      <point x="447.667" y="838.333"/>
      <point x="429" y="789" type="curve" smooth="yes"/>
      <point x="410.333" y="739.667"/>
      <point x="392.667" y="705.167"/>
      <point x="376" y="685.5" type="curve" smooth="yes"/>
      <point x="359.333" y="665.833"/>
      <point x="339" y="650.667"/>
      <point x="315" y="640" type="curve" smooth="yes"/>
      <point x="279" y="624.667"/>
      <point x="243.5" y="613.333"/>
      <point x="208.5" y="606" type="curve" smooth="yes"/>
      <point x="173.5" y="598.667"/>
      <point x="143.333" y="595"/>
      <point x="118" y="595" type="curve"/>
      <point x="130.667" y="565"/>
      <point x="152" y="544"/>
      <point x="182" y="532" type="curve" smooth="yes"/>
      <point x="212" y="520"/>
      <point x="220.667" y="507.333"/>
      <point x="208" y="494" type="curve" smooth="yes"/>
      <point x="200.667" y="486.667"/>
      <point x="177.5" y="496.333"/>
      <point x="138.5" y="523" type="curve" smooth="yes"/>
      <point x="99.5" y="549.667"/>
      <point x="73" y="576"/>
      <point x="59" y="602" type="curve"/>
      <point x="59" y="618.667"/>
      <point x="65.6667" y="625.667"/>
      <point x="79" y="623" type="curve" smooth="yes"/>
      <point x="92.3333" y="620.333"/>
      <point x="107" y="618.333"/>
      <point x="123" y="617" type="curve" smooth="yes"/>
      <point x="138.333" y="616.333"/>
      <point x="154.167" y="617.333"/>
      <point x="170.5" y="620" type="curve" smooth="yes"/>
      <point x="186.833" y="622.667"/>
      <point x="208.667" y="631"/>
      <point x="236" y="645" type="curve" smooth="yes"/>
      <point x="249.333" y="651.667"/>
      <point x="262" y="666.833"/>
      <point x="274" y="690.5" type="curve" smooth="yes"/>
      <point x="286" y="714.167"/>
      <point x="296.667" y="740.333"/>
      <point x="306" y="769" type="curve" smooth="yes"/>
      <point x="315.333" y="797.667"/>
      <point x="323.333" y="826.167"/>
      <point x="330" y="854.5" type="curve" smooth="yes"/>
      <point x="336.667" y="882.833"/>
      <point x="345.5" y="923.667"/>
      <point x="356.5" y="977" type="curve" smooth="yes"/>
      <point x="367.5" y="1030.33"/>
      <point x="376.833" y="1066"/>
      <point x="384.5" y="1084" type="curve" smooth="yes"/>
      <point x="392.167" y="1102"/>
      <point x="403.167" y="1116.67"/>
      <point x="417.5" y="1128" type="curve" smooth="yes"/>
      <point x="431.833" y="1139.33"/>
      <point x="445.667" y="1146.67"/>
      <point x="459" y="1150" type="curve" smooth="yes"/>
      <point x="472.333" y="1153.33"/>
      <point x="486.833" y="1155.67"/>
      <point x="502.5" y="1157" type="curve" smooth="yes"/>
      <point x="518.167" y="1158.33"/>
      <point x="536.667" y="1160.33"/>
    </contour>
  </outline>
</glyph>
<glyph name="oligonKentimataTripleYpsili" format="2">
  <advance width="1580"/>
  <unicode hex="E00E"/>




















  <outline>
    <contour>
      <point x="461" y="697" type="curve" smooth="yes"/>
      <point x="481" y="697"/>
      <point x="502" y="696.667"/>
      <point x="524" y="696" type="curve" smooth="yes"/>
      <point x="546" y="695.333"/>
      <point x="565.667" y="693.333"/>
      <point x="583" y="690" type="curve"/>
      <point x="595.667" y="690"/>
      <point x="609.167" y="668.667"/>
      <point x="623.5" y="626" type="curve" smooth="yes"/>
      <point x="637.833" y="583.333"/>
      <point x="654.333" y="541.667"/>
      <point x="673" y="501" type="curve" smooth="yes"/>
      <point x="678.333" y="487"/>
      <point x="684.667" y="479"/>
      <point x="692" y="477" type="curve" smooth="yes"/>
      <point x="696.667" y="475"/>
      <point x="700.5" y="471.5"/>
      <point x="703.5" y="466.5" type="curve" smooth="yes"/>
      <point x="706.5" y="461.5"/>
      <point x="703.667" y="457"/>
      <point x="695" y="453" type="curve"/>
      <point x="675" y="449"/>
      <point x="654.667" y="447.333"/>
      <point x="634" y="448" type="curve" smooth="yes"/>
      <point x="613.333" y="448.667"/>
      <point x="593.667" y="450.333"/>
      <point x="575" y="453" type="curve"/>
      <point x="557.667" y="461"/>
      <point x="544" y="480.167"/>
      <point x="534" y="510.5" type="curve" smooth="yes"/>
      <point x="524" y="540.833"/>
      <point x="508.667" y="585"/>
      <point x="488" y="643" type="curve" smooth="yes"/>
      <point x="486" y="646.333"/>
      <point x="482.333" y="651.5"/>
      <point x="477" y="658.5" type="curve" smooth="yes"/>
      <point x="471.667" y="665.5"/>
      <point x="465.333" y="669.667"/>
      <point x="458" y="671" type="curve" smooth="yes"/>
      <point x="448.667" y="672.333"/>
      <point x="443.333" y="676.833"/>
      <point x="442" y="684.5" type="curve" smooth="yes"/>
      <point x="440.667" y="692.167"/>
      <point x="447" y="696.333"/>
    </contour>
    <contour>
      <point x="731" y="697" type="curve" smooth="yes"/>
      <point x="751" y="697"/>
      <point x="772.167" y="696.667"/>
      <point x="794.5" y="696" type="curve" smooth="yes"/>
      <point x="816.833" y="695.333"/>
      <point x="836.667" y="693.333"/>
      <point x="854" y="690" type="curve"/>
      <point x="866.667" y="690"/>
      <point x="880" y="668.667"/>
      <point x="894" y="626" type="curve" smooth="yes"/>
      <point x="908" y="583.333"/>
      <point x="924.333" y="541.667"/>
      <point x="943" y="501" type="curve" smooth="yes"/>
      <point x="949" y="487"/>
      <point x="955.333" y="479"/>
      <point x="962" y="477" type="curve" smooth="yes"/>
      <point x="967.333" y="475"/>
      <point x="971.5" y="471.5"/>
      <point x="974.5" y="466.5" type="curve" smooth="yes"/>
      <point x="977.5" y="461.5"/>
      <point x="974.667" y="457"/>
      <point x="966" y="453" type="curve"/>
      <point x="945.333" y="449"/>
      <point x="924.667" y="447.333"/>
      <point x="904" y="448" type="curve" smooth="yes"/>
      <point x="883.333" y="448.667"/>
      <point x="863.667" y="450.333"/>
      <point x="845" y="453" type="curve"/>
      <point x="827" y="461"/>
      <point x="813.167" y="480.167"/>
      <point x="803.5" y="510.5" type="curve" smooth="yes"/>
      <point x="793.833" y="540.833"/>
      <point x="778.667" y="585"/>
      <point x="758" y="643" type="curve" smooth="yes"/>
      <point x="756.667" y="646.333"/>
      <point x="753.167" y="651.5"/>
      <point x="747.5" y="658.5" type="curve" smooth="yes"/>
      <point x="741.833" y="665.5"/>
      <point x="735.667" y="669.667"/>
      <point x="729" y="671" type="curve" smooth="yes"/>
      <point x="719.667" y="672.333"/>
      <point x="714.167" y="676.833"/>
      <point x="712.5" y="684.5" type="curve" smooth="yes"/>
      <point x="710.833" y="692.167"/>
      <point x="717" y="696.333"/>
    </contour>
    <contour>
      <point x="85" y="384" type="curve" smooth="yes"/>
      <point x="88.3333" y="389.333"/>
      <point x="92.1667" y="392.167"/>
      <point x="96.5" y="392.5" type="curve" smooth="yes"/>
      <point x="100.833" y="392.833"/>
      <point x="105.333" y="391.667"/>
      <point x="110" y="389" type="curve" smooth="yes"/>
      <point x="114.667" y="386.333"/>
      <point x="120.667" y="383.167"/>
      <point x="128" y="379.5" type="curve" smooth="yes"/>
      <point x="135.333" y="375.833"/>
      <point x="144.667" y="372.833"/>
      <point x="156" y="370.5" type="curve" smooth="yes"/>
      <point x="167.333" y="368.167"/>
      <point x="183.333" y="367"/>
      <point x="204" y="367" type="curve" smooth="yes"/>
      <point x="1228" y="367" type="line" smooth="yes"/>
      <point x="1246.67" y="367"/>
      <point x="1263.67" y="365.5"/>
      <point x="1279" y="362.5" type="curve" smooth="yes"/>
      <point x="1294.33" y="359.5"/>
      <point x="1308.33" y="354.667"/>
      <point x="1321" y="348" type="curve" smooth="yes"/>
      <point x="1333.67" y="341.333"/>
      <point x="1343.5" y="335.333"/>
      <point x="1350.5" y="330" type="curve" smooth="yes"/>
      <point x="1357.5" y="324.667"/>
      <point x="1367" y="315.5"/>
      <point x="1379" y="302.5" type="curve" smooth="yes"/>
      <point x="1391" y="289.5"/>
      <point x="1401.5" y="277"/>
      <point x="1410.5" y="265" type="curve" smooth="yes"/>
      <point x="1419.5" y="253"/>
      <point x="1421.33" y="241.333"/>
      <point x="1416" y="230" type="curve"/>
      <point x="1410.67" y="222"/>
      <point x="1404.5" y="220.333"/>
      <point x="1397.5" y="225" type="curve" smooth="yes"/>
      <point x="1390.5" y="229.667"/>
      <point x="1382.33" y="233.667"/>
      <point x="1373" y="237" type="curve" smooth="yes"/>
      <point x="1363.67" y="240.333"/>
      <point x="1353.5" y="242.667"/>
      <point x="1342.5" y="244" type="curve" smooth="yes"/>
      <point x="1331.5" y="245.333"/>
      <point x="1314.33" y="246"/>
      <point x="1291" y="246" type="curve" smooth="yes"/>
      <point x="282" y="246" type="line" smooth="yes"/>
      <point x="266.667" y="246"/>
      <point x="252.667" y="247"/>
      <point x="240" y="249" type="curve" smooth="yes"/>
      <point x="227.333" y="251"/>
      <point x="217.5" y="253.167"/>
      <point x="210.5" y="255.5" type="curve" smooth="yes"/>
      <point x="203.5" y="257.833"/>
      <point x="196" y="261"/>
      <point x="188" y="265" type="curve" smooth="yes"/>
      <point x="180" y="269"/>
      <point x="171.5" y="273.833"/>
      <point x="162.5" y="279.5" type="curve" smooth="yes"/>
      <point x="153.5" y="285.167"/>
      <point x="144" y="293.167"/>
      <point x="134" y="303.5" type="curve" smooth="yes"/>
      <point x="124" y="313.833"/>
      <point x="113.833" y="325.833"/>
      <point x="103.5" y="339.5" type="curve" smooth="yes"/>
      <point x="93.1667" y="353.167"/>
      <point x="86.6667" y="362.667"/>
      <point x="84" y="368" type="curve" smooth="yes"/>
      <point x="81.3333" y="373.333"/>
      <point x="81.6667" y="378.667"/>
    </contour>
    <contour>
      <point x="1486" y="1163" type="curve"/>
      <point x="1496.67" y="1161"/>
      <point x="1501.33" y="1155.5"/>
      <point x="1500" y="1146.5" type="curve" smooth="yes"/>
      <point x="1498.67" y="1137.5"/>
      <point x="1491.67" y="1132.67"/>
      <point x="1479" y="1132" type="curve"/>
      <point x="1465" y="1127.33"/>
      <point x="1453.83" y="1109.67"/>
      <point x="1445.5" y="1079" type="curve" smooth="yes"/>
      <point x="1437.17" y="1048.33"/>
      <point x="1428" y="1016"/>
      <point x="1418" y="982" type="curve" smooth="yes"/>
      <point x="1395.33" y="902.667"/>
      <point x="1374.83" y="838.333"/>
      <point x="1356.5" y="789" type="curve" smooth="yes"/>
      <point x="1338.17" y="739.667"/>
      <point x="1320.5" y="705.167"/>
      <point x="1303.5" y="685.5" type="curve" smooth="yes"/>
      <point x="1286.5" y="665.833"/>
      <point x="1266.33" y="650.667"/>
      <point x="1243" y="640" type="curve" smooth="yes"/>
      <point x="1207" y="624.667"/>
      <point x="1171.5" y="613.333"/>
      <point x="1136.5" y="606" type="curve" smooth="yes"/>
      <point x="1101.5" y="598.667"/>
      <point x="1071" y="595"/>
      <point x="1045" y="595" type="curve"/>
      <point x="1057.67" y="565"/>
      <point x="1079" y="544"/>
      <point x="1109" y="532" type="curve" smooth="yes"/>
      <point x="1139" y="520"/>
      <point x="1147.67" y="507.333"/>
      <point x="1135" y="494" type="curve" smooth="yes"/>
      <point x="1127.67" y="486.667"/>
      <point x="1104.67" y="496.333"/>
      <point x="1066" y="523" type="curve" smooth="yes"/>
      <point x="1027.33" y="549.667"/>
      <point x="1000.67" y="576"/>
      <point x="986" y="602" type="curve"/>
      <point x="986" y="618.667"/>
      <point x="992.833" y="625.667"/>
      <point x="1006.5" y="623" type="curve" smooth="yes"/>
      <point x="1020.17" y="620.333"/>
      <point x="1034.67" y="618.333"/>
      <point x="1050" y="617" type="curve" smooth="yes"/>
      <point x="1065.33" y="616.333"/>
      <point x="1081.33" y="617.333"/>
      <point x="1098" y="620" type="curve" smooth="yes"/>
      <point x="1114.67" y="622.667"/>
      <point x="1136.67" y="631"/>
      <point x="1164" y="645" type="curve" smooth="yes"/>
      <point x="1177.33" y="651.667"/>
      <point x="1189.83" y="666.833"/>
      <point x="1201.5" y="690.5" type="curve" smooth="yes"/>
      <point x="1213.17" y="714.167"/>
      <point x="1223.83" y="740.333"/>
      <point x="1233.5" y="769" type="curve" smooth="yes"/>
      <point x="1243.17" y="797.667"/>
      <point x="1251.33" y="826.167"/>
      <point x="1258" y="854.5" type="curve" smooth="yes"/>
      <point x="1264.67" y="882.833"/>
      <point x="1273.5" y="923.667"/>
      <point x="1284.5" y="977" type="curve" smooth="yes"/>
      <point x="1295.5" y="1030.33"/>
      <point x="1304.83" y="1066"/>
      <point x="1312.5" y="1084" type="curve" smooth="yes"/>
      <point x="1320.17" y="1102"/>
      <point x="1331.17" y="1116.67"/>
      <point x="1345.5" y="1128" type="curve" smooth="yes"/>
      <point x="1359.83" y="1139.33"/>
      <point x="1373.5" y="1146.67"/>
      <point x="1386.5" y="1150" type="curve" smooth="yes"/>
      <point x="1399.5" y="1153.33"/>
      <point x="1414" y="1155.67"/>
      <point x="1430" y="1157" type="curve" smooth="yes"/>
      <point x="1446" y="1158.33"/>
      <point x="1464.67" y="1160.33"/>
    </contour>
    <contour>
      <point x="558" y="1163" type="curve"/>
      <point x="568.667" y="1161"/>
      <point x="573.333" y="1155.5"/>
      <point x="572" y="1146.5" type="curve" smooth="yes"/>
      <point x="570.667" y="1137.5"/>
      <point x="564" y="1132.67"/>
      <point x="552" y="1132" type="curve"/>
      <point x="538" y="1127.33"/>
      <point x="526.667" y="1109.67"/>
      <point x="518" y="1079" type="curve" smooth="yes"/>
      <point x="509.333" y="1048.33"/>
      <point x="500.333" y="1016"/>
      <point x="491" y="982" type="curve" smooth="yes"/>
      <point x="468.333" y="902.667"/>
      <point x="447.667" y="838.333"/>
      <point x="429" y="789" type="curve" smooth="yes"/>
      <point x="410.333" y="739.667"/>
      <point x="392.667" y="705.167"/>
      <point x="376" y="685.5" type="curve" smooth="yes"/>
      <point x="359.333" y="665.833"/>
      <point x="339" y="650.667"/>
      <point x="315" y="640" type="curve" smooth="yes"/>
      <point x="279" y="624.667"/>
      <point x="243.5" y="613.333"/>
      <point x="208.5" y="606" type="curve" smooth="yes"/>
      <point x="173.5" y="598.667"/>
      <point x="143.333" y="595"/>
      <point x="118" y="595" type="curve"/>
      <point x="130.667" y="565"/>
      <point x="152" y="544"/>
      <point x="182" y="532" type="curve" smooth="yes"/>
      <point x="212" y="520"/>
      <point x="220.667" y="507.333"/>
      <point x="208" y="494" type="curve" smooth="yes"/>
      <point x="200.667" y="486.667"/>
      <point x="177.5" y="496.333"/>
      <point x="138.5" y="523" type="curve" smooth="yes"/>
      <point x="99.5" y="549.667"/>
      <point x="73" y="576"/>
      <point x="59" y="602" type="curve"/>
      <point x="59" y="618.667"/>
      <point x="65.6667" y="625.667"/>
      <point x="79" y="623" type="curve" smooth="yes"/>
      <point x="92.3333" y="620.333"/>
      <point x="107" y="618.333"/>
      <point x="123" y="617" type="curve" smooth="yes"/>
      <point x="138.333" y="616.333"/>
      <point x="154.167" y="617.333"/>
      <point x="170.5" y="620" type="curve" smooth="yes"/>
      <point x="186.833" y="622.667"/>
      <point x="208.667" y="631"/>
      <point x="236" y="645" type="curve" smooth="yes"/>
      <point x="249.333" y="651.667"/>
      <point x="262" y="666.833"/>
      <point x="274" y="690.5" type="curve" smooth="yes"/>
      <point x="286" y="714.167"/>
      <point x="296.667" y="740.333"/>
      <point x="306" y="769" type="curve" smooth="yes"/>
      <point x="315.333" y="797.667"/>
      <point x="323.333" y="826.167"/>
      <point x="330" y="854.5" type="curve" smooth="yes"/>
      <point x="336.667" y="882.833"/>
      <point x="345.5" y="923.667"/>
      <point x="356.5" y="977" type="curve" smooth="yes"/>
      <point x="367.5" y="1030.33"/>
      <point x="376.833" y="1066"/>
      <point x="384.5" y="1084" type="curve" smooth="yes"/>
      <point x="392.167" y="1102"/>
      <point x="403.167" y="1116.67"/>
      <point x="417.5" y="1128" type="curve" smooth="yes"/>
      <point x="431.833" y="1139.33"/>
      <point x="445.667" y="1146.67"/>
      <point x="459" y="1150" type="curve" smooth="yes"/>
      <point x="472.333" y="1153.33"/>
      <point x="486.833" y="1155.67"/>
      <point x="502.5" y="1157" type="curve" smooth="yes"/>
      <point x="518.167" y="1158.33"/>
      <point x="536.667" y="1160.33"/>
    </contour>
    <contour>
      <point x="1000" y="1338" type="curve"/>
      <point x="1010" y="1336.67"/>
      <point x="1014.33" y="1332.17"/>
      <point x="1013" y="1324.5" type="curve" smooth="yes"/>
      <point x="1011.67" y="1316.83"/>
      <point x="1005.33" y="1312.33"/>
      <point x="994" y="1311" type="curve"/>
      <point x="981.333" y="1307"/>
      <point x="971" y="1292.17"/>
      <point x="963" y="1266.5" type="curve" smooth="yes"/>
      <point x="955" y="1240.83"/>
      <point x="946.667" y="1213.67"/>
      <point x="938" y="1185" type="curve" smooth="yes"/>
      <point x="917.333" y="1117.67"/>
      <point x="898.167" y="1063.33"/>
      <point x="880.5" y="1022" type="curve" smooth="yes"/>
      <point x="862.833" y="980.667"/>
      <point x="846.333" y="951.667"/>
      <point x="831" y="935" type="curve" smooth="yes"/>
      <point x="815.667" y="918.333"/>
      <point x="797.333" y="905.667"/>
      <point x="776" y="897" type="curve" smooth="yes"/>
      <point x="742.667" y="883.667"/>
      <point x="709.667" y="874"/>
      <point x="677" y="868" type="curve" smooth="yes"/>
      <point x="644.333" y="862"/>
      <point x="616.333" y="859"/>
      <point x="593" y="859" type="curve"/>
      <point x="605" y="833"/>
      <point x="624.667" y="815.167"/>
      <point x="652" y="805.5" type="curve" smooth="yes"/>
      <point x="679.333" y="795.833"/>
      <point x="687.333" y="785.333"/>
      <point x="676" y="774" type="curve" smooth="yes"/>
      <point x="669.333" y="768"/>
      <point x="648" y="776.167"/>
      <point x="612" y="798.5" type="curve" smooth="yes"/>
      <point x="576" y="820.833"/>
      <point x="551.333" y="843"/>
      <point x="538" y="865" type="curve"/>
      <point x="538" y="879"/>
      <point x="544.333" y="884.833"/>
      <point x="557" y="882.5" type="curve" smooth="yes"/>
      <point x="569.667" y="880.167"/>
      <point x="583" y="878.667"/>
      <point x="597" y="878" type="curve" smooth="yes"/>
      <point x="611.667" y="877.333"/>
      <point x="626.5" y="878"/>
      <point x="641.5" y="880" type="curve" smooth="yes"/>
      <point x="656.5" y="882"/>
      <point x="676.667" y="889"/>
      <point x="702" y="901" type="curve" smooth="yes"/>
      <point x="714.667" y="907"/>
      <point x="726.333" y="919.833"/>
      <point x="737" y="939.5" type="curve" smooth="yes"/>
      <point x="747.667" y="959.167"/>
      <point x="757.5" y="981.167"/>
      <point x="766.5" y="1005.5" type="curve" smooth="yes"/>
      <point x="775.5" y="1029.83"/>
      <point x="783.167" y="1054"/>
      <point x="789.5" y="1078" type="curve" smooth="yes"/>
      <point x="795.833" y="1102"/>
      <point x="804" y="1136.33"/>
      <point x="814" y="1181" type="curve" smooth="yes"/>
      <point x="824" y="1225.67"/>
      <point x="832.667" y="1255.67"/>
      <point x="840" y="1271" type="curve" smooth="yes"/>
      <point x="847.333" y="1286.33"/>
      <point x="857.5" y="1298.83"/>
      <point x="870.5" y="1308.5" type="curve" smooth="yes"/>
      <point x="883.5" y="1318.17"/>
      <point x="896" y="1324.33"/>
      <point x="908" y="1327" type="curve" smooth="yes"/>
      <point x="920" y="1329.67"/>
      <point x="933.5" y="1331.67"/>
      <point x="948.5" y="1333" type="curve" smooth="yes"/>
      <point x="963.5" y="1334.33"/>
      <point x="980.667" y="1336"/>
    </contour>
  </outline>
</glyph>
<glyph name="oligonKentimaTripleYpsili" format="2">
  <advance width="1580"/>
  <unicode hex="E00F"/>
  <anchor x="667" y="125" name="gorgonBottom"/>
  <anchor x="930" y="1461" name="yfenAbove"/>
  <anchor x="929" y="-40" name="yfenBelow"/>
  <anchor x="783" y="1461" name="koronis"/>
  <anchor x="802" y="-62" name="endofonon"/>
  <anchor x="172" y="1213" name="measureNumber"/>
  <anchor x="792" y="1463" name="isonIndicator"/>
  <anchor x="1692" y="-19" name="heteronConnecting"/>
  <anchor x="1087" y="227" name="heteron"/>
  <anchor x="1031" y="133" name="omalon"/>
  <anchor x="1471" y="133" name="omalonConnecting"/>
  <anchor x="820" y="165" name="antikenoma"/>
  <anchor x="803" y="30" name="apli"/>
  <anchor x="116" y="820" name="noteTop"/>
  <anchor x="1340" y="1293" name="fthoraTop"/>
  <anchor x="789" y="209" name="fthoraBottom"/>
  <anchor x="400" y="133" name="diesis"/>
  <anchor x="1378" y="619" name="yfesis"/>
  <anchor x="785" y="160" name="klasmaBottom"/>
  <anchor x="840" y="113" name="psifiston"/>
  <outline>
    <contour>
      <point x="657" y="697" type="curve" smooth="yes"/>
      <point x="677" y="697"/>
      <point x="697.833" y="696.667"/>
      <point x="719.5" y="696" type="curve" smooth="yes"/>
      <point x="741.167" y="695.333"/>
      <point x="761" y="693.333"/>
      <point x="779" y="690" type="curve"/>
      <point x="791.667" y="690"/>
      <point x="804.833" y="668.667"/>
      <point x="818.5" y="626" type="curve" smooth="yes"/>
      <point x="832.167" y="583.333"/>
      <point x="848.667" y="541.667"/>
      <point x="868" y="501" type="curve" smooth="yes"/>
      <point x="874" y="487"/>
      <point x="880.333" y="479"/>
      <point x="887" y="477" type="curve" smooth="yes"/>
      <point x="892.333" y="475"/>
      <point x="896.333" y="471.5"/>
      <point x="899" y="466.5" type="curve" smooth="yes"/>
      <point x="901.667" y="461.5"/>
      <point x="899" y="457"/>
      <point x="891" y="453" type="curve"/>
      <point x="871" y="449"/>
      <point x="850.5" y="447.333"/>
      <point x="829.5" y="448" type="curve" smooth="yes"/>
      <point x="808.5" y="448.667"/>
      <point x="788.667" y="450.333"/>
      <point x="770" y="453" type="curve"/>
      <point x="752.667" y="461"/>
      <point x="739" y="480.167"/>
      <point x="729" y="510.5" type="curve" smooth="yes"/>
      <point x="719" y="540.833"/>
      <point x="703.667" y="585"/>
      <point x="683" y="643" type="curve" smooth="yes"/>
      <point x="681" y="646.333"/>
      <point x="677.333" y="651.5"/>
      <point x="672" y="658.5" type="curve" smooth="yes"/>
      <point x="666.667" y="665.5"/>
      <point x="660.333" y="669.667"/>
      <point x="653" y="671" type="curve" smooth="yes"/>
      <point x="643.667" y="672.333"/>
      <point x="638.5" y="676.833"/>
      <point x="637.5" y="684.5" type="curve" smooth="yes"/>
      <point x="636.5" y="692.167"/>
      <point x="643" y="696.333"/>
    </contour>
    <contour>
      <point x="85" y="384" type="curve" smooth="yes"/>
      <point x="88.3333" y="389.333"/>
      <point x="92.1667" y="392.167"/>
      <point x="96.5" y="392.5" type="curve" smooth="yes"/>
      <point x="100.833" y="392.833"/>
      <point x="105.333" y="391.667"/>
      <point x="110" y="389" type="curve" smooth="yes"/>
      <point x="114.667" y="386.333"/>
      <point x="120.667" y="383.167"/>
      <point x="128" y="379.5" type="curve" smooth="yes"/>
      <point x="135.333" y="375.833"/>
      <point x="144.667" y="372.833"/>
      <point x="156" y="370.5" type="curve" smooth="yes"/>
      <point x="167.333" y="368.167"/>
      <point x="183.333" y="367"/>
      <point x="204" y="367" type="curve" smooth="yes"/>
      <point x="1228" y="367" type="line" smooth="yes"/>
      <point x="1246.67" y="367"/>
      <point x="1263.67" y="365.5"/>
      <point x="1279" y="362.5" type="curve" smooth="yes"/>
      <point x="1294.33" y="359.5"/>
      <point x="1308.33" y="354.667"/>
      <point x="1321" y="348" type="curve" smooth="yes"/>
      <point x="1333.67" y="341.333"/>
      <point x="1343.5" y="335.333"/>
      <point x="1350.5" y="330" type="curve" smooth="yes"/>
      <point x="1357.5" y="324.667"/>
      <point x="1367" y="315.5"/>
      <point x="1379" y="302.5" type="curve" smooth="yes"/>
      <point x="1391" y="289.5"/>
      <point x="1401.5" y="277"/>
      <point x="1410.5" y="265" type="curve" smooth="yes"/>
      <point x="1419.5" y="253"/>
      <point x="1421.33" y="241.333"/>
      <point x="1416" y="230" type="curve"/>
      <point x="1410.67" y="222"/>
      <point x="1404.5" y="220.333"/>
      <point x="1397.5" y="225" type="curve" smooth="yes"/>
      <point x="1390.5" y="229.667"/>
      <point x="1382.33" y="233.667"/>
      <point x="1373" y="237" type="curve" smooth="yes"/>
      <point x="1363.67" y="240.333"/>
      <point x="1353.5" y="242.667"/>
      <point x="1342.5" y="244" type="curve" smooth="yes"/>
      <point x="1331.5" y="245.333"/>
      <point x="1314.33" y="246"/>
      <point x="1291" y="246" type="curve" smooth="yes"/>
      <point x="282" y="246" type="line" smooth="yes"/>
      <point x="266.667" y="246"/>
      <point x="252.667" y="247"/>
      <point x="240" y="249" type="curve" smooth="yes"/>
      <point x="227.333" y="251"/>
      <point x="217.5" y="253.167"/>
      <point x="210.5" y="255.5" type="curve" smooth="yes"/>
      <point x="203.5" y="257.833"/>
      <point x="196" y="261"/>
      <point x="188" y="265" type="curve" smooth="yes"/>
      <point x="180" y="269"/>
      <point x="171.5" y="273.833"/>
      <point x="162.5" y="279.5" type="curve" smooth="yes"/>
      <point x="153.5" y="285.167"/>
      <point x="144" y="293.167"/>
      <point x="134" y="303.5" type="curve" smooth="yes"/>
      <point x="124" y="313.833"/>
      <point x="113.833" y="325.833"/>
      <point x="103.5" y="339.5" type="curve" smooth="yes"/>
      <point x="93.1667" y="353.167"/>
      <point x="86.6667" y="362.667"/>
      <point x="84" y="368" type="curve" smooth="yes"/>
      <point x="81.3333" y="373.333"/>
      <point x="81.6667" y="378.667"/>
    </contour>
    <contour>
      <point x="1486" y="1163" type="curve"/>
      <point x="1496.67" y="1161"/>
      <point x="1501.33" y="1155.5"/>
      <point x="1500" y="1146.5" type="curve" smooth="yes"/>
      <point x="1498.67" y="1137.5"/>
      <point x="1491.67" y="1132.67"/>
      <point x="1479" y="1132" type="curve"/>
      <point x="1465" y="1127.33"/>
      <point x="1453.83" y="1109.67"/>
      <point x="1445.5" y="1079" type="curve" smooth="yes"/>
      <point x="1437.17" y="1048.33"/>
      <point x="1428" y="1016"/>
      <point x="1418" y="982" type="curve" smooth="yes"/>
      <point x="1395.33" y="902.667"/>
      <point x="1374.83" y="838.333"/>
      <point x="1356.5" y="789" type="curve" smooth="yes"/>
      <point x="1338.17" y="739.667"/>
      <point x="1320.5" y="705.167"/>
      <point x="1303.5" y="685.5" type="curve" smooth="yes"/>
      <point x="1286.5" y="665.833"/>
      <point x="1266.33" y="650.667"/>
      <point x="1243" y="640" type="curve" smooth="yes"/>
      <point x="1207" y="624.667"/>
      <point x="1171.5" y="613.333"/>
      <point x="1136.5" y="606" type="curve" smooth="yes"/>
      <point x="1101.5" y="598.667"/>
      <point x="1071" y="595"/>
      <point x="1045" y="595" type="curve"/>
      <point x="1057.67" y="565"/>
      <point x="1079" y="544"/>
      <point x="1109" y="532" type="curve" smooth="yes"/>
      <point x="1139" y="520"/>
      <point x="1147.67" y="507.333"/>
      <point x="1135" y="494" type="curve" smooth="yes"/>
      <point x="1127.67" y="486.667"/>
      <point x="1104.67" y="496.333"/>
      <point x="1066" y="523" type="curve" smooth="yes"/>
      <point x="1027.33" y="549.667"/>
      <point x="1000.67" y="576"/>
      <point x="986" y="602" type="curve"/>
      <point x="986" y="618.667"/>
      <point x="992.833" y="625.667"/>
      <point x="1006.5" y="623" type="curve" smooth="yes"/>
      <point x="1020.17" y="620.333"/>
      <point x="1034.67" y="618.333"/>
      <point x="1050" y="617" type="curve" smooth="yes"/>
      <point x="1065.33" y="616.333"/>
      <point x="1081.33" y="617.333"/>
      <point x="1098" y="620" type="curve" smooth="yes"/>
      <point x="1114.67" y="622.667"/>
      <point x="1136.67" y="631"/>
      <point x="1164" y="645" type="curve" smooth="yes"/>
      <point x="1177.33" y="651.667"/>
      <point x="1189.83" y="666.833"/>
      <point x="1201.5" y="690.5" type="curve" smooth="yes"/>
      <point x="1213.17" y="714.167"/>
      <point x="1223.83" y="740.333"/>
      <point x="1233.5" y="769" type="curve" smooth="yes"/>
      <point x="1243.17" y="797.667"/>
      <point x="1251.33" y="826.167"/>
      <point x="1258" y="854.5" type="curve" smooth="yes"/>
      <point x="1264.67" y="882.833"/>
      <point x="1273.5" y="923.667"/>
      <point x="1284.5" y="977" type="curve" smooth="yes"/>
      <point x="1295.5" y="1030.33"/>
      <point x="1304.83" y="1066"/>
      <point x="1312.5" y="1084" type="curve" smooth="yes"/>
      <point x="1320.17" y="1102"/>
      <point x="1331.17" y="1116.67"/>
      <point x="1345.5" y="1128" type="curve" smooth="yes"/>
      <point x="1359.83" y="1139.33"/>
      <point x="1373.5" y="1146.67"/>
      <point x="1386.5" y="1150" type="curve" smooth="yes"/>
      <point x="1399.5" y="1153.33"/>
      <point x="1414" y="1155.67"/>
      <point x="1430" y="1157" type="curve" smooth="yes"/>
      <point x="1446" y="1158.33"/>
      <point x="1464.67" y="1160.33"/>
    </contour>
    <contour>
      <point x="558" y="1163" type="curve"/>
      <point x="568.667" y="1161"/>
      <point x="573.333" y="1155.5"/>
      <point x="572" y="1146.5" type="curve" smooth="yes"/>
      <point x="570.667" y="1137.5"/>
      <point x="564" y="1132.67"/>
      <point x="552" y="1132" type="curve"/>
      <point x="538" y="1127.33"/>
      <point x="526.667" y="1109.67"/>
      <point x="518" y="1079" type="curve" smooth="yes"/>
      <point x="509.333" y="1048.33"/>
      <point x="500.333" y="1016"/>
      <point x="491" y="982" type="curve" smooth="yes"/>
      <point x="468.333" y="902.667"/>
      <point x="447.667" y="838.333"/>
      <point x="429" y="789" type="curve" smooth="yes"/>
      <point x="410.333" y="739.667"/>
      <point x="392.667" y="705.167"/>
      <point x="376" y="685.5" type="curve" smooth="yes"/>
      <point x="359.333" y="665.833"/>
      <point x="339" y="650.667"/>
      <point x="315" y="640" type="curve" smooth="yes"/>
      <point x="279" y="624.667"/>
      <point x="243.5" y="613.333"/>
      <point x="208.5" y="606" type="curve" smooth="yes"/>
      <point x="173.5" y="598.667"/>
      <point x="143.333" y="595"/>
      <point x="118" y="595" type="curve"/>
      <point x="130.667" y="565"/>
      <point x="152" y="544"/>
      <point x="182" y="532" type="curve" smooth="yes"/>
      <point x="212" y="520"/>
      <point x="220.667" y="507.333"/>
      <point x="208" y="494" type="curve" smooth="yes"/>
      <point x="200.667" y="486.667"/>
      <point x="177.5" y="496.333"/>
      <point x="138.5" y="523" type="curve" smooth="yes"/>
      <point x="99.5" y="549.667"/>
      <point x="73" y="576"/>
      <point x="59" y="602" type="curve"/>
      <point x="59" y="618.667"/>
      <point x="65.6667" y="625.667"/>
      <point x="79" y="623" type="curve" smooth="yes"/>
      <point x="92.3333" y="620.333"/>
      <point x="107" y="618.333"/>
      <point x="123" y="617" type="curve" smooth="yes"/>
      <point x="138.333" y="616.333"/>
      <point x="154.167" y="617.333"/>
      <point x="170.5" y="620" type="curve" smooth="yes"/>
      <point x="186.833" y="622.667"/>
      <point x="208.667" y="631"/>
      <point x="236" y="645" type="curve" smooth="yes"/>
      <point x="249.333" y="651.667"/>
      <point x="262" y="666.833"/>
      <point x="274" y="690.5" type="curve" smooth="yes"/>
      <point x="286" y="714.167"/>
      <point x="296.667" y="740.333"/>
      <point x="306" y="769" type="curve" smooth="yes"/>
      <point x="315.333" y="797.667"/>
      <point x="323.333" y="826.167"/>
      <point x="330" y="854.5" type="curve" smooth="yes"/>
      <point x="336.667" y="882.833"/>
      <point x="345.5" y="923.667"/>
      <point x="356.5" y="977" type="curve" smooth="yes"/>
      <point x="367.5" y="1030.33"/>
      <point x="376.833" y="1066"/>
      <point x="384.5" y="1084" type="curve" smooth="yes"/>
      <point x="392.167" y="1102"/>
      <point x="403.167" y="1116.67"/>
      <point x="417.5" y="1128" type="curve" smooth="yes"/>
      <point x="431.833" y="1139.33"/>
      <point x="445.667" y="1146.67"/>
      <point x="459" y="1150" type="curve" smooth="yes"/>
      <point x="472.333" y="1153.33"/>
      <point x="486.833" y="1155.67"/>
      <point x="502.5" y="1157" type="curve" smooth="yes"/>
      <point x="518.167" y="1158.33"/>
      <point x="536.667" y="1160.33"/>
    </contour>
    <contour>
      <point x="1063" y="1338" type="curve"/>
      <point x="1073" y="1336.67"/>
      <point x="1077.5" y="1332.17"/>
      <point x="1076.5" y="1324.5" type="curve" smooth="yes"/>
      <point x="1075.5" y="1316.83"/>
      <point x="1069.33" y="1312.33"/>
      <point x="1058" y="1311" type="curve"/>
      <point x="1045.33" y="1307"/>
      <point x="1035" y="1292.17"/>
      <point x="1027" y="1266.5" type="curve" smooth="yes"/>
      <point x="1019" y="1240.83"/>
      <point x="1010.33" y="1213.67"/>
      <point x="1001" y="1185" type="curve" smooth="yes"/>
      <point x="980.333" y="1117.67"/>
      <point x="961.333" y="1063.33"/>
      <point x="944" y="1022" type="curve" smooth="yes"/>
      <point x="926.667" y="980.667"/>
      <point x="910.333" y="951.667"/>
      <point x="895" y="935" type="curve" smooth="yes"/>
      <point x="879.667" y="918.333"/>
      <point x="861" y="905.667"/>
      <point x="839" y="897" type="curve" smooth="yes"/>
      <point x="805.667" y="883.667"/>
      <point x="772.833" y="874"/>
      <point x="740.5" y="868" type="curve" smooth="yes"/>
      <point x="708.167" y="862"/>
      <point x="680" y="859"/>
      <point x="656" y="859" type="curve"/>
      <point x="668" y="833"/>
      <point x="687.833" y="815.167"/>
      <point x="715.5" y="805.5" type="curve" smooth="yes"/>
      <point x="743.167" y="795.833"/>
      <point x="751" y="785.333"/>
      <point x="739" y="774" type="curve" smooth="yes"/>
      <point x="732.333" y="768"/>
      <point x="711.167" y="776.167"/>
      <point x="675.5" y="798.5" type="curve" smooth="yes"/>
      <point x="639.833" y="820.833"/>
      <point x="615.333" y="843"/>
      <point x="602" y="865" type="curve"/>
      <point x="602" y="879"/>
      <point x="608.167" y="884.833"/>
      <point x="620.5" y="882.5" type="curve" smooth="yes"/>
      <point x="632.833" y="880.167"/>
      <point x="646.333" y="878.667"/>
      <point x="661" y="878" type="curve" smooth="yes"/>
      <point x="675.667" y="877.333"/>
      <point x="690.5" y="878"/>
      <point x="705.5" y="880" type="curve" smooth="yes"/>
      <point x="720.5" y="882"/>
      <point x="740.667" y="889"/>
      <point x="766" y="901" type="curve" smooth="yes"/>
      <point x="778.667" y="907"/>
      <point x="790.333" y="919.833"/>
      <point x="801" y="939.5" type="curve" smooth="yes"/>
      <point x="811.667" y="959.167"/>
      <point x="821.5" y="981.167"/>
      <point x="830.5" y="1005.5" type="curve" smooth="yes"/>
      <point x="839.5" y="1029.83"/>
      <point x="847" y="1054"/>
      <point x="853" y="1078" type="curve" smooth="yes"/>
      <point x="859" y="1102"/>
      <point x="867" y="1136.33"/>
      <point x="877" y="1181" type="curve" smooth="yes"/>
      <point x="887" y="1225.67"/>
      <point x="895.667" y="1255.67"/>
      <point x="903" y="1271" type="curve" smooth="yes"/>
      <point x="910.333" y="1286.33"/>
      <point x="920.667" y="1298.83"/>
      <point x="934" y="1308.5" type="curve" smooth="yes"/>
      <point x="947.333" y="1318.17"/>
      <point x="960" y="1324.33"/>
      <point x="972" y="1327" type="curve" smooth="yes"/>
      <point x="984" y="1329.67"/>
      <point x="997.333" y="1331.67"/>
      <point x="1012" y="1333" type="curve" smooth="yes"/>
      <point x="1026.67" y="1334.33"/>
      <point x="1043.67" y="1336"/>
    </contour>
  </outline>
</glyph>
<glyph name="oligonIson" format="2">
  <advance width="1515"/>
  <unicode hex="E010"/>




















  <outline>
    <contour>
      <point x="85" y="384" type="curve" smooth="yes"/>
      <point x="88.3333" y="389.333"/>
      <point x="92.1667" y="392.167"/>
      <point x="96.5" y="392.5" type="curve" smooth="yes"/>
      <point x="100.833" y="392.833"/>
      <point x="105.333" y="391.667"/>
      <point x="110" y="389" type="curve" smooth="yes"/>
      <point x="114.667" y="386.333"/>
      <point x="120.667" y="383.167"/>
      <point x="128" y="379.5" type="curve" smooth="yes"/>
      <point x="135.333" y="375.833"/>
      <point x="144.667" y="372.833"/>
      <point x="156" y="370.5" type="curve" smooth="yes"/>
      <point x="167.333" y="368.167"/>
      <point x="183.333" y="367"/>
      <point x="204" y="367" type="curve" smooth="yes"/>
      <point x="1228" y="367" type="line" smooth="yes"/>
      <point x="1246.67" y="367"/>
      <point x="1263.67" y="365.5"/>
      <point x="1279" y="362.5" type="curve" smooth="yes"/>
      <point x="1294.33" y="359.5"/>
      <point x="1308.33" y="354.667"/>
      <point x="1321" y="348" type="curve" smooth="yes"/>
      <point x="1333.67" y="341.333"/>
      <point x="1343.5" y="335.333"/>
      <point x="1350.5" y="330" type="curve" smooth="yes"/>
      <point x="1357.5" y="324.667"/>
      <point x="1367" y="315.5"/>
      <point x="1379" y="302.5" type="curve" smooth="yes"/>
      <point x="1391" y="289.5"/>
      <point x="1401.5" y="277"/>
      <point x="1410.5" y="265" type="curve" smooth="yes"/>
      <point x="1419.5" y="253"/>
      <point x="1421.33" y="241.333"/>
      <point x="1416" y="230" type="curve"/>
      <point x="1410.67" y="222"/>
      <point x="1404.5" y="220.333"/>
      <point x="1397.5" y="225" type="curve" smooth="yes"/>
      <point x="1390.5" y="229.667"/>
      <point x="1382.33" y="233.667"/>
      <point x="1373" y="237" type="curve" smooth="yes"/>
      <point x="1363.67" y="240.333"/>
      <point x="1353.5" y="242.667"/>
      <point x="1342.5" y="244" type="curve" smooth="yes"/>
      <point x="1331.5" y="245.333"/>
      <point x="1314.33" y="246"/>
      <point x="1291" y="246" type="curve" smooth="yes"/>
      <point x="282" y="246" type="line" smooth="yes"/>
      <point x="266.667" y="246"/>
      <point x="252.667" y="247"/>
      <point x="240" y="249" type="curve" smooth="yes"/>
      <point x="227.333" y="251"/>
      <point x="217.5" y="253.167"/>
      <point x="210.5" y="255.5" type="curve" smooth="yes"/>
      <point x="203.5" y="257.833"/>
      <point x="196" y="261"/>
      <point x="188" y="265" type="curve" smooth="yes"/>
      <point x="180" y="269"/>
      <point x="171.5" y="273.833"/>
      <point x="162.5" y="279.5" type="curve" smooth="yes"/>
      <point x="153.5" y="285.167"/>
      <point x="144" y="293.167"/>
      <point x="134" y="303.5" type="curve" smooth="yes"/>
      <point x="124" y="313.833"/>
      <point x="113.833" y="325.833"/>
      <point x="103.5" y="339.5" type="curve" smooth="yes"/>
      <point x="93.1667" y="353.167"/>
      <point x="86.6667" y="362.667"/>
      <point x="84" y="368" type="curve" smooth="yes"/>
      <point x="81.3333" y="373.333"/>
      <point x="81.6667" y="378.667"/>
    </contour>
    <contour>
      <point x="129" y="668" type="curve"/>
      <point x="107" y="714"/>
      <point x="101" y="753.333"/>
      <point x="111" y="786" type="curve" smooth="yes"/>
      <point x="121" y="818.667"/>
      <point x="139.333" y="836.333"/>
      <point x="166" y="839" type="curve" smooth="yes"/>
      <point x="183.333" y="840.333"/>
      <point x="196.5" y="838.833"/>
      <point x="205.5" y="834.5" type="curve" smooth="yes"/>
      <point x="214.5" y="830.167"/>
      <point x="222.333" y="825.833"/>
      <point x="229" y="821.5" type="curve" smooth="yes"/>
      <point x="235.667" y="817.167"/>
      <point x="242.167" y="812.5"/>
      <point x="248.5" y="807.5" type="curve" smooth="yes"/>
      <point x="254.833" y="802.5"/>
      <point x="260.667" y="797.167"/>
      <point x="266" y="791.5" type="curve" smooth="yes"/>
      <point x="271.333" y="785.833"/>
      <point x="275" y="781"/>
      <point x="277" y="777" type="curve" smooth="yes"/>
      <point x="279" y="773"/>
      <point x="280" y="769.167"/>
      <point x="280" y="765.5" type="curve" smooth="yes"/>
      <point x="280" y="761.833"/>
      <point x="278.833" y="759.167"/>
      <point x="276.5" y="757.5" type="curve" smooth="yes"/>
      <point x="274.167" y="755.833"/>
      <point x="267.833" y="752.667"/>
      <point x="257.5" y="748" type="curve" smooth="yes"/>
      <point x="247.167" y="743.333"/>
      <point x="233.833" y="735.833"/>
      <point x="217.5" y="725.5" type="curve" smooth="yes"/>
      <point x="201.167" y="715.167"/>
      <point x="193.333" y="698"/>
      <point x="194" y="674" type="curve" smooth="yes"/>
      <point x="194" y="648.667"/>
      <point x="217.167" y="624.833"/>
      <point x="263.5" y="602.5" type="curve" smooth="yes"/>
      <point x="309.833" y="580.167"/>
      <point x="378.667" y="571"/>
      <point x="470" y="575" type="curve"/>
      <point x="1115" y="594" type="line" smooth="yes"/>
      <point x="1134.33" y="594"/>
      <point x="1149.83" y="592.5"/>
      <point x="1161.5" y="589.5" type="curve" smooth="yes"/>
      <point x="1173.17" y="586.5"/>
      <point x="1183.67" y="582.667"/>
      <point x="1193" y="578" type="curve" smooth="yes"/>
      <point x="1202.33" y="573.333"/>
      <point x="1210.17" y="568.667"/>
      <point x="1216.5" y="564" type="curve" smooth="yes"/>
      <point x="1222.83" y="559.333"/>
      <point x="1230.33" y="552.667"/>
      <point x="1239" y="544" type="curve" smooth="yes"/>
      <point x="1247.67" y="535.333"/>
      <point x="1257.83" y="524"/>
      <point x="1269.5" y="510" type="curve" smooth="yes"/>
      <point x="1281.17" y="496"/>
      <point x="1288.83" y="485.667"/>
      <point x="1292.5" y="479" type="curve" smooth="yes"/>
      <point x="1296.17" y="472.333"/>
      <point x="1298" y="465.833"/>
      <point x="1298" y="459.5" type="curve" smooth="yes"/>
      <point x="1298" y="453.167"/>
      <point x="1296.17" y="449"/>
      <point x="1292.5" y="447" type="curve" smooth="yes"/>
      <point x="1288.83" y="445"/>
      <point x="1284.83" y="444"/>
      <point x="1280.5" y="444" type="curve" smooth="yes"/>
      <point x="1276.17" y="444"/>
      <point x="1271.67" y="445"/>
      <point x="1267" y="447" type="curve" smooth="yes"/>
      <point x="1262.33" y="449"/>
      <point x="1256.67" y="451.167"/>
      <point x="1250" y="453.5" type="curve" smooth="yes"/>
      <point x="1243.33" y="455.833"/>
      <point x="1235.83" y="458.5"/>
      <point x="1227.5" y="461.5" type="curve" smooth="yes"/>
      <point x="1219.17" y="464.5"/>
      <point x="1211.67" y="466.667"/>
      <point x="1205" y="468" type="curve" smooth="yes"/>
      <point x="1198.33" y="469.333"/>
      <point x="1188.67" y="470"/>
      <point x="1176" y="470" type="curve" smooth="yes"/>
      <point x="829" y="476" type="line" smooth="yes"/>
      <point x="775" y="476"/>
      <point x="718.333" y="478.5"/>
      <point x="659" y="483.5" type="curve" smooth="yes"/>
      <point x="599.667" y="488.5"/>
      <point x="543.667" y="495"/>
      <point x="491" y="503" type="curve" smooth="yes"/>
      <point x="438.333" y="511"/>
      <point x="392" y="519.833"/>
      <point x="352" y="529.5" type="curve" smooth="yes"/>
      <point x="312" y="539.167"/>
      <point x="284.667" y="547"/>
      <point x="270" y="553" type="curve" smooth="yes"/>
      <point x="244.667" y="565"/>
      <point x="222.333" y="576.833"/>
      <point x="203" y="588.5" type="curve" smooth="yes"/>
      <point x="183.667" y="600.167"/>
      <point x="159" y="626.667"/>
    </contour>
  </outline>
</glyph>
<glyph name="oligonApostrofos" format="2">
  <advance width="1515"/>
  <unicode hex="E011"/>




















  <outline>
    <contour>
      <point x="690" y="475" type="curve"/>
      <point x="682" y="481"/>
      <point x="681.333" y="486.5"/>
      <point x="688" y="491.5" type="curve" smooth="yes"/>
      <point x="694.667" y="496.5"/>
      <point x="703" y="499"/>
      <point x="713" y="499" type="curve" smooth="yes"/>
      <point x="723.667" y="499"/>
      <point x="738.833" y="508.833"/>
      <point x="758.5" y="528.5" type="curve" smooth="yes"/>
      <point x="778.167" y="548.167"/>
      <point x="791" y="572.333"/>
      <point x="797" y="601" type="curve" smooth="yes"/>
      <point x="807" y="649.667"/>
      <point x="781.667" y="689.667"/>
      <point x="721" y="721" type="curve" smooth="yes"/>
      <point x="697.667" y="732.333"/>
      <point x="668.333" y="742.333"/>
      <point x="633" y="751" type="curve" smooth="yes"/>
      <point x="597.667" y="759.667"/>
      <point x="562.667" y="767.333"/>
      <point x="528" y="774" type="curve" smooth="yes"/>
      <point x="493.333" y="780.667"/>
      <point x="462.667" y="786.167"/>
      <point x="436" y="790.5" type="curve" smooth="yes"/>
      <point x="409.333" y="794.833"/>
      <point x="394" y="798"/>
      <point x="390" y="800" type="curve" smooth="yes"/>
      <point x="380.667" y="803.333"/>
      <point x="377" y="808.167"/>
      <point x="379" y="814.5" type="curve" smooth="yes"/>
      <point x="381" y="820.833"/>
      <point x="386" y="824"/>
      <point x="394" y="824" type="curve" smooth="yes"/>
      <point x="398" y="824"/>
      <point x="412.833" y="822.333"/>
      <point x="438.5" y="819" type="curve" smooth="yes"/>
      <point x="464.167" y="815.667"/>
      <point x="495.167" y="811"/>
      <point x="531.5" y="805" type="curve" smooth="yes"/>
      <point x="567.833" y="799"/>
      <point x="606.167" y="791.333"/>
      <point x="646.5" y="782" type="curve" smooth="yes"/>
      <point x="686.833" y="772.667"/>
      <point x="723.333" y="761.667"/>
      <point x="756" y="749" type="curve" smooth="yes"/>
      <point x="795.333" y="733.667"/>
      <point x="826.667" y="718.167"/>
      <point x="850" y="702.5" type="curve" smooth="yes"/>
      <point x="873.333" y="686.833"/>
      <point x="895" y="666"/>
      <point x="915" y="640" type="curve" smooth="yes"/>
      <point x="934.333" y="613.333"/>
      <point x="942.5" y="587.167"/>
      <point x="939.5" y="561.5" type="curve" smooth="yes"/>
      <point x="936.5" y="535.833"/>
      <point x="925" y="515.667"/>
      <point x="905" y="501" type="curve" smooth="yes"/>
      <point x="887" y="487.667"/>
      <point x="866.5" y="478.833"/>
      <point x="843.5" y="474.5" type="curve" smooth="yes"/>
      <point x="820.5" y="470.167"/>
      <point x="798.667" y="468"/>
      <point x="778" y="468" type="curve" smooth="yes"/>
      <point x="746" y="468"/>
      <point x="746" y="468"/>
      <point x="733.5" y="468" type="curve" smooth="yes"/>
      <point x="725.167" y="468"/>
      <point x="710.667" y="470.333"/>
    </contour>
    <contour>
      <point x="85" y="384" type="curve" smooth="yes"/>
      <point x="88.3333" y="389.333"/>
      <point x="92.1667" y="392.167"/>
      <point x="96.5" y="392.5" type="curve" smooth="yes"/>
      <point x="100.833" y="392.833"/>
      <point x="105.333" y="391.667"/>
      <point x="110" y="389" type="curve" smooth="yes"/>
      <point x="114.667" y="386.333"/>
      <point x="120.667" y="383.167"/>
      <point x="128" y="379.5" type="curve" smooth="yes"/>
      <point x="135.333" y="375.833"/>
      <point x="144.667" y="372.833"/>
      <point x="156" y="370.5" type="curve" smooth="yes"/>
      <point x="167.333" y="368.167"/>
      <point x="183.333" y="367"/>
      <point x="204" y="367" type="curve" smooth="yes"/>
      <point x="1228" y="367" type="line" smooth="yes"/>
      <point x="1246.67" y="367"/>
      <point x="1263.67" y="365.5"/>
      <point x="1279" y="362.5" type="curve" smooth="yes"/>
      <point x="1294.33" y="359.5"/>
      <point x="1308.33" y="354.667"/>
      <point x="1321" y="348" type="curve" smooth="yes"/>
      <point x="1333.67" y="341.333"/>
      <point x="1343.5" y="335.333"/>
      <point x="1350.5" y="330" type="curve" smooth="yes"/>
      <point x="1357.5" y="324.667"/>
      <point x="1367" y="315.5"/>
      <point x="1379" y="302.5" type="curve" smooth="yes"/>
      <point x="1391" y="289.5"/>
      <point x="1401.5" y="277"/>
      <point x="1410.5" y="265" type="curve" smooth="yes"/>
      <point x="1419.5" y="253"/>
      <point x="1421.33" y="241.333"/>
      <point x="1416" y="230" type="curve"/>
      <point x="1410.67" y="222"/>
      <point x="1404.5" y="220.333"/>
      <point x="1397.5" y="225" type="curve" smooth="yes"/>
      <point x="1390.5" y="229.667"/>
      <point x="1382.33" y="233.667"/>
      <point x="1373" y="237" type="curve" smooth="yes"/>
      <point x="1363.67" y="240.333"/>
      <point x="1353.5" y="242.667"/>
      <point x="1342.5" y="244" type="curve" smooth="yes"/>
      <point x="1331.5" y="245.333"/>
      <point x="1314.33" y="246"/>
      <point x="1291" y="246" type="curve" smooth="yes"/>
      <point x="282" y="246" type="line" smooth="yes"/>
      <point x="266.667" y="246"/>
      <point x="252.667" y="247"/>
      <point x="240" y="249" type="curve" smooth="yes"/>
      <point x="227.333" y="251"/>
      <point x="217.5" y="253.167"/>
      <point x="210.5" y="255.5" type="curve" smooth="yes"/>
      <point x="203.5" y="257.833"/>
      <point x="196" y="261"/>
      <point x="188" y="265" type="curve" smooth="yes"/>
      <point x="180" y="269"/>
      <point x="171.5" y="273.833"/>
      <point x="162.5" y="279.5" type="curve" smooth="yes"/>
      <point x="153.5" y="285.167"/>
      <point x="144" y="293.167"/>
      <point x="134" y="303.5" type="curve" smooth="yes"/>
      <point x="124" y="313.833"/>
      <point x="113.833" y="325.833"/>
      <point x="103.5" y="339.5" type="curve" smooth="yes"/>
      <point x="93.1667" y="353.167"/>
      <point x="86.6667" y="362.667"/>
      <point x="84" y="368" type="curve" smooth="yes"/>
      <point x="81.3333" y="373.333"/>
      <point x="81.6667" y="378.667"/>
    </contour>
  </outline>
</glyph>
<glyph name="oligonYporroi" format="2">
  <advance width="1515"/>
  <unicode hex="E012"/>





















  <outline>
    <contour>
      <point x="1062" y="735" type="curve" smooth="yes"/>
      <point x="1077.33" y="735"/>
      <point x="1084.83" y="730.333"/>
      <point x="1084.5" y="721" type="curve" smooth="yes"/>
      <point x="1084.17" y="711.667"/>
      <point x="1078.67" y="706"/>
      <point x="1068" y="704" type="curve" smooth="yes"/>
      <point x="1050.67" y="700"/>
      <point x="1038.67" y="692.333"/>
      <point x="1032" y="681" type="curve"/>
      <point x="1008" y="623.667"/>
      <point x="989.667" y="573.5"/>
      <point x="977" y="530.5" type="curve" smooth="yes"/>
      <point x="964.333" y="487.5"/>
      <point x="947.667" y="461.667"/>
      <point x="927" y="453" type="curve"/>
      <point x="905.667" y="450.333"/>
      <point x="883.167" y="448.833"/>
      <point x="859.5" y="448.5" type="curve" smooth="yes"/>
      <point x="835.833" y="448.167"/>
      <point x="812.667" y="449.667"/>
      <point x="790" y="453" type="curve"/>
      <point x="780" y="457"/>
      <point x="776.5" y="461.5"/>
      <point x="779.5" y="466.5" type="curve" smooth="yes"/>
      <point x="782.5" y="471.5"/>
      <point x="787.333" y="475"/>
      <point x="794" y="477" type="curve" smooth="yes"/>
      <point x="800.667" y="478.333"/>
      <point x="807.667" y="486.333"/>
      <point x="815" y="501" type="curve" smooth="yes"/>
      <point x="838.333" y="542.333"/>
      <point x="857.833" y="589.167"/>
      <point x="873.5" y="641.5" type="curve" smooth="yes"/>
      <point x="889.167" y="693.833"/>
      <point x="905.667" y="722.667"/>
      <point x="923" y="728" type="curve" smooth="yes"/>
      <point x="945.667" y="734.667"/>
      <point x="968.667" y="737.5"/>
      <point x="992" y="736.5" type="curve" smooth="yes"/>
      <point x="1015.33" y="735.5"/>
      <point x="1038.67" y="735"/>
    </contour>
    <contour>
      <point x="85" y="384" type="curve" smooth="yes"/>
      <point x="88.3333" y="389.333"/>
      <point x="92.1667" y="392.167"/>
      <point x="96.5" y="392.5" type="curve" smooth="yes"/>
      <point x="100.833" y="392.833"/>
      <point x="105.333" y="391.667"/>
      <point x="110" y="389" type="curve" smooth="yes"/>
      <point x="114.667" y="386.333"/>
      <point x="120.667" y="383.167"/>
      <point x="128" y="379.5" type="curve" smooth="yes"/>
      <point x="135.333" y="375.833"/>
      <point x="144.667" y="372.833"/>
      <point x="156" y="370.5" type="curve" smooth="yes"/>
      <point x="167.333" y="368.167"/>
      <point x="183.333" y="367"/>
      <point x="204" y="367" type="curve" smooth="yes"/>
      <point x="1228" y="367" type="line" smooth="yes"/>
      <point x="1246.67" y="367"/>
      <point x="1263.67" y="365.5"/>
      <point x="1279" y="362.5" type="curve" smooth="yes"/>
      <point x="1294.33" y="359.5"/>
      <point x="1308.33" y="354.667"/>
      <point x="1321" y="348" type="curve" smooth="yes"/>
      <point x="1333.67" y="341.333"/>
      <point x="1343.5" y="335.333"/>
      <point x="1350.5" y="330" type="curve" smooth="yes"/>
      <point x="1357.5" y="324.667"/>
      <point x="1367" y="315.5"/>
      <point x="1379" y="302.5" type="curve" smooth="yes"/>
      <point x="1391" y="289.5"/>
      <point x="1401.5" y="277"/>
      <point x="1410.5" y="265" type="curve" smooth="yes"/>
      <point x="1419.5" y="253"/>
      <point x="1421.33" y="241.333"/>
      <point x="1416" y="230" type="curve"/>
      <point x="1410.67" y="222"/>
      <point x="1404.5" y="220.333"/>
      <point x="1397.5" y="225" type="curve" smooth="yes"/>
      <point x="1390.5" y="229.667"/>
      <point x="1382.33" y="233.667"/>
      <point x="1373" y="237" type="curve" smooth="yes"/>
      <point x="1363.67" y="240.333"/>
      <point x="1353.5" y="242.667"/>
      <point x="1342.5" y="244" type="curve" smooth="yes"/>
      <point x="1331.5" y="245.333"/>
      <point x="1314.33" y="246"/>
      <point x="1291" y="246" type="curve" smooth="yes"/>
      <point x="282" y="246" type="line" smooth="yes"/>
      <point x="266.667" y="246"/>
      <point x="252.667" y="247"/>
      <point x="240" y="249" type="curve" smooth="yes"/>
      <point x="227.333" y="251"/>
      <point x="217.5" y="253.167"/>
      <point x="210.5" y="255.5" type="curve" smooth="yes"/>
      <point x="203.5" y="257.833"/>
      <point x="196" y="261"/>
      <point x="188" y="265" type="curve" smooth="yes"/>
      <point x="180" y="269"/>
      <point x="171.5" y="273.833"/>
      <point x="162.5" y="279.5" type="curve" smooth="yes"/>
      <point x="153.5" y="285.167"/>
      <point x="144" y="293.167"/>
      <point x="134" y="303.5" type="curve" smooth="yes"/>
      <point x="124" y="313.833"/>
      <point x="113.833" y="325.833"/>
      <point x="103.5" y="339.5" type="curve" smooth="yes"/>
      <point x="93.1667" y="353.167"/>
      <point x="86.6667" y="362.667"/>
      <point x="84" y="368" type="curve" smooth="yes"/>
      <point x="81.3333" y="373.333"/>
      <point x="81.6667" y="378.667"/>
    </contour>
  </outline>
</glyph>
<glyph name="oligonElafron" format="2">
  <advance width="1519"/>
  <unicode hex="E013"/>




















  <outline>
    <contour>
      <point x="85" y="384" type="curve" smooth="yes"/>
      <point x="88.3333" y="389.333"/>
      <point x="92.1667" y="392.167"/>
      <point x="96.5" y="392.5" type="curve" smooth="yes"/>
      <point x="100.833" y="392.833"/>
      <point x="105.333" y="391.667"/>
      <point x="110" y="389" type="curve" smooth="yes"/>
      <point x="114.667" y="386.333"/>
      <point x="120.667" y="383.167"/>
      <point x="128" y="379.5" type="curve" smooth="yes"/>
      <point x="135.333" y="375.833"/>
      <point x="144.667" y="372.833"/>
      <point x="156" y="370.5" type="curve" smooth="yes"/>
      <point x="167.333" y="368.167"/>
      <point x="183.333" y="367"/>
      <point x="204" y="367" type="curve" smooth="yes"/>
      <point x="1228" y="367" type="line" smooth="yes"/>
      <point x="1246.67" y="367"/>
      <point x="1263.67" y="365.5"/>
      <point x="1279" y="362.5" type="curve" smooth="yes"/>
      <point x="1294.33" y="359.5"/>
      <point x="1308.33" y="354.667"/>
      <point x="1321" y="348" type="curve" smooth="yes"/>
      <point x="1333.67" y="341.333"/>
      <point x="1343.5" y="335.333"/>
      <point x="1350.5" y="330" type="curve" smooth="yes"/>
      <point x="1357.5" y="324.667"/>
      <point x="1367" y="315.5"/>
      <point x="1379" y="302.5" type="curve" smooth="yes"/>
      <point x="1391" y="289.5"/>
      <point x="1401.5" y="277"/>
      <point x="1410.5" y="265" type="curve" smooth="yes"/>
      <point x="1419.5" y="253"/>
      <point x="1421.33" y="241.333"/>
      <point x="1416" y="230" type="curve"/>
      <point x="1410.67" y="222"/>
      <point x="1404.5" y="220.333"/>
      <point x="1397.5" y="225" type="curve" smooth="yes"/>
      <point x="1390.5" y="229.667"/>
      <point x="1382.33" y="233.667"/>
      <point x="1373" y="237" type="curve" smooth="yes"/>
      <point x="1363.67" y="240.333"/>
      <point x="1353.5" y="242.667"/>
      <point x="1342.5" y="244" type="curve" smooth="yes"/>
      <point x="1331.5" y="245.333"/>
      <point x="1314.33" y="246"/>
      <point x="1291" y="246" type="curve" smooth="yes"/>
      <point x="282" y="246" type="line" smooth="yes"/>
      <point x="266.667" y="246"/>
      <point x="252.667" y="247"/>
      <point x="240" y="249" type="curve" smooth="yes"/>
      <point x="227.333" y="251"/>
      <point x="217.5" y="253.167"/>
      <point x="210.5" y="255.5" type="curve" smooth="yes"/>
      <point x="203.5" y="257.833"/>
      <point x="196" y="261"/>
      <point x="188" y="265" type="curve" smooth="yes"/>
      <point x="180" y="269"/>
      <point x="171.5" y="273.833"/>
      <point x="162.5" y="279.5" type="curve" smooth="yes"/>
      <point x="153.5" y="285.167"/>
      <point x="144" y="293.167"/>
      <point x="134" y="303.5" type="curve" smooth="yes"/>
      <point x="124" y="313.833"/>
      <point x="113.833" y="325.833"/>
      <point x="103.5" y="339.5" type="curve" smooth="yes"/>
      <point x="93.1667" y="353.167"/>
      <point x="86.6667" y="362.667"/>
      <point x="84" y="368" type="curve" smooth="yes"/>
      <point x="81.3333" y="373.333"/>
      <point x="81.6667" y="378.667"/>
    </contour>
    <contour>
      <point x="433" y="502" type="curve"/>
      <point x="407.667" y="492.667"/>
      <point x="365" y="493"/>
      <point x="305" y="503" type="curve"/>
      <point x="269.667" y="511.667"/>
      <point x="238.333" y="523.333"/>
      <point x="211" y="538" type="curve" smooth="yes"/>
      <point x="183.667" y="552.667"/>
      <point x="162.667" y="578.667"/>
      <point x="148" y="616" type="curve"/>
      <point x="138" y="651.333"/>
      <point x="134.833" y="679.5"/>
      <point x="138.5" y="700.5" type="curve" smooth="yes"/>
      <point x="142.167" y="721.5"/>
      <point x="154" y="745.667"/>
      <point x="174" y="773" type="curve"/>
      <point x="193.333" y="796.333"/>
      <point x="215.833" y="814"/>
      <point x="241.5" y="826" type="curve" smooth="yes"/>
      <point x="267.167" y="838"/>
      <point x="298.667" y="848"/>
      <point x="336" y="856" type="curve" smooth="yes"/>
      <point x="373.333" y="863.333"/>
      <point x="403.667" y="866.833"/>
      <point x="427" y="866.5" type="curve" smooth="yes"/>
      <point x="450.333" y="866.167"/>
      <point x="475.333" y="865.667"/>
      <point x="502" y="865" type="curve" smooth="yes"/>
      <point x="528.667" y="863.667"/>
      <point x="553.5" y="861.333"/>
      <point x="576.5" y="858" type="curve" smooth="yes"/>
      <point x="599.5" y="854.667"/>
      <point x="627.333" y="848"/>
      <point x="660" y="838" type="curve" smooth="yes"/>
      <point x="714" y="823.333"/>
      <point x="767.333" y="803"/>
      <point x="820" y="777" type="curve" smooth="yes"/>
      <point x="849.333" y="762.333"/>
      <point x="880.667" y="746.5"/>
      <point x="914" y="729.5" type="curve" smooth="yes"/>
      <point x="947.333" y="712.5"/>
      <point x="984.333" y="692.667"/>
      <point x="1025" y="670" type="curve" smooth="yes"/>
      <point x="1043.67" y="658.667"/>
      <point x="1064" y="646.5"/>
      <point x="1086" y="633.5" type="curve" smooth="yes"/>
      <point x="1108" y="620.5"/>
      <point x="1132" y="607.333"/>
      <point x="1158" y="594" type="curve"/>
      <point x="1177.33" y="582"/>
      <point x="1196.33" y="569.833"/>
      <point x="1215" y="557.5" type="curve" smooth="yes"/>
      <point x="1233.67" y="545.167"/>
      <point x="1241.5" y="532.833"/>
      <point x="1238.5" y="520.5" type="curve" smooth="yes"/>
      <point x="1235.5" y="508.167"/>
      <point x="1228.33" y="502.333"/>
      <point x="1217" y="503" type="curve" smooth="yes"/>
      <point x="1205.67" y="503.667"/>
      <point x="1170" y="503.333"/>
      <point x="1110" y="502" type="curve" smooth="yes"/>
      <point x="1050" y="500.667"/>
      <point x="997.667" y="500.667"/>
      <point x="953" y="502" type="curve"/>
      <point x="935" y="515.333"/>
      <point x="935.167" y="524.833"/>
      <point x="953.5" y="530.5" type="curve" smooth="yes"/>
      <point x="971.833" y="536.167"/>
      <point x="985.333" y="543.333"/>
      <point x="994" y="552" type="curve" smooth="yes"/>
      <point x="1010.67" y="569.333"/>
      <point x="1018.17" y="583"/>
      <point x="1016.5" y="593" type="curve" smooth="yes"/>
      <point x="1014.83" y="603"/>
      <point x="1012.17" y="610.833"/>
      <point x="1008.5" y="616.5" type="curve" smooth="yes"/>
      <point x="1004.83" y="622.167"/>
      <point x="999.333" y="628.333"/>
      <point x="992" y="635" type="curve" smooth="yes"/>
      <point x="984.667" y="641.667"/>
      <point x="966.5" y="654.833"/>
      <point x="937.5" y="674.5" type="curve" smooth="yes"/>
      <point x="908.5" y="694.167"/>
      <point x="872.667" y="715.333"/>
      <point x="830" y="738" type="curve"/>
      <point x="791.333" y="754.667"/>
      <point x="761" y="768.333"/>
      <point x="739" y="779" type="curve" smooth="yes"/>
      <point x="717" y="789.667"/>
      <point x="681" y="801.667"/>
      <point x="631" y="815" type="curve"/>
      <point x="594.333" y="822.333"/>
      <point x="557" y="826.667"/>
      <point x="519" y="828" type="curve" smooth="yes"/>
      <point x="481" y="829.333"/>
      <point x="442.667" y="823.667"/>
      <point x="404" y="811" type="curve"/>
      <point x="376.667" y="799"/>
      <point x="357.333" y="788.833"/>
      <point x="346" y="780.5" type="curve" smooth="yes"/>
      <point x="334.667" y="772.167"/>
      <point x="322.333" y="757.667"/>
      <point x="309" y="737" type="curve" smooth="yes"/>
      <point x="297" y="717"/>
      <point x="290" y="700"/>
      <point x="288" y="686" type="curve" smooth="yes"/>
      <point x="286" y="672"/>
      <point x="285.667" y="655.667"/>
      <point x="287" y="637" type="curve" smooth="yes"/>
      <point x="287.667" y="618.333"/>
      <point x="289.833" y="605"/>
      <point x="293.5" y="597" type="curve" smooth="yes"/>
      <point x="297.167" y="589"/>
      <point x="302" y="580.667"/>
      <point x="308" y="572" type="curve" smooth="yes"/>
      <point x="314" y="563.333"/>
      <point x="321.5" y="555.5"/>
      <point x="330.5" y="548.5" type="curve" smooth="yes"/>
      <point x="339.5" y="541.5"/>
      <point x="353.167" y="536.5"/>
      <point x="371.5" y="533.5" type="curve" smooth="yes"/>
      <point x="389.833" y="530.5"/>
      <point x="408.333" y="528"/>
      <point x="427" y="526" type="curve" smooth="yes"/>
      <point x="435" y="524.667"/>
      <point x="440" y="521.5"/>
      <point x="442" y="516.5" type="curve" smooth="yes"/>
      <point x="444" y="511.5"/>
      <point x="441" y="506.667"/>
    </contour>
  </outline>
</glyph>
<glyph name="oligonElafronApostrofos" format="2">
  <advance width="1515"/>
  <unicode hex="E014"/>
  <anchor x="667" y="125" name="gorgonBottom"/>
  <anchor x="930" y="1091" name="yfenAbove"/>
  <anchor x="929" y="-40" name="yfenBelow"/>
  <anchor x="783" y="1041" name="koronis"/>
  <anchor x="802" y="-62" name="endofonon"/>
  <anchor x="172" y="943" name="measureNumber"/>
  <anchor x="792" y="1093" name="isonIndicator"/>
  <anchor x="1692" y="-19" name="heteronConnecting"/>
  <anchor x="1087" y="227" name="heteron"/>
  <anchor x="1031" y="133" name="omalon"/>
  <anchor x="1471" y="133" name="omalonConnecting"/>
  <anchor x="820" y="165" name="antikenoma"/>
  <anchor x="803" y="30" name="apli"/>
  <anchor x="214" y="912" name="noteTop"/>
  <anchor x="602" y="1035" name="fthoraTop"/>
  <anchor x="789" y="209" name="fthoraBottom"/>
  <anchor x="400" y="133" name="diesis"/>
  <anchor x="1316" y="619" name="yfesis"/>
  <anchor x="785" y="160" name="klasmaBottom"/>
  <anchor x="840" y="113" name="psifiston"/>
  <outline>
    <contour>
      <point x="85" y="384" type="curve" smooth="yes"/>
      <point x="88.3333" y="389.333"/>
      <point x="92.1667" y="392.167"/>
      <point x="96.5" y="392.5" type="curve" smooth="yes"/>
      <point x="100.833" y="392.833"/>
      <point x="105.333" y="391.667"/>
      <point x="110" y="389" type="curve" smooth="yes"/>
      <point x="114.667" y="386.333"/>
      <point x="120.667" y="383.167"/>
      <point x="128" y="379.5" type="curve" smooth="yes"/>
      <point x="135.333" y="375.833"/>
      <point x="144.667" y="372.833"/>
      <point x="156" y="370.5" type="curve" smooth="yes"/>
      <point x="167.333" y="368.167"/>
      <point x="183.333" y="367"/>
      <point x="204" y="367" type="curve" smooth="yes"/>
      <point x="1228" y="367" type="line" smooth="yes"/>
      <point x="1246.67" y="367"/>
      <point x="1263.67" y="365.5"/>
      <point x="1279" y="362.5" type="curve" smooth="yes"/>
      <point x="1294.33" y="359.5"/>
      <point x="1308.33" y="354.667"/>
      <point x="1321" y="348" type="curve" smooth="yes"/>
      <point x="1333.67" y="341.333"/>
      <point x="1343.5" y="335.333"/>
      <point x="1350.5" y="330" type="curve" smooth="yes"/>
      <point x="1357.5" y="324.667"/>
      <point x="1367" y="315.5"/>
      <point x="1379" y="302.5" type="curve" smooth="yes"/>
      <point x="1391" y="289.5"/>
      <point x="1401.5" y="277"/>
      <point x="1410.5" y="265" type="curve" smooth="yes"/>
      <point x="1419.5" y="253"/>
      <point x="1421.33" y="241.333"/>
      <point x="1416" y="230" type="curve"/>
      <point x="1410.67" y="222"/>
      <point x="1404.5" y="220.333"/>
      <point x="1397.5" y="225" type="curve" smooth="yes"/>
      <point x="1390.5" y="229.667"/>
      <point x="1382.33" y="233.667"/>
      <point x="1373" y="237" type="curve" smooth="yes"/>
      <point x="1363.67" y="240.333"/>
      <point x="1353.5" y="242.667"/>
      <point x="1342.5" y="244" type="curve" smooth="yes"/>
      <point x="1331.5" y="245.333"/>
      <point x="1314.33" y="246"/>
      <point x="1291" y="246" type="curve" smooth="yes"/>
      <point x="282" y="246" type="line" smooth="yes"/>
      <point x="266.667" y="246"/>
      <point x="252.667" y="247"/>
      <point x="240" y="249" type="curve" smooth="yes"/>
      <point x="227.333" y="251"/>
      <point x="217.5" y="253.167"/>
      <point x="210.5" y="255.5" type="curve" smooth="yes"/>
      <point x="203.5" y="257.833"/>
      <point x="196" y="261"/>
      <point x="188" y="265" type="curve" smooth="yes"/>
      <point x="180" y="269"/>
      <point x="171.5" y="273.833"/>
      <point x="162.5" y="279.5" type="curve" smooth="yes"/>
      <point x="153.5" y="285.167"/>
      <point x="144" y="293.167"/>
      <point x="134" y="303.5" type="curve" smooth="yes"/>
      <point x="124" y="313.833"/>
      <point x="113.833" y="325.833"/>
      <point x="103.5" y="339.5" type="curve" smooth="yes"/>
      <point x="93.1667" y="353.167"/>
      <point x="86.6667" y="362.667"/>
      <point x="84" y="368" type="curve" smooth="yes"/>
      <point x="81.3333" y="373.333"/>
      <point x="81.6667" y="378.667"/>
    </contour>
    <contour>
      <point x="433" y="502" type="curve"/>
      <point x="407.667" y="492.667"/>
      <point x="365" y="493"/>
      <point x="305" y="503" type="curve"/>
      <point x="269.667" y="511.667"/>
      <point x="238.333" y="523.333"/>
      <point x="211" y="538" type="curve" smooth="yes"/>
      <point x="183.667" y="552.667"/>
      <point x="162.667" y="578.667"/>
      <point x="148" y="616" type="curve"/>
      <point x="138" y="651.333"/>
      <point x="134.833" y="679.5"/>
      <point x="138.5" y="700.5" type="curve" smooth="yes"/>
      <point x="142.167" y="721.5"/>
      <point x="154" y="745.667"/>
      <point x="174" y="773" type="curve"/>
      <point x="193.333" y="796.333"/>
      <point x="215.833" y="814"/>
      <point x="241.5" y="826" type="curve" smooth="yes"/>
      <point x="267.167" y="838"/>
      <point x="298.667" y="848"/>
      <point x="336" y="856" type="curve" smooth="yes"/>
      <point x="373.333" y="863.333"/>
      <point x="403.667" y="866.833"/>
      <point x="427" y="866.5" type="curve" smooth="yes"/>
      <point x="450.333" y="866.167"/>
      <point x="475.333" y="865.667"/>
      <point x="502" y="865" type="curve" smooth="yes"/>
      <point x="528.667" y="863.667"/>
      <point x="553.5" y="861.333"/>
      <point x="576.5" y="858" type="curve" smooth="yes"/>
      <point x="599.5" y="854.667"/>
      <point x="627.333" y="848"/>
      <point x="660" y="838" type="curve" smooth="yes"/>
      <point x="714" y="823.333"/>
      <point x="767.333" y="803"/>
      <point x="820" y="777" type="curve" smooth="yes"/>
      <point x="849.333" y="762.333"/>
      <point x="880.667" y="746.5"/>
      <point x="914" y="729.5" type="curve" smooth="yes"/>
      <point x="947.333" y="712.5"/>
      <point x="984.333" y="692.667"/>
      <point x="1025" y="670" type="curve" smooth="yes"/>
      <point x="1043.67" y="658.667"/>
      <point x="1064" y="646.5"/>
      <point x="1086" y="633.5" type="curve" smooth="yes"/>
      <point x="1108" y="620.5"/>
      <point x="1132" y="607.333"/>
      <point x="1158" y="594" type="curve"/>
      <point x="1177.33" y="582"/>
      <point x="1196.33" y="569.833"/>
      <point x="1215" y="557.5" type="curve" smooth="yes"/>
      <point x="1233.67" y="545.167"/>
      <point x="1241.5" y="532.833"/>
      <point x="1238.5" y="520.5" type="curve" smooth="yes"/>
      <point x="1235.5" y="508.167"/>
      <point x="1228.33" y="502.333"/>
      <point x="1217" y="503" type="curve" smooth="yes"/>
      <point x="1205.67" y="503.667"/>
      <point x="1170" y="503.333"/>
      <point x="1110" y="502" type="curve" smooth="yes"/>
      <point x="1050" y="500.667"/>
      <point x="997.667" y="500.667"/>
      <point x="953" y="502" type="curve"/>
      <point x="935" y="515.333"/>
      <point x="935.167" y="524.833"/>
      <point x="953.5" y="530.5" type="curve" smooth="yes"/>
      <point x="971.833" y="536.167"/>
      <point x="985.333" y="543.333"/>
      <point x="994" y="552" type="curve" smooth="yes"/>
      <point x="1010.67" y="569.333"/>
      <point x="1018.17" y="583"/>
      <point x="1016.5" y="593" type="curve" smooth="yes"/>
      <point x="1014.83" y="603"/>
      <point x="1012.17" y="610.833"/>
      <point x="1008.5" y="616.5" type="curve" smooth="yes"/>
      <point x="1004.83" y="622.167"/>
      <point x="999.333" y="628.333"/>
      <point x="992" y="635" type="curve" smooth="yes"/>
      <point x="984.667" y="641.667"/>
      <point x="966.5" y="654.833"/>
      <point x="937.5" y="674.5" type="curve" smooth="yes"/>
      <point x="908.5" y="694.167"/>
      <point x="872.667" y="715.333"/>
      <point x="830" y="738" type="curve"/>
      <point x="791.333" y="754.667"/>
      <point x="761" y="768.333"/>
      <point x="739" y="779" type="curve" smooth="yes"/>
      <point x="717" y="789.667"/>
      <point x="681" y="801.667"/>
      <point x="631" y="815" type="curve"/>
      <point x="594.333" y="822.333"/>
      <point x="557" y="826.667"/>
      <point x="519" y="828" type="curve" smooth="yes"/>
      <point x="481" y="829.333"/>
      <point x="442.667" y="823.667"/>
      <point x="404" y="811" type="curve"/>
      <point x="376.667" y="799"/>
      <point x="357.333" y="788.833"/>
      <point x="346" y="780.5" type="curve" smooth="yes"/>
      <point x="334.667" y="772.167"/>
      <point x="322.333" y="757.667"/>
      <point x="309" y="737" type="curve" smooth="yes"/>
      <point x="297" y="717"/>
      <point x="290" y="700"/>
      <point x="288" y="686" type="curve" smooth="yes"/>
      <point x="286" y="672"/>
      <point x="285.667" y="655.667"/>
      <point x="287" y="637" type="curve" smooth="yes"/>
      <point x="287.667" y="618.333"/>
      <point x="289.833" y="605"/>
      <point x="293.5" y="597" type="curve" smooth="yes"/>
      <point x="297.167" y="589"/>
      <point x="302" y="580.667"/>
      <point x="308" y="572" type="curve" smooth="yes"/>
      <point x="314" y="563.333"/>
      <point x="321.5" y="555.5"/>
      <point x="330.5" y="548.5" type="curve" smooth="yes"/>
      <point x="339.5" y="541.5"/>
      <point x="353.167" y="536.5"/>
      <point x="371.5" y="533.5" type="curve" smooth="yes"/>
      <point x="389.833" y="530.5"/>
      <point x="408.333" y="528"/>
      <point x="427" y="526" type="curve" smooth="yes"/>
      <point x="435" y="524.667"/>
      <point x="440" y="521.5"/>
      <point x="442" y="516.5" type="curve" smooth="yes"/>
      <point x="444" y="511.5"/>
      <point x="441" y="506.667"/>
    </contour>
    <contour>
      <point x="640" y="449" type="curve"/>
      <point x="634" y="453.667"/>
      <point x="633.5" y="458.333"/>
      <point x="638.5" y="463" type="curve" smooth="yes"/>
      <point x="643.5" y="467.667"/>
      <point x="650.333" y="470"/>
      <point x="659" y="470" type="curve" smooth="yes"/>
      <point x="667.667" y="470"/>
      <point x="680.167" y="478"/>
      <point x="696.5" y="494" type="curve" smooth="yes"/>
      <point x="712.833" y="510"/>
      <point x="723.667" y="529.667"/>
      <point x="729" y="553" type="curve" smooth="yes"/>
      <point x="737.667" y="593.667"/>
      <point x="716.333" y="627"/>
      <point x="665" y="653" type="curve" smooth="yes"/>
      <point x="646.333" y="662.333"/>
      <point x="622.333" y="670.5"/>
      <point x="593" y="677.5" type="curve" smooth="yes"/>
      <point x="563.667" y="684.5"/>
      <point x="534.667" y="690.833"/>
      <point x="506" y="696.5" type="curve" smooth="yes"/>
      <point x="477.333" y="702.167"/>
      <point x="452" y="706.667"/>
      <point x="430" y="710" type="curve" smooth="yes"/>
      <point x="408" y="713.333"/>
      <point x="395.333" y="716"/>
      <point x="392" y="718" type="curve" smooth="yes"/>
      <point x="384.667" y="720.667"/>
      <point x="381.833" y="724.5"/>
      <point x="383.5" y="729.5" type="curve" smooth="yes"/>
      <point x="385.167" y="734.5"/>
      <point x="389" y="737"/>
      <point x="395" y="737" type="curve" smooth="yes"/>
      <point x="398.333" y="737"/>
      <point x="410.667" y="735.667"/>
      <point x="432" y="733" type="curve" smooth="yes"/>
      <point x="453.333" y="730.333"/>
      <point x="479" y="726.667"/>
      <point x="509" y="722" type="curve" smooth="yes"/>
      <point x="539" y="717.333"/>
      <point x="570.667" y="711"/>
      <point x="604" y="703" type="curve" smooth="yes"/>
      <point x="637.333" y="695"/>
      <point x="667.667" y="686"/>
      <point x="695" y="676" type="curve" smooth="yes"/>
      <point x="727" y="662.667"/>
      <point x="752.667" y="649.667"/>
      <point x="772" y="637" type="curve" smooth="yes"/>
      <point x="791.333" y="624.333"/>
      <point x="809" y="607.333"/>
      <point x="825" y="586" type="curve" smooth="yes"/>
      <point x="841" y="564"/>
      <point x="847.833" y="542.333"/>
      <point x="845.5" y="521" type="curve" smooth="yes"/>
      <point x="843.167" y="499.667"/>
      <point x="833.667" y="483"/>
      <point x="817" y="471" type="curve" smooth="yes"/>
      <point x="802.333" y="459.667"/>
      <point x="785.5" y="452.167"/>
      <point x="766.5" y="448.5" type="curve" smooth="yes"/>
      <point x="747.5" y="444.833"/>
      <point x="729.333" y="443"/>
      <point x="712" y="443" type="curve" smooth="yes"/>
      <point x="686" y="443"/>
      <point x="686" y="443"/>
      <point x="676" y="443" type="curve" smooth="yes"/>
      <point x="669.333" y="443"/>
      <point x="657.333" y="445"/>
    </contour>
  </outline>
</glyph>
<glyph name="oligonChamili" format="2">
  <advance width="1515"/>
  <unicode hex="E015"/>




















  <outline>
    <contour>
      <point x="989" y="530" type="curve"/>
      <point x="998" y="492" type="line" smooth="yes"/>
      <point x="998.667" y="489.333"/>
      <point x="1002.33" y="482.833"/>
      <point x="1009" y="472.5" type="curve" smooth="yes"/>
      <point x="1015.67" y="462.167"/>
      <point x="1019" y="455.667"/>
      <point x="1019" y="453" type="curve" smooth="yes"/>
      <point x="1019" y="450.333"/>
      <point x="1013.5" y="448"/>
      <point x="1002.5" y="446" type="curve" smooth="yes"/>
      <point x="991.5" y="444"/>
      <point x="984" y="443"/>
      <point x="980" y="443" type="curve" smooth="yes"/>
      <point x="919" y="443" type="line" smooth="yes"/>
      <point x="911" y="443"/>
      <point x="903.5" y="448.667"/>
      <point x="896.5" y="460" type="curve" smooth="yes"/>
      <point x="889.5" y="471.333"/>
      <point x="885" y="482"/>
      <point x="883" y="492" type="curve" smooth="yes"/>
      <point x="875" y="531" type="line"/>
      <point x="797" y="531"/>
      <point x="725.333" y="534"/>
      <point x="660" y="540" type="curve" smooth="yes"/>
      <point x="594.667" y="546"/>
      <point x="548.333" y="551.333"/>
      <point x="521" y="556" type="curve" smooth="yes"/>
      <point x="470.333" y="564"/>
      <point x="428.5" y="578"/>
      <point x="395.5" y="598" type="curve" smooth="yes"/>
      <point x="362.5" y="618"/>
      <point x="340.667" y="640.667"/>
      <point x="330" y="666" type="curve" smooth="yes"/>
      <point x="324.667" y="678.667"/>
      <point x="315" y="697.5"/>
      <point x="301" y="722.5" type="curve" smooth="yes"/>
      <point x="287" y="747.5"/>
      <point x="272.333" y="772.667"/>
      <point x="257" y="798" type="curve" smooth="yes"/>
      <point x="241.667" y="823.333"/>
      <point x="227.167" y="846"/>
      <point x="213.5" y="866" type="curve" smooth="yes"/>
      <point x="199.833" y="886"/>
      <point x="190.333" y="897.333"/>
      <point x="185" y="900" type="curve" smooth="yes"/>
      <point x="157.667" y="909.333"/>
      <point x="151.667" y="919.333"/>
      <point x="167" y="930" type="curve"/>
      <point x="201" y="932.667"/>
      <point x="233.167" y="934.5"/>
      <point x="263.5" y="935.5" type="curve" smooth="yes"/>
      <point x="293.833" y="936.5"/>
      <point x="325" y="935.667"/>
      <point x="357" y="933" type="curve" smooth="yes"/>
      <point x="389" y="931"/>
      <point x="412" y="912.667"/>
      <point x="426" y="878" type="curve" smooth="yes"/>
      <point x="440" y="843.333"/>
      <point x="453.667" y="798"/>
      <point x="467" y="742" type="curve" smooth="yes"/>
      <point x="481" y="686"/>
      <point x="498.333" y="647.833"/>
      <point x="519" y="627.5" type="curve" smooth="yes"/>
      <point x="539.667" y="607.167"/>
      <point x="575" y="590.333"/>
      <point x="625" y="577" type="curve" smooth="yes"/>
      <point x="653" y="569"/>
      <point x="686.833" y="564"/>
      <point x="726.5" y="562" type="curve" smooth="yes"/>
      <point x="766.167" y="560"/>
      <point x="814.667" y="559.333"/>
      <point x="872" y="560" type="curve"/>
      <point x="859" y="629" type="line" smooth="yes"/>
      <point x="858.333" y="632.333"/>
      <point x="855" y="636.833"/>
      <point x="849" y="642.5" type="curve" smooth="yes"/>
      <point x="843" y="648.167"/>
      <point x="840" y="652.333"/>
      <point x="840" y="655" type="curve" smooth="yes"/>
      <point x="840" y="659"/>
      <point x="845.5" y="661.667"/>
      <point x="856.5" y="663" type="curve" smooth="yes"/>
      <point x="867.5" y="664.333"/>
      <point x="875" y="665"/>
      <point x="879" y="665" type="curve" smooth="yes"/>
      <point x="940" y="665" type="line" smooth="yes"/>
      <point x="947.333" y="665"/>
      <point x="954.5" y="659.833"/>
      <point x="961.5" y="649.5" type="curve" smooth="yes"/>
      <point x="968.5" y="639.167"/>
      <point x="973.333" y="628"/>
      <point x="976" y="616" type="curve" smooth="yes"/>
      <point x="986" y="561" type="line"/>
      <point x="1030.67" y="561.667"/>
      <point x="1061.17" y="563.167"/>
      <point x="1077.5" y="565.5" type="curve" smooth="yes"/>
      <point x="1093.83" y="567.833"/>
      <point x="1111" y="570.333"/>
      <point x="1129" y="573" type="curve"/>
      <point x="1136.33" y="572.333"/>
      <point x="1140.83" y="569"/>
      <point x="1142.5" y="563" type="curve" smooth="yes"/>
      <point x="1144.17" y="557"/>
      <point x="1142.67" y="551.667"/>
      <point x="1138" y="547" type="curve" smooth="yes"/>
      <point x="1131.33" y="541.667"/>
      <point x="1117.67" y="537.5"/>
      <point x="1097" y="534.5" type="curve" smooth="yes"/>
      <point x="1076.33" y="531.5"/>
      <point x="1040.33" y="530"/>
    </contour>
    <contour>
      <point x="85" y="384" type="curve" smooth="yes"/>
      <point x="88.3333" y="389.333"/>
      <point x="92.1667" y="392.167"/>
      <point x="96.5" y="392.5" type="curve" smooth="yes"/>
      <point x="100.833" y="392.833"/>
      <point x="105.333" y="391.667"/>
      <point x="110" y="389" type="curve" smooth="yes"/>
      <point x="114.667" y="386.333"/>
      <point x="120.667" y="383.167"/>
      <point x="128" y="379.5" type="curve" smooth="yes"/>
      <point x="135.333" y="375.833"/>
      <point x="144.667" y="372.833"/>
      <point x="156" y="370.5" type="curve" smooth="yes"/>
      <point x="167.333" y="368.167"/>
      <point x="183.333" y="367"/>
      <point x="204" y="367" type="curve" smooth="yes"/>
      <point x="1228" y="367" type="line" smooth="yes"/>
      <point x="1246.67" y="367"/>
      <point x="1263.67" y="365.5"/>
      <point x="1279" y="362.5" type="curve" smooth="yes"/>
      <point x="1294.33" y="359.5"/>
      <point x="1308.33" y="354.667"/>
      <point x="1321" y="348" type="curve" smooth="yes"/>
      <point x="1333.67" y="341.333"/>
      <point x="1343.5" y="335.333"/>
      <point x="1350.5" y="330" type="curve" smooth="yes"/>
      <point x="1357.5" y="324.667"/>
      <point x="1367" y="315.5"/>
      <point x="1379" y="302.5" type="curve" smooth="yes"/>
      <point x="1391" y="289.5"/>
      <point x="1401.5" y="277"/>
      <point x="1410.5" y="265" type="curve" smooth="yes"/>
      <point x="1419.5" y="253"/>
      <point x="1421.33" y="241.333"/>
      <point x="1416" y="230" type="curve"/>
      <point x="1410.67" y="222"/>
      <point x="1404.5" y="220.333"/>
      <point x="1397.5" y="225" type="curve" smooth="yes"/>
      <point x="1390.5" y="229.667"/>
      <point x="1382.33" y="233.667"/>
      <point x="1373" y="237" type="curve" smooth="yes"/>
      <point x="1363.67" y="240.333"/>
      <point x="1353.5" y="242.667"/>
      <point x="1342.5" y="244" type="curve" smooth="yes"/>
      <point x="1331.5" y="245.333"/>
      <point x="1314.33" y="246"/>
      <point x="1291" y="246" type="curve" smooth="yes"/>
      <point x="282" y="246" type="line" smooth="yes"/>
      <point x="266.667" y="246"/>
      <point x="252.667" y="247"/>
      <point x="240" y="249" type="curve" smooth="yes"/>
      <point x="227.333" y="251"/>
      <point x="217.5" y="253.167"/>
      <point x="210.5" y="255.5" type="curve" smooth="yes"/>
      <point x="203.5" y="257.833"/>
      <point x="196" y="261"/>
      <point x="188" y="265" type="curve" smooth="yes"/>
      <point x="180" y="269"/>
      <point x="171.5" y="273.833"/>
      <point x="162.5" y="279.5" type="curve" smooth="yes"/>
      <point x="153.5" y="285.167"/>
      <point x="144" y="293.167"/>
      <point x="134" y="303.5" type="curve" smooth="yes"/>
      <point x="124" y="313.833"/>
      <point x="113.833" y="325.833"/>
      <point x="103.5" y="339.5" type="curve" smooth="yes"/>
      <point x="93.1667" y="353.167"/>
      <point x="86.6667" y="362.667"/>
      <point x="84" y="368" type="curve" smooth="yes"/>
      <point x="81.3333" y="373.333"/>
      <point x="81.6667" y="378.667"/>
    </contour>
  </outline>
</glyph>
<glyph name="isonApostrofos" format="2">
  <advance width="1447"/>
  <unicode hex="E020"/>
  <anchor x="690" y="891" name="yfenAbove"/>
  <anchor x="754" y="-236" name="yfenBelow"/>
  <anchor x="630" y="881" name="koronis"/>
  <anchor x="1244" y="-424" name="apli"/>
  <anchor x="172" y="773" name="measureNumber"/>
  <anchor x="630" y="895" name="isonIndicator"/>
  <anchor x="322" y="661" name="noteTop"/>
  <anchor x="644" y="507" name="fthoraTop"/>
  <anchor x="420" y="153" name="fthoraBottom"/>
  <anchor x="400" y="133" name="diesis"/>
  <outline>
    <contour>
      <point x="1144" y="-218" type="curve"/>
      <point x="1136.67" y="-212"/>
      <point x="1136.17" y="-206.5"/>
      <point x="1142.5" y="-201.5" type="curve" smooth="yes"/>
      <point x="1148.83" y="-196.5"/>
      <point x="1157" y="-194"/>
      <point x="1167" y="-194" type="curve" smooth="yes"/>
      <point x="1177.67" y="-194"/>
      <point x="1192.83" y="-184.167"/>
      <point x="1212.5" y="-164.5" type="curve" smooth="yes"/>
      <point x="1232.17" y="-144.833"/>
      <point x="1245" y="-121"/>
      <point x="1251" y="-93" type="curve" smooth="yes"/>
      <point x="1261" y="-44.3333"/>
      <point x="1235.67" y="-4.33333"/>
      <point x="1175" y="27" type="curve" smooth="yes"/>
      <point x="1109" y="59.6667"/>
      <point x="1024" y="81.3333"/>
      <point x="920" y="92" type="curve" smooth="yes"/>
      <point x="902.667" y="93.3333"/>
      <point x="883.167" y="94"/>
      <point x="861.5" y="94" type="curve" smooth="yes"/>
      <point x="839.833" y="94"/>
      <point x="827.667" y="94.3333"/>
      <point x="825" y="95" type="curve" smooth="yes"/>
      <point x="815.667" y="98.3333"/>
      <point x="812" y="104"/>
      <point x="814" y="112" type="curve" smooth="yes"/>
      <point x="816" y="120"/>
      <point x="821" y="124.667"/>
      <point x="829" y="126" type="curve" smooth="yes"/>
      <point x="836.333" y="126"/>
      <point x="854.333" y="125.167"/>
      <point x="883" y="123.5" type="curve" smooth="yes"/>
      <point x="911.667" y="121.833"/>
      <point x="943.333" y="118.667"/>
      <point x="978" y="114" type="curve" smooth="yes"/>
      <point x="1017.33" y="108"/>
      <point x="1057.17" y="100"/>
      <point x="1097.5" y="90" type="curve" smooth="yes"/>
      <point x="1137.83" y="80"/>
      <point x="1175.33" y="68.3333"/>
      <point x="1210" y="55" type="curve" smooth="yes"/>
      <point x="1249.33" y="39.6667"/>
      <point x="1280.67" y="24.1667"/>
      <point x="1304" y="8.5" type="curve" smooth="yes"/>
      <point x="1327.33" y="-7.16667"/>
      <point x="1349" y="-27.6667"/>
      <point x="1369" y="-53" type="curve" smooth="yes"/>
      <point x="1388.33" y="-79.6667"/>
      <point x="1396.33" y="-106"/>
      <point x="1393" y="-132" type="curve" smooth="yes"/>
      <point x="1389.67" y="-158"/>
      <point x="1378.33" y="-178"/>
      <point x="1359" y="-192" type="curve" smooth="yes"/>
      <point x="1341.67" y="-205.333"/>
      <point x="1321.33" y="-214.333"/>
      <point x="1298" y="-219" type="curve" smooth="yes"/>
      <point x="1274.67" y="-223.667"/>
      <point x="1252.33" y="-226"/>
      <point x="1231" y="-226" type="curve" smooth="yes"/>
      <point x="1199" y="-226"/>
      <point x="1199" y="-226"/>
      <point x="1187.5" y="-226" type="curve" smooth="yes"/>
      <point x="1179.83" y="-226"/>
      <point x="1165.33" y="-223.333"/>
    </contour>
    <contour>
      <point x="103" y="443" type="curve"/>
      <point x="77.6667" y="489"/>
      <point x="70.8333" y="528.5"/>
      <point x="82.5" y="561.5" type="curve" smooth="yes"/>
      <point x="94.1667" y="594.5"/>
      <point x="115" y="612"/>
      <point x="145" y="614" type="curve" smooth="yes"/>
      <point x="164.333" y="615.333"/>
      <point x="179.167" y="613.833"/>
      <point x="189.5" y="609.5" type="curve" smooth="yes"/>
      <point x="199.833" y="605.167"/>
      <point x="209" y="600.833"/>
      <point x="217" y="596.5" type="curve" smooth="yes"/>
      <point x="225" y="592.167"/>
      <point x="232.5" y="587.5"/>
      <point x="239.5" y="582.5" type="curve" smooth="yes"/>
      <point x="246.5" y="577.5"/>
      <point x="253" y="572.333"/>
      <point x="259" y="567" type="curve" smooth="yes"/>
      <point x="265" y="561.667"/>
      <point x="269.167" y="556.833"/>
      <point x="271.5" y="552.5" type="curve" smooth="yes"/>
      <point x="273.833" y="548.167"/>
      <point x="274.833" y="544.167"/>
      <point x="274.5" y="540.5" type="curve" smooth="yes"/>
      <point x="274.167" y="536.833"/>
      <point x="272.833" y="534.333"/>
      <point x="270.5" y="533" type="curve" smooth="yes"/>
      <point x="268.167" y="531.667"/>
      <point x="261.167" y="528.667"/>
      <point x="249.5" y="524" type="curve" smooth="yes"/>
      <point x="237.833" y="519.333"/>
      <point x="222.667" y="511.833"/>
      <point x="204" y="501.5" type="curve" smooth="yes"/>
      <point x="185.333" y="491.167"/>
      <point x="176.333" y="473.667"/>
      <point x="177" y="449" type="curve" smooth="yes"/>
      <point x="177" y="423.667"/>
      <point x="203.333" y="399.833"/>
      <point x="256" y="377.5" type="curve" smooth="yes"/>
      <point x="308.667" y="355.167"/>
      <point x="387" y="346"/>
      <point x="491" y="350" type="curve" smooth="yes"/>
      <point x="938" y="369" type="line" smooth="yes"/>
      <point x="960" y="369"/>
      <point x="977.5" y="367.5"/>
      <point x="990.5" y="364.5" type="curve" smooth="yes"/>
      <point x="1003.5" y="361.5"/>
      <point x="1015.33" y="357.667"/>
      <point x="1026" y="353" type="curve" smooth="yes"/>
      <point x="1036.67" y="348.333"/>
      <point x="1045.67" y="343.833"/>
      <point x="1053" y="339.5" type="curve" smooth="yes"/>
      <point x="1060.33" y="335.167"/>
      <point x="1069" y="328.5"/>
      <point x="1079" y="319.5" type="curve" smooth="yes"/>
      <point x="1089" y="310.5"/>
      <point x="1100.5" y="299"/>
      <point x="1113.5" y="285" type="curve" smooth="yes"/>
      <point x="1126.5" y="271"/>
      <point x="1135.17" y="260.667"/>
      <point x="1139.5" y="254" type="curve" smooth="yes"/>
      <point x="1143.83" y="247.333"/>
      <point x="1146" y="240.833"/>
      <point x="1146" y="234.5" type="curve" smooth="yes"/>
      <point x="1146" y="228.167"/>
      <point x="1143.83" y="224"/>
      <point x="1139.5" y="222" type="curve" smooth="yes"/>
      <point x="1135.17" y="220"/>
      <point x="1130.67" y="219"/>
      <point x="1126" y="219" type="curve" smooth="yes"/>
      <point x="1121.33" y="219"/>
      <point x="1116.33" y="220"/>
      <point x="1111" y="222" type="curve" smooth="yes"/>
      <point x="1105.67" y="224"/>
      <point x="1099.17" y="226.333"/>
      <point x="1091.5" y="229" type="curve" smooth="yes"/>
      <point x="1083.83" y="231.667"/>
      <point x="1075.33" y="234.333"/>
      <point x="1066" y="237" type="curve" smooth="yes"/>
      <point x="1056.67" y="239.667"/>
      <point x="1048" y="241.667"/>
      <point x="1040" y="243" type="curve" smooth="yes"/>
      <point x="1032" y="244.333"/>
      <point x="1021" y="245.333"/>
      <point x="1007" y="246" type="curve" smooth="yes"/>
      <point x="900" y="252" type="line"/>
      <point x="838.667" y="252"/>
      <point x="774.167" y="254.5"/>
      <point x="706.5" y="259.5" type="curve" smooth="yes"/>
      <point x="638.833" y="264.5"/>
      <point x="575" y="271"/>
      <point x="515" y="279" type="curve" smooth="yes"/>
      <point x="455" y="287"/>
      <point x="402.333" y="295.667"/>
      <point x="357" y="305" type="curve" smooth="yes"/>
      <point x="311.667" y="314.333"/>
      <point x="280.667" y="322"/>
      <point x="264" y="328" type="curve" smooth="yes"/>
      <point x="235.333" y="340"/>
      <point x="209.833" y="351.833"/>
      <point x="187.5" y="363.5" type="curve" smooth="yes"/>
      <point x="165.167" y="375.167"/>
      <point x="137" y="401.667"/>
    </contour>
  </outline>
</glyph>
<glyph name="apostrofosSyndesmos" format="2">
  <advance width="1177"/>
  <unicode hex="E022"/>
  <anchor x="930" y="891" name="yfenAbove"/>
  <anchor x="929" y="-400" name="yfenBelow"/>
  <anchor x="630" y="881" name="koronis"/>
  <anchor x="944" y="-424" name="apli"/>
  <anchor x="172" y="803" name="measureNumber"/>
  <anchor x="630" y="895" name="isonIndicator"/>
  <anchor x="194" y="699" name="noteTop"/>
  <anchor x="587" y="642" name="fthoraTop"/>
  <anchor x="373" y="93" name="fthoraBottom"/>
  <anchor x="938" y="193" name="gorgonTop"/>
  <anchor x="333" y="127" name="diesis"/>
  <outline>
    <contour>
      <point x="868" y="-217" type="curve"/>
      <point x="860.667" y="-211"/>
      <point x="860.333" y="-205.667"/>
      <point x="867" y="-201" type="curve" smooth="yes"/>
      <point x="873.667" y="-196.333"/>
      <point x="882" y="-194"/>
      <point x="892" y="-194" type="curve" smooth="yes"/>
      <point x="902.667" y="-194"/>
      <point x="917.833" y="-184"/>
      <point x="937.5" y="-164" type="curve" smooth="yes"/>
      <point x="957.167" y="-144"/>
      <point x="970" y="-120"/>
      <point x="976" y="-92" type="curve" smooth="yes"/>
      <point x="986" y="-43.3333"/>
      <point x="960.333" y="-3.33333"/>
      <point x="899" y="28" type="curve" smooth="yes"/>
      <point x="833" y="60.6667"/>
      <point x="748.333" y="82.3333"/>
      <point x="645" y="93" type="curve" smooth="yes"/>
      <point x="627.667" y="94.3333"/>
      <point x="608" y="95"/>
      <point x="586" y="95" type="curve" smooth="yes"/>
      <point x="564" y="95"/>
      <point x="551.667" y="95.3333"/>
      <point x="549" y="96" type="curve" smooth="yes"/>
      <point x="539.667" y="99.3333"/>
      <point x="536.167" y="105"/>
      <point x="538.5" y="113" type="curve" smooth="yes"/>
      <point x="540.833" y="121"/>
      <point x="545.667" y="125.333"/>
      <point x="553" y="126" type="curve" smooth="yes"/>
      <point x="560.333" y="126.667"/>
      <point x="578.5" y="126.167"/>
      <point x="607.5" y="124.5" type="curve" smooth="yes"/>
      <point x="636.5" y="122.833"/>
      <point x="668" y="119.667"/>
      <point x="702" y="115" type="curve" smooth="yes"/>
      <point x="741.333" y="109"/>
      <point x="781.167" y="101"/>
      <point x="821.5" y="91" type="curve" smooth="yes"/>
      <point x="861.833" y="81"/>
      <point x="899.667" y="69.3333"/>
      <point x="935" y="56" type="curve" smooth="yes"/>
      <point x="974.333" y="40.6667"/>
      <point x="1005.67" y="25.1667"/>
      <point x="1029" y="9.5" type="curve" smooth="yes"/>
      <point x="1052.33" y="-6.16667"/>
      <point x="1073.67" y="-26.6667"/>
      <point x="1093" y="-52" type="curve" smooth="yes"/>
      <point x="1112.33" y="-78.6667"/>
      <point x="1120.5" y="-105"/>
      <point x="1117.5" y="-131" type="curve" smooth="yes"/>
      <point x="1114.5" y="-157"/>
      <point x="1103" y="-177.333"/>
      <point x="1083" y="-192" type="curve" smooth="yes"/>
      <point x="1065.67" y="-205.333"/>
      <point x="1045.5" y="-214.167"/>
      <point x="1022.5" y="-218.5" type="curve" smooth="yes"/>
      <point x="999.5" y="-222.833"/>
      <point x="977.333" y="-225"/>
      <point x="956" y="-225" type="curve" smooth="yes"/>
      <point x="934.667" y="-225"/>
      <point x="920" y="-224.833"/>
      <point x="912" y="-224.5" type="curve" smooth="yes"/>
      <point x="904" y="-224.167"/>
      <point x="889.333" y="-221.667"/>
    </contour>
    <contour>
      <point x="409" y="208" type="curve"/>
      <point x="401.667" y="214"/>
      <point x="401.333" y="219.5"/>
      <point x="408" y="224.5" type="curve" smooth="yes"/>
      <point x="414.667" y="229.5"/>
      <point x="423" y="232"/>
      <point x="433" y="232" type="curve" smooth="yes"/>
      <point x="443.667" y="232"/>
      <point x="458.833" y="241.667"/>
      <point x="478.5" y="261" type="curve" smooth="yes"/>
      <point x="498.167" y="280.333"/>
      <point x="511" y="304.333"/>
      <point x="517" y="333" type="curve" smooth="yes"/>
      <point x="527" y="381.667"/>
      <point x="501.333" y="421.667"/>
      <point x="440" y="453" type="curve" smooth="yes"/>
      <point x="374.667" y="485.667"/>
      <point x="290" y="507"/>
      <point x="186" y="517" type="curve" smooth="yes"/>
      <point x="168" y="519"/>
      <point x="148.333" y="519.833"/>
      <point x="127" y="519.5" type="curve" smooth="yes"/>
      <point x="105.667" y="519.167"/>
      <point x="93.3333" y="519.667"/>
      <point x="90" y="521" type="curve" smooth="yes"/>
      <point x="80.6667" y="524.333"/>
      <point x="77.1667" y="530"/>
      <point x="79.5" y="538" type="curve" smooth="yes"/>
      <point x="81.8333" y="546"/>
      <point x="86.6667" y="550.333"/>
      <point x="94" y="551" type="curve" smooth="yes"/>
      <point x="101.333" y="551.667"/>
      <point x="119.333" y="551.167"/>
      <point x="148" y="549.5" type="curve" smooth="yes"/>
      <point x="176.667" y="547.833"/>
      <point x="208.333" y="544.667"/>
      <point x="243" y="540" type="curve" smooth="yes"/>
      <point x="282.333" y="534"/>
      <point x="322.167" y="526"/>
      <point x="362.5" y="516" type="curve" smooth="yes"/>
      <point x="402.833" y="506"/>
      <point x="440.667" y="494.333"/>
      <point x="476" y="481" type="curve" smooth="yes"/>
      <point x="515.333" y="465.667"/>
      <point x="546.667" y="450.167"/>
      <point x="570" y="434.5" type="curve" smooth="yes"/>
      <point x="593.333" y="418.833"/>
      <point x="614.667" y="398"/>
      <point x="634" y="372" type="curve" smooth="yes"/>
      <point x="653.333" y="345.333"/>
      <point x="661.5" y="319.167"/>
      <point x="658.5" y="293.5" type="curve" smooth="yes"/>
      <point x="655.5" y="267.833"/>
      <point x="644.333" y="248"/>
      <point x="625" y="234" type="curve" smooth="yes"/>
      <point x="607.667" y="220.667"/>
      <point x="587.333" y="211.667"/>
      <point x="564" y="207" type="curve" smooth="yes"/>
      <point x="540.667" y="202.333"/>
      <point x="518.333" y="200"/>
      <point x="497" y="200" type="curve" smooth="yes"/>
      <point x="466" y="200"/>
      <point x="466" y="200"/>
      <point x="453.5" y="200" type="curve" smooth="yes"/>
      <point x="445.167" y="200"/>
      <point x="430.333" y="202.667"/>
    </contour>
  </outline>
</glyph>
<glyph name="runningElafron" format="2">
  <advance width="1752"/>
  <unicode hex="E025"/>






















  <outline>
    <contour>
      <point x="330" y="138" type="curve"/>
      <point x="322.667" y="143.333"/>
      <point x="322.167" y="148.5"/>
      <point x="328.5" y="153.5" type="curve" smooth="yes"/>
      <point x="334.833" y="158.5"/>
      <point x="343" y="161"/>
      <point x="353" y="161" type="curve" smooth="yes"/>
      <point x="363.667" y="161"/>
      <point x="378.167" y="170.5"/>
      <point x="396.5" y="189.5" type="curve" smooth="yes"/>
      <point x="414.833" y="208.5"/>
      <point x="427" y="231.667"/>
      <point x="433" y="259" type="curve" smooth="yes"/>
      <point x="442.333" y="305"/>
      <point x="418" y="343"/>
      <point x="360" y="373" type="curve" smooth="yes"/>
      <point x="338" y="383.667"/>
      <point x="310.667" y="393.167"/>
      <point x="278" y="401.5" type="curve" smooth="yes"/>
      <point x="245.333" y="409.833"/>
      <point x="213.333" y="416.833"/>
      <point x="182" y="422.5" type="curve" smooth="yes"/>
      <point x="150.667" y="428.167"/>
      <point x="123.167" y="433"/>
      <point x="99.5" y="437" type="curve" smooth="yes"/>
      <point x="75.8333" y="441"/>
      <point x="62" y="443.667"/>
      <point x="58" y="445" type="curve" smooth="yes"/>
      <point x="49.3333" y="448.333"/>
      <point x="46" y="453"/>
      <point x="48" y="459" type="curve" smooth="yes"/>
      <point x="50" y="465"/>
      <point x="54.6667" y="468"/>
      <point x="62" y="468" type="curve" smooth="yes"/>
      <point x="69.3333" y="468"/>
      <point x="110.833" y="462.5"/>
      <point x="186.5" y="451.5" type="curve" smooth="yes"/>
      <point x="262.167" y="440.5"/>
      <point x="331.333" y="423"/>
      <point x="394" y="399" type="curve" smooth="yes"/>
      <point x="431.333" y="384.333"/>
      <point x="461.167" y="369.667"/>
      <point x="483.5" y="355" type="curve" smooth="yes"/>
      <point x="505.833" y="340.333"/>
      <point x="526.333" y="320.667"/>
      <point x="545" y="296" type="curve" smooth="yes"/>
      <point x="563.667" y="271.333"/>
      <point x="571.5" y="246.5"/>
      <point x="568.5" y="221.5" type="curve" smooth="yes"/>
      <point x="565.5" y="196.5"/>
      <point x="554.667" y="177"/>
      <point x="536" y="163" type="curve" smooth="yes"/>
      <point x="518.667" y="150.333"/>
      <point x="499" y="141.833"/>
      <point x="477" y="137.5" type="curve" smooth="yes"/>
      <point x="455" y="133.167"/>
      <point x="434" y="131"/>
      <point x="414" y="131" type="curve" smooth="yes"/>
      <point x="384" y="131"/>
      <point x="384" y="131"/>
      <point x="372" y="131" type="curve" smooth="yes"/>
      <point x="364" y="131"/>
      <point x="350" y="133.333"/>
    </contour>
    <contour>
      <point x="887" y="140" type="curve"/>
      <point x="861.667" y="130.667"/>
      <point x="819" y="131.333"/>
      <point x="759" y="142" type="curve"/>
      <point x="723.667" y="150.667"/>
      <point x="692.5" y="162.333"/>
      <point x="665.5" y="177" type="curve" smooth="yes"/>
      <point x="638.5" y="191.667"/>
      <point x="617.667" y="217.333"/>
      <point x="603" y="254" type="curve"/>
      <point x="593" y="289.333"/>
      <point x="589.667" y="317.5"/>
      <point x="593" y="338.5" type="curve" smooth="yes"/>
      <point x="596.333" y="359.5"/>
      <point x="608" y="384"/>
      <point x="628" y="412" type="curve"/>
      <point x="647.333" y="435.333"/>
      <point x="669.833" y="453"/>
      <point x="695.5" y="465" type="curve" smooth="yes"/>
      <point x="721.167" y="477"/>
      <point x="752.667" y="486.667"/>
      <point x="790" y="494" type="curve" smooth="yes"/>
      <point x="827.333" y="501.333"/>
      <point x="857.667" y="505"/>
      <point x="881" y="505" type="curve" smooth="yes"/>
      <point x="904.333" y="505"/>
      <point x="929.667" y="504.333"/>
      <point x="957" y="503" type="curve" smooth="yes"/>
      <point x="983.667" y="501.667"/>
      <point x="1008.33" y="499.5"/>
      <point x="1031" y="496.5" type="curve" smooth="yes"/>
      <point x="1053.67" y="493.5"/>
      <point x="1081.33" y="487"/>
      <point x="1114" y="477" type="curve" smooth="yes"/>
      <point x="1168" y="462.333"/>
      <point x="1221.33" y="442"/>
      <point x="1274" y="416" type="curve" smooth="yes"/>
      <point x="1303.33" y="401.333"/>
      <point x="1334.67" y="385.5"/>
      <point x="1368" y="368.5" type="curve" smooth="yes"/>
      <point x="1401.33" y="351.5"/>
      <point x="1438.33" y="331.333"/>
      <point x="1479" y="308" type="curve" smooth="yes"/>
      <point x="1497.67" y="296.667"/>
      <point x="1518" y="284.667"/>
      <point x="1540" y="272" type="curve" smooth="yes"/>
      <point x="1562" y="259.333"/>
      <point x="1586" y="246.333"/>
      <point x="1612" y="233" type="curve"/>
      <point x="1631.33" y="221"/>
      <point x="1650.33" y="208.833"/>
      <point x="1669" y="196.5" type="curve" smooth="yes"/>
      <point x="1687.67" y="184.167"/>
      <point x="1695.5" y="171.833"/>
      <point x="1692.5" y="159.5" type="curve" smooth="yes"/>
      <point x="1689.5" y="147.167"/>
      <point x="1682.33" y="141.333"/>
      <point x="1671" y="142" type="curve" smooth="yes"/>
      <point x="1659.67" y="142.667"/>
      <point x="1624" y="142.333"/>
      <point x="1564" y="141" type="curve" smooth="yes"/>
      <point x="1504" y="139.667"/>
      <point x="1451.67" y="139.333"/>
      <point x="1407" y="140" type="curve"/>
      <point x="1389" y="153.333"/>
      <point x="1389.17" y="163"/>
      <point x="1407.5" y="169" type="curve" smooth="yes"/>
      <point x="1425.83" y="175"/>
      <point x="1439.33" y="182.333"/>
      <point x="1448" y="191" type="curve" smooth="yes"/>
      <point x="1464.67" y="208.333"/>
      <point x="1472.17" y="222"/>
      <point x="1470.5" y="232" type="curve" smooth="yes"/>
      <point x="1468.83" y="242"/>
      <point x="1466.17" y="249.833"/>
      <point x="1462.5" y="255.5" type="curve" smooth="yes"/>
      <point x="1458.83" y="261.167"/>
      <point x="1453.33" y="267.167"/>
      <point x="1446" y="273.5" type="curve" smooth="yes"/>
      <point x="1438.67" y="279.833"/>
      <point x="1420.5" y="293"/>
      <point x="1391.5" y="313" type="curve" smooth="yes"/>
      <point x="1362.5" y="333"/>
      <point x="1326.67" y="354"/>
      <point x="1284" y="376" type="curve"/>
      <point x="1245.33" y="392.667"/>
      <point x="1215" y="406.333"/>
      <point x="1193" y="417" type="curve" smooth="yes"/>
      <point x="1171" y="427.667"/>
      <point x="1135" y="439.667"/>
      <point x="1085" y="453" type="curve"/>
      <point x="1048.33" y="460.333"/>
      <point x="1011.17" y="464.833"/>
      <point x="973.5" y="466.5" type="curve" smooth="yes"/>
      <point x="935.833" y="468.167"/>
      <point x="897.333" y="462.667"/>
      <point x="858" y="450" type="curve"/>
      <point x="830.667" y="438"/>
      <point x="811.333" y="427.833"/>
      <point x="800" y="419.5" type="curve" smooth="yes"/>
      <point x="788.667" y="411.167"/>
      <point x="776.333" y="396.333"/>
      <point x="763" y="375" type="curve" smooth="yes"/>
      <point x="751" y="355"/>
      <point x="744" y="338"/>
      <point x="742" y="324" type="curve" smooth="yes"/>
      <point x="740" y="310"/>
      <point x="739.667" y="294"/>
      <point x="741" y="276" type="curve" smooth="yes"/>
      <point x="741.667" y="257.333"/>
      <point x="743.833" y="243.833"/>
      <point x="747.5" y="235.5" type="curve" smooth="yes"/>
      <point x="751.167" y="227.167"/>
      <point x="756" y="218.833"/>
      <point x="762" y="210.5" type="curve" smooth="yes"/>
      <point x="768" y="202.167"/>
      <point x="775.5" y="194.5"/>
      <point x="784.5" y="187.5" type="curve" smooth="yes"/>
      <point x="793.5" y="180.5"/>
      <point x="807.333" y="175.5"/>
      <point x="826" y="172.5" type="curve" smooth="yes"/>
      <point x="844.667" y="169.5"/>
      <point x="863" y="167"/>
      <point x="881" y="165" type="curve" smooth="yes"/>
      <point x="889" y="163.667"/>
      <point x="894" y="160.333"/>
      <point x="896" y="155" type="curve" smooth="yes"/>
      <point x="898" y="149.667"/>
      <point x="895" y="144.667"/>
    </contour>
  </outline>
</glyph>
<glyph name="chamili" format="2">
  <advance width="1113"/>
  <unicode hex="E027"/>


















  <outline>
    <contour>
      <point x="905" y="290" type="curve"/>
      <point x="914" y="252" type="line" smooth="yes"/>
      <point x="914.667" y="249.333"/>
      <point x="918.333" y="242.833"/>
      <point x="925" y="232.5" type="curve" smooth="yes"/>
      <point x="931.667" y="222.167"/>
      <point x="935" y="215.667"/>
      <point x="935" y="213" type="curve" smooth="yes"/>
      <point x="935" y="210.333"/>
      <point x="929.5" y="208"/>
      <point x="918.5" y="206" type="curve" smooth="yes"/>
      <point x="907.5" y="204"/>
      <point x="900" y="203"/>
      <point x="896" y="203" type="curve" smooth="yes"/>
      <point x="835" y="203" type="line" smooth="yes"/>
      <point x="827" y="203"/>
      <point x="819.5" y="208.667"/>
      <point x="812.5" y="220" type="curve" smooth="yes"/>
      <point x="805.5" y="231.333"/>
      <point x="801" y="242"/>
      <point x="799" y="252" type="curve" smooth="yes"/>
      <point x="791" y="290" type="line"/>
      <point x="713" y="290"/>
      <point x="641.5" y="293.167"/>
      <point x="576.5" y="299.5" type="curve" smooth="yes"/>
      <point x="512.167" y="305.833"/>
      <point x="466" y="311.333"/>
      <point x="438" y="316" type="curve" smooth="yes"/>
      <point x="335.333" y="332"/>
      <point x="271.333" y="368.667"/>
      <point x="246" y="426" type="curve" smooth="yes"/>
      <point x="240" y="438.667"/>
      <point x="230" y="464"/>
      <point x="216" y="502" type="curve" smooth="yes"/>
      <point x="202" y="540"/>
      <point x="187.167" y="579.333"/>
      <point x="171.5" y="620" type="curve" smooth="yes"/>
      <point x="155.833" y="660.667"/>
      <point x="141" y="697.5"/>
      <point x="127" y="730.5" type="curve" smooth="yes"/>
      <point x="113" y="763.5"/>
      <point x="103.333" y="781.333"/>
      <point x="98" y="784" type="curve" smooth="yes"/>
      <point x="70.6667" y="793.333"/>
      <point x="64.6667" y="803.667"/>
      <point x="80" y="815" type="curve"/>
      <point x="114" y="817.667"/>
      <point x="146.167" y="819.333"/>
      <point x="176.5" y="820" type="curve" smooth="yes"/>
      <point x="206.833" y="820.667"/>
      <point x="238.333" y="819.667"/>
      <point x="271" y="817" type="curve" smooth="yes"/>
      <point x="287" y="816.333"/>
      <point x="300.5" y="804.667"/>
      <point x="311.5" y="782" type="curve" smooth="yes"/>
      <point x="322.5" y="759.333"/>
      <point x="332.167" y="732"/>
      <point x="340.5" y="700" type="curve" smooth="yes"/>
      <point x="348.833" y="668"/>
      <point x="356.333" y="634"/>
      <point x="363" y="598" type="curve" smooth="yes"/>
      <point x="369.667" y="562"/>
      <point x="376.333" y="530"/>
      <point x="383" y="502" type="curve" smooth="yes"/>
      <point x="397" y="446"/>
      <point x="414.333" y="407.833"/>
      <point x="435" y="387.5" type="curve" smooth="yes"/>
      <point x="455.667" y="367.167"/>
      <point x="491" y="350.333"/>
      <point x="541" y="337" type="curve" smooth="yes"/>
      <point x="591.667" y="323.667"/>
      <point x="674" y="318"/>
      <point x="788" y="320" type="curve"/>
      <point x="775" y="389" type="line" smooth="yes"/>
      <point x="774.333" y="392.333"/>
      <point x="771" y="396.667"/>
      <point x="765" y="402" type="curve" smooth="yes"/>
      <point x="759" y="407.333"/>
      <point x="756" y="411.667"/>
      <point x="756" y="415" type="curve" smooth="yes"/>
      <point x="756" y="419"/>
      <point x="761.5" y="421.667"/>
      <point x="772.5" y="423" type="curve" smooth="yes"/>
      <point x="783.5" y="424.333"/>
      <point x="791" y="425"/>
      <point x="795" y="425" type="curve" smooth="yes"/>
      <point x="856" y="425" type="line" smooth="yes"/>
      <point x="863.333" y="425"/>
      <point x="870.5" y="419.833"/>
      <point x="877.5" y="409.5" type="curve" smooth="yes"/>
      <point x="884.5" y="399.167"/>
      <point x="889.333" y="388"/>
      <point x="892" y="376" type="curve" smooth="yes"/>
      <point x="902" y="321" type="line"/>
      <point x="946.667" y="321.667"/>
      <point x="977.167" y="323.167"/>
      <point x="993.5" y="325.5" type="curve" smooth="yes"/>
      <point x="1009.83" y="327.833"/>
      <point x="1027" y="330.333"/>
      <point x="1045" y="333" type="curve"/>
      <point x="1052.33" y="332.333"/>
      <point x="1056.83" y="329"/>
      <point x="1058.5" y="323" type="curve" smooth="yes"/>
      <point x="1060.17" y="317"/>
      <point x="1058.67" y="311.333"/>
      <point x="1054" y="306" type="curve" smooth="yes"/>
      <point x="1047.33" y="300.667"/>
      <point x="1033.67" y="296.667"/>
      <point x="1013" y="294" type="curve" smooth="yes"/>
      <point x="992.333" y="291.333"/>
      <point x="956.333" y="290"/>
    </contour>
  </outline>
</glyph>
